<svg xmlns="http://www.w3.org/2000/svg" viewBox="0 0 34.9 31.3"><g fill-rule="evenodd" clip-rule="evenodd" fill="#FFF"><path d="M33 .9c-.9 0-4.8 1.1-8.8 2.2 0 .1-.1.2-.1.2-.2.5-.6 1.1-.6 1.6 0 .3-.1.3.2.3h.6c.4 0 .8.3.9.7.2 1-.3 2-.7 2.9-.1.3-.2.6-.3.8L32 8v15.7c-1.1-.5-2.4-.8-3.8-.8-3.5 0-6.4 1.9-6.4 4.2s2.9 4.2 6.4 4.2c3.4 0 6.1-1.7 6.4-3.8.2-.4.3-.9.3-1.4V3c0-1-.1-2.1-1.9-2.1M21.2 5c.2-.5.4-.9.5-1.4.1-.2.1-.4.1-.6v-.1h-.1c-.4 0-.9 0-1.2-.2-.4-.3-.5-.9-.5-1.3 0-.5.2-.9.4-1.4-3.9 1.1-7.6 2.3-8.2 2.4-1.3.4-2.1.8-2.1 2.9v17.9c-1.1-.5-2.4-.9-3.9-.9-3.5 0-6.4 1.9-6.4 4.2 0 2.3 2.9 4.2 6.4 4.2 3.5 0 6.4-1.9 6.4-4.2v-.1c.2-.9.3-2.4.3-4.7V8.2l7.5-1.7c.4-.5.5-1 .8-1.5"/></g></svg>