<svg xmlns="http://www.w3.org/2000/svg" xmlns:xlink="http://www.w3.org/1999/xlink" viewBox="0 0 500 500"><symbol id="Y" viewBox="-136 -177.6 272 355.3"><defs><path id="a" d="M38 14.5L13.9 62.9c-.3.6-.9.9-1.5.9s-1.2-.4-1.5-.9l-23.7-48.4c-.4-.8-.1-1.8.8-2.2.8-.4 1.8-.1 2.2.8l22.2 45.3L35 13c.4-.8 1.4-1.2 2.2-.8.9.5 1.2 1.5.8 2.3"/></defs><clipPath id="b"><use xlink:href="#a" overflow="visible"/></clipPath><path clip-path="url(#b)" fill="#FFFFFC" d="M-17.9 68.8h61.1V7.1h-61.1z"/><defs><path id="c" d="M8.4 25.3l-19.2 37.6c-.3.6-.9.9-1.5.9s-1.2-.4-1.5-.9l-23.7-48.4c-.4-.8-.1-1.8.8-2.2.8-.4 1.8-.1 2.2.8l22.2 45.4L5.4 23.8c.4-.8 1.4-1.1 2.3-.7.8.4 1.1 1.4.7 2.2"/></defs><clipPath id="d"><use xlink:href="#c" overflow="visible"/></clipPath><path clip-path="url(#d)" fill="#FFFFFC" d="M-42.7 68.8h56.3V7.1h-56.3z"/><defs><path id="e" d="M7 53.4L27.8 13c.4-.8 1.4-1.1 2.3-.7.8.4 1.1 1.4.7 2.2L10 54.9c-.4.8-1.4 1.1-2.3.7-.8-.4-1.1-1.4-.7-2.2"/></defs><clipPath id="f"><use xlink:href="#e" overflow="visible"/></clipPath><path clip-path="url(#f)" fill="#FFFFFC" d="M1.8 60.8h34.1V7.1H1.8z"/><defs><path id="g" d="M-13.8 61.4L11.1 13c.4-.8 1.4-1.1 2.3-.7.8.4 1.1 1.4.7 2.3L-10.8 63c-.4.8-1.4 1.1-2.3.7-.8-.5-1.1-1.5-.7-2.3"/></defs><clipPath id="h"><use xlink:href="#g" overflow="visible"/></clipPath><path clip-path="url(#h)" fill="#FFFFFC" d="M-19 68.8h38.3V7.1H-19z"/><defs><path id="i" d="M1.2 103.9c-36.7 0-66.4-29.7-66.4-66.4 0-36.6 29.7-66.4 66.4-66.4S67.6.8 67.6 37.5s-29.7 66.4-66.4 66.4m0-3.3c34.8 0 63.1-28.3 63.1-63s-28.3-63-63.1-63-63.1 28.3-63.1 63 28.3 63 63.1 63"/></defs><clipPath id="j"><use xlink:href="#i" overflow="visible"/></clipPath><path clip-path="url(#j)" fill="#FFFFFC" d="M-70.2 108.9H72.6V-33.8H-70.2z"/><text transform="matrix(1 0 0 -1 -115.01 -113.177)" fill="#FFF" font-family="'Anders'" font-size="15.499">M</text><text transform="matrix(1 0 0 -1 -98.14 -113.177)" fill="#FFF" font-family="'Anders'" font-size="15.499">A</text><text transform="matrix(1 0 0 -1 -86.466 -113.177)" fill="#FFF" font-family="'Anders'" font-size="15.499">KE A</text><text transform="matrix(1 0 0 -1 -43.812 -113.177)" fill="#FFF" font-family="'Anders'" font-size="15.499">S</text><text transform="matrix(1 0 0 -1 -33.15 -113.177)" fill="#FFF" font-family="'Anders'" font-size="15.499">O</text><text transform="matrix(1 0 0 -1 -19.854 -113.177)" fill="#FFF" font-family="'Anders'" font-size="15.499">U</text><text transform="matrix(1 0 0 -1 -10 -113.177)" fill="#FFF" font-family="'Anders'" font-size="15.499">ND</text><text transform="matrix(1 0 0 -1 21.82 -113.177)" fill="#FFF" font-family="'Anders'" font-size="15.499">A</text><text transform="matrix(1 0 0 -1 32.145 -113.177)" fill="#FFF" font-family="'Anders'" font-size="15.499">ND</text><text transform="matrix(1 0 0 -1 63.965 -113.177)" fill="#FFF" font-family="'Anders'" font-size="15.499">S</text><text transform="matrix(1 0 0 -1 72.952 -113.177)" fill="#FFF" font-family="'Anders'" font-size="15.499">H</text><text transform="matrix(1 0 0 -1 85.874 -113.177)" fill="#FFF" font-family="'Anders'" font-size="15.499">ARE</text><defs><path id="k" d="M30.8-74.5c0-1.8-.4-3.4-1.2-4.8-.8-1.4-1.8-2.5-3.1-3.4-1.3-.9-2.7-1.6-4.3-2-1.6-.5-3.2-.7-4.8-.7-2.9 0-5.6.6-8.1 1.7S4.5-81 2.4-79.1l-.3.6.3.5.6.3.5-.3c2.1-1.7 4.2-3.1 6.5-4.2 2.2-1.1 4.7-1.6 7.5-1.6 1.4 0 2.8.2 4.2.6 1.4.4 2.7 1 3.8 1.8 1.1.8 2 1.8 2.7 2.9.7 1.2 1 2.6 1 4.1 0 1.3-.3 2.4-.9 3.3-.6.9-1.4 1.7-2.4 2.4s-2.1 1.2-3.4 1.6c-1.3.4-2.5.8-3.8 1.1-1.3.3-2.5.6-3.8.8-1.2.2-2.3.5-3.2.7-1.1.3-2.2.7-3.2 1.2s-1.9 1.2-2.7 1.9c-.8.8-1.4 1.7-1.8 2.7-.5 1-.7 2.2-.7 3.5 0 1.7.4 3.2 1.2 4.5.8 1.3 1.8 2.3 3.1 3.1 1.3.8 2.7 1.4 4.2 1.9 1.5.4 3 .6 4.5.6.9 0 2-.1 3.2-.3 1.2-.2 2.4-.5 3.6-.9 1.2-.4 2.3-.8 3.4-1.4 1-.5 1.9-1.1 2.6-1.8l.2-.3.1-.4-.3-.6-.6-.3-.4.2-.6.4-.6.4-.4.3c-1.5.9-3.1 1.6-4.8 2.2-1.7.5-3.5.8-5.3.8-1.3 0-2.6-.2-3.9-.5-1.3-.3-2.6-.8-3.7-1.5S6.7-50.3 6-51.4c-.6-.7-1-2-1-3.5 0-1.6.4-2.9 1.1-4 .7-1 1.7-1.9 2.9-2.5 1.2-.7 2.6-1.2 4.1-1.6 1.5-.4 3.1-.8 4.8-1.2l4.8-1.2c1.5-.4 2.9-1 4.1-1.8 1.2-.8 2.2-1.7 2.9-2.9.8-1.1 1.1-2.5 1.1-4.4"/></defs><clipPath id="l"><use xlink:href="#k" overflow="visible"/></clipPath><path clip-path="url(#l)" fill="#FFF" d="M-2.9-39.9h38.7v-50.4H-2.9z"/><defs><path id="m" d="M30.8-74.5h-.5c0-1.8-.4-3.3-1.1-4.5-.8-1.3-1.7-2.4-3-3.2-1.3-.9-2.6-1.5-4.2-2-1.6-.4-3.1-.7-4.7-.7-2.8 0-5.4.5-7.9 1.6s-4.7 2.6-6.7 4.4l-.3-.3.4.2-.2.4.1.2.3.2.3-.2.2.4-.3-.3c2.1-1.8 4.3-3.2 6.6-4.3 2.3-1.1 4.9-1.6 7.7-1.6 1.5 0 2.9.2 4.3.6 1.4.4 2.8 1 3.9 1.8 1.2.8 2.1 1.9 2.9 3.1.7 1.3 1.1 2.7 1.1 4.4 0 1.3-.3 2.5-1 3.6-.6 1-1.5 1.8-2.5 2.5S24-67 22.7-66.5c-1.3.4-2.6.8-3.8 1.1-1.3.3-2.5.6-3.8.8-1.2.2-2.3.5-3.2.7l-.1-.4.1.4c-1.1.3-2.1.7-3.1 1.2S7-61.6 6.2-60.8c-.7.7-1.3 1.6-1.7 2.6-.4 1-.6 2-.6 3.3 0 1.6.4 3 1.1 4.2.8 1.2 1.7 2.2 2.9 3 1.3.7 2.6 1.3 4.1 1.7 1.5.4 3 .6 4.4.6.9 0 2-.1 3.1-.3 1.2-.2 2.3-.5 3.5-.8 1.2-.4 2.3-.8 3.3-1.3s1.8-1.1 2.5-1.7l.3.3-.3-.3.1-.2v-.1l-.1-.3-.2-.1-.2.1-.6.4-.6.4-.4.3c-1.5.9-3.2 1.7-4.9 2.2-1.8.6-3.6.8-5.4.8-1.3 0-2.7-.2-4-.5-1.4-.3-2.7-.8-3.8-1.5-1.2-.7-2.2-1.6-2.9-2.7-.8-1.1-1.2-2.5-1.2-4.1 0-1.7.4-3.1 1.2-4.2.8-1.1 1.8-2 3.1-2.7 1.2-.7 2.7-1.2 4.2-1.6 1.5-.4 3.1-.8 4.8-1.2 1.6-.4 3.2-.8 4.7-1.2 1.5-.4 2.8-1 4-1.7 1.2-.7 2.1-1.6 2.8-2.7.7-1.1 1-2.5 1-4.2h.9c0 1.9-.4 3.5-1.2 4.7-.8 1.2-1.8 2.2-3.1 3-1.3.8-2.7 1.4-4.2 1.8-1.6.4-3.1.8-4.8 1.2-1.6.4-3.2.8-4.7 1.2-1.5.4-2.9.9-4 1.5-1.2.6-2.1 1.4-2.8 2.4-.7.9-1 2.2-1 3.7 0 1.4.3 2.6 1 3.6s1.6 1.8 2.6 2.5c1.1.6 2.3 1.1 3.6 1.4 1.3.3 2.6.5 3.8.5 1.8 0 3.5-.3 5.2-.8 1.7-.5 3.3-1.2 4.7-2.1l.2.4-.2-.4.4-.3.6-.4.6-.4.4-.2.2-.1.9.4.4.8-.1.5v.1l-.3.3c-.7.7-1.7 1.3-2.7 1.9-1.1.6-2.2 1-3.4 1.4-1.2.4-2.4.7-3.6.9-1.2.2-2.3.3-3.3.3-1.5 0-3.1-.2-4.6-.6-1.6-.4-3-1.1-4.3-1.9-1.3-.9-2.4-2-3.2-3.3C3.4-51.7 3-53.2 3-55c0-1.3.2-2.5.7-3.6.5-1.1 1.1-2 1.9-2.8.8-.8 1.7-1.5 2.8-2 1.1-.5 2.2-1 3.3-1.3.9-.2 2-.5 3.2-.7 1.2-.2 2.5-.5 3.7-.8 1.3-.3 2.5-.7 3.8-1.1 1.2-.4 2.3-1 3.3-1.6.9-.6 1.7-1.4 2.2-2.2.6-.8.8-1.8.8-3.1 0-1.5-.3-2.8-1-3.9s-1.5-2.1-2.6-2.8c-1.1-.8-2.3-1.3-3.6-1.7-1.4-.4-2.7-.6-4.1-.6-2.7 0-5.2.5-7.3 1.5-2.2 1-4.3 2.4-6.4 4.1l-.6.3-.1.1-.8-.4H2l-.4-.9.4-.8v-.1l.1-.1c2.1-2 4.4-3.5 7-4.6 2.6-1.1 5.4-1.7 8.3-1.7 1.7 0 3.3.2 4.9.7 1.6.5 3.1 1.2 4.5 2.1 1.3.9 2.4 2.1 3.3 3.5.8 1.4 1.2 3.1 1.2 5h-.5"/></defs><clipPath id="n"><use xlink:href="#m" overflow="visible"/></clipPath><path clip-path="url(#n)" fill="#FFF" d="M-3.4-39.5h39.7v-51.3H-3.4z"/><defs><path id="o" d="M114.7-74.5c0-1.8-.4-3.4-1.2-4.8-.8-1.4-1.8-2.5-3.1-3.4-1.3-.9-2.7-1.6-4.3-2-1.6-.5-3.2-.7-4.8-.7-2.9 0-5.6.6-8.1 1.7-2.6 1.1-4.8 2.6-6.9 4.5l-.3.6.3.6.6.3.5-.3c2.1-1.7 4.2-3.1 6.5-4.2 2.2-1.1 4.7-1.6 7.5-1.6 1.4 0 2.8.2 4.2.6 1.4.4 2.7 1 3.8 1.8 1.1.8 2 1.8 2.7 2.9.7 1.2 1 2.6 1 4.1 0 1.3-.3 2.4-.9 3.3-.6.9-1.4 1.7-2.4 2.4s-2.1 1.2-3.4 1.6c-1.3.4-2.5.8-3.8 1.1-1.3.3-2.5.6-3.8.8-1.2.2-2.3.5-3.2.7-1.1.3-2.2.7-3.2 1.2s-1.9 1.2-2.7 1.9c-.8.8-1.4 1.7-1.8 2.7-.5 1-.7 2.2-.7 3.5 0 1.7.4 3.2 1.2 4.5.8 1.3 1.8 2.3 3.1 3.1 1.3.8 2.7 1.4 4.2 1.9 1.5.4 3 .6 4.5.6.9 0 2-.1 3.2-.3 1.2-.2 2.4-.5 3.6-.9 1.2-.4 2.3-.8 3.4-1.4 1-.5 1.9-1.1 2.6-1.8l.2-.3.1-.4-.3-.6-.6-.3-.4.2-.6.4-.6.4-.4.3c-1.5.9-3.1 1.6-4.8 2.2-1.7.5-3.5.8-5.3.8-1.3 0-2.6-.2-3.9-.5-1.3-.3-2.6-.8-3.7-1.5s-2.1-1.5-2.8-2.6c-.7-1.1-1.1-2.3-1.1-3.8 0-1.6.4-2.9 1.1-4 .7-1 1.7-1.9 2.9-2.5 1.2-.7 2.6-1.2 4.1-1.6 1.5-.4 3.1-.8 4.8-1.2l4.8-1.2c1.5-.4 2.9-1 4.1-1.8 1.2-.8 2.2-1.7 2.9-2.9.9-.8 1.2-2.2 1.2-4.1"/></defs><clipPath id="p"><use xlink:href="#o" overflow="visible"/></clipPath><path clip-path="url(#p)" fill="#FFF" d="M81-39.9h38.7v-50.4H81z"/><defs><path id="q" d="M114.7-74.5h-.5c0-1.8-.4-3.3-1.1-4.5-.8-1.3-1.7-2.4-3-3.2-1.3-.9-2.6-1.5-4.2-2-1.6-.4-3.1-.7-4.7-.7-2.8 0-5.4.5-7.9 1.6s-4.7 2.6-6.7 4.4l-.3-.3.4.2-.2.4.1.2.3.1.3-.2.2.4-.3-.3c2.1-1.8 4.3-3.2 6.6-4.3 2.3-1.1 4.9-1.6 7.7-1.6 1.5 0 2.9.2 4.3.6 1.4.4 2.8 1 3.9 1.8 1.2.8 2.1 1.9 2.9 3.1.7 1.3 1.1 2.7 1.1 4.4 0 1.3-.3 2.5-1 3.6-.6 1-1.5 1.8-2.5 2.5s-2.2 1.2-3.5 1.7c-1.3.4-2.6.8-3.8 1.1-1.3.3-2.5.6-3.8.8-1.2.2-2.3.5-3.2.7l-.1-.4.1.4c-1.1.3-2.1.7-3.1 1.2s-1.8 1.1-2.6 1.9c-.7.7-1.3 1.6-1.7 2.6-.4 1-.6 2-.6 3.3 0 1.6.4 3 1.1 4.2.8 1.2 1.7 2.2 2.9 3 1.2.8 2.6 1.4 4.1 1.8 1.5.4 3 .6 4.4.6.9 0 2-.1 3.1-.3 1.2-.2 2.3-.5 3.5-.8 1.2-.4 2.3-.8 3.3-1.3s1.8-1.1 2.5-1.7l.3.3-.3-.3.1-.2v-.1l-.1-.3-.2-.1-.2.1-.6.4-.6.4-.4.3c-1.5.9-3.2 1.7-4.9 2.2-1.8.6-3.6.8-5.4.8-1.3 0-2.7-.2-4-.5-1.4-.3-2.7-.8-3.8-1.5-1.2-.7-2.2-1.6-2.9-2.7-.8-1.1-1.2-2.5-1.2-4.1 0-1.7.4-3.1 1.2-4.2.8-1.1 1.8-2 3.1-2.7 1.2-.7 2.7-1.2 4.2-1.6 1.5-.4 3.1-.8 4.8-1.2 1.6-.4 3.2-.8 4.7-1.2 1.5-.4 2.8-1 4-1.7 1.2-.7 2.1-1.6 2.8-2.7.7-1.1 1-2.5 1-4.2h.9c0 1.9-.4 3.5-1.2 4.7-.8 1.2-1.8 2.2-3.1 3-1.3.8-2.7 1.4-4.2 1.8-1.6.4-3.1.8-4.8 1.2-1.6.4-3.2.8-4.7 1.2-1.5.4-2.9.9-4 1.5-1.2.6-2.1 1.4-2.8 2.4-.7.9-1 2.2-1 3.7 0 1.4.3 2.6 1 3.6s1.6 1.8 2.6 2.5c1.1.6 2.3 1.1 3.6 1.4 1.3.3 2.6.5 3.8.5 1.8 0 3.5-.3 5.2-.8 1.7-.5 3.3-1.2 4.7-2.1l.2.4-.2-.4.4-.3.6-.4.6-.4.4-.2.2-.1.7.3.2.1.3.7.1.1-.1.5v.1l-.3.3c-.7.7-1.7 1.3-2.7 1.9-1.1.6-2.2 1-3.4 1.4-1.2.4-2.4.7-3.6.9-1.2.2-2.3.3-3.3.3-1.5 0-3.1-.2-4.6-.6-1.6-.4-3-1.1-4.3-1.9-1.3-.9-2.4-2-3.2-3.3-.8-1.3-1.3-2.9-1.3-4.7 0-1.3.2-2.5.7-3.6.5-1.1 1.1-2 1.9-2.8.8-.8 1.7-1.5 2.8-2 1.1-.5 2.2-1 3.3-1.3.9-.2 2-.5 3.2-.7 1.2-.2 2.5-.5 3.7-.8 1.3-.3 2.5-.7 3.8-1.1 1.2-.4 2.3-1 3.3-1.6.9-.6 1.7-1.4 2.2-2.2.6-.8.8-1.8.8-3.1 0-1.5-.3-2.8-1-3.9s-1.5-2.1-2.6-2.8c-1.1-.8-2.3-1.3-3.6-1.7-1.4-.4-2.7-.6-4.1-.6-2.7 0-5.2.5-7.3 1.5-2.2 1-4.3 2.4-6.4 4.1l-.6.3-.2.1-.8-.4-.2-.1-.4-.9.4-.7v-.1l.1-.1c2.1-2 4.4-3.5 7-4.6 2.6-1.1 5.4-1.7 8.3-1.7 1.7 0 3.3.2 4.9.7 1.6.5 3.1 1.2 4.5 2.1 1.3.9 2.4 2.1 3.3 3.5.8 1.4 1.2 3.1 1.2 5h-.5"/></defs><clipPath id="r"><use xlink:href="#q" overflow="visible"/></clipPath><path clip-path="url(#r)" fill="#FFF" d="M80.5-39.5h39.7v-51.3H80.5z"/><g><defs><path id="s" d="M-50.9-84.8L-70.7-45c-.2.5-.7.8-1.2.8s-1-.3-1.2-.8l-19.5-39.8c-.3-.7-.1-1.5.6-1.8.7-.3 1.5-.1 1.8.6L-72-48.7-53.4-86c.3-.7 1.2-1 1.8-.6.8.3 1 1.1.7 1.8"/></defs><clipPath id="t"><use xlink:href="#s" overflow="visible"/></clipPath><path clip-path="url(#t)" fill="#FFF" d="M-97.8-39.2h52v-52.6h-52z"/></g><g><defs><path id="u" d="M-75.3-75.9l-15.8 31c-.2.5-.7.8-1.2.8s-1-.3-1.2-.8L-113-84.8c-.3-.7-.1-1.5.6-1.8.7-.3 1.5-.1 1.8.6l18.3 37.4 14.6-28.5c.3-.7 1.2-.9 1.9-.6.6.3.9 1.1.5 1.8"/></defs><clipPath id="v"><use xlink:href="#u" overflow="visible"/></clipPath><path clip-path="url(#v)" fill="#FFF" d="M-118.2-39.2h48.1v-52.6h-48.1z"/></g><g><defs><path id="w" d="M-76.4-52.8L-59.3-86c.3-.7 1.2-.9 1.9-.6.7.3.9 1.2.6 1.9L-74-51.5c-.3.7-1.2.9-1.9.6-.6-.4-.9-1.2-.5-1.9"/></defs><clipPath id="x"><use xlink:href="#w" overflow="visible"/></clipPath><path clip-path="url(#x)" fill="#FFF" d="M-81.6-45.8h29.9v-46h-29.9z"/></g><g><defs><path id="y" d="M-93.5-46.2L-73-86c.3-.7 1.2-.9 1.9-.6.7.3.9 1.2.6 1.9L-91-44.9c-.3.7-1.2.9-1.9.6-.7-.4-1-1.2-.6-1.9"/></defs><clipPath id="z"><use xlink:href="#y" overflow="visible"/></clipPath><path clip-path="url(#z)" fill="#FFF" d="M-98.7-39.2h33.3v-52.6h-33.3z"/></g><g><defs><path id="A" d="M-4.3-84.5l-19.8 39.8c-.2.5-.7.8-1.2.8s-1-.3-1.2-.8L-46-84.5c-.3-.7-.1-1.5.6-1.8.7-.3 1.5-.1 1.8.6l18.3 37.3 18.6-37.3c.3-.7 1.2-1 1.8-.6.7.3 1 1.1.6 1.8"/></defs><clipPath id="B"><use xlink:href="#A" overflow="visible"/></clipPath><path clip-path="url(#B)" fill="#FFF" d="M-51.2-38.9H.9v-52.6h-52.1z"/></g><g><defs><path id="C" d="M-29.8-52.5l17.1-33.2c.3-.7 1.2-.9 1.9-.6.7.3.9 1.2.6 1.9l-17.1 33.2c-.3.7-1.2.9-1.9.6-.7-.4-.9-1.2-.6-1.9"/></defs><clipPath id="D"><use xlink:href="#C" overflow="visible"/></clipPath><path clip-path="url(#D)" fill="#FFF" d="M-34.9-45.5h29.8v-46h-29.8z"/></g><g><defs><path id="E" d="M79-84.5L59.2-44.6c-.2.5-.7.8-1.2.8s-1-.3-1.2-.8L37.3-84.5c-.3-.7-.1-1.5.6-1.8.7-.3 1.5-.1 1.8.6L58-48.4l18.6-37.3c.3-.7 1.2-1 1.8-.6.7.3 1 1.1.6 1.8"/></defs><clipPath id="F"><use xlink:href="#E" overflow="visible"/></clipPath><path clip-path="url(#F)" fill="#FFF" d="M32.1-38.9h52.1v-52.6H32.1z"/></g><g><defs><path id="G" d="M53.5-52.5l17.1-33.2c.3-.7 1.2-.9 1.9-.6.7.3.9 1.2.6 1.9L56-51.2c-.3.7-1.2.9-1.9.6-.7-.4-.9-1.2-.6-1.9"/></defs><clipPath id="H"><use xlink:href="#G" overflow="visible"/></clipPath><path clip-path="url(#H)" fill="#FFF" d="M48.4-45.5h29.8v-46H48.4z"/></g><g><defs><path id="I" d="M-117.5-144l-13.4-26.4c-.4-.7-.1-1.6.6-2 .7-.4 1.6-.1 2 .6l13.4 26.4c.4.7.1 1.6-.6 2-.7.4-1.6.1-2-.6"/></defs><clipPath id="J"><use xlink:href="#I" overflow="visible"/></clipPath><path clip-path="url(#J)" fill="#FFF" d="M-136-138.2h26.3v-39.3H-136z"/></g><g><defs><path id="K" d="M42.4 171.8L22.8 133c-.4-.7-.1-1.6.6-2 .7-.4 1.6-.1 2 .7l19.7 38.8c.4.7.1 1.6-.6 2-.8.4-1.7.1-2.1-.7"/></defs><clipPath id="L"><use xlink:href="#K" overflow="visible"/></clipPath><path clip-path="url(#L)" fill="#FFF" d="M17.6 177.6h32.6v-51.8H17.6z"/></g><g><defs><path id="M" d="M-90.9-144l-13.4-26.4c-.4-.7-.1-1.6.6-2 .7-.4 1.6-.1 2 .6l13.4 26.4c.4.7.1 1.6-.6 2-.8.4-1.6.1-2-.6"/></defs><clipPath id="N"><use xlink:href="#M" overflow="visible"/></clipPath><path clip-path="url(#N)" fill="#FFF" d="M-109.4-138.2h26.3v-39.3h-26.3z"/></g><g><defs><path id="O" d="M69 171.8L49.3 133c-.4-.7-.1-1.6.6-2 .7-.4 1.6-.1 2 .7l19.7 38.8c.4.7.1 1.6-.6 2-.8.4-1.7.1-2-.7"/></defs><clipPath id="P"><use xlink:href="#O" overflow="visible"/></clipPath><path clip-path="url(#P)" fill="#FFF" d="M44.1 177.6h32.7v-51.8H44.1z"/></g><g><defs><path id="Q" d="M114.8-145.3l13.4-26.5c.4-.7 1.3-1 2-.7.7.4 1 1.3.7 2L117.4-144c-.4.7-1.3 1-2 .6-.7-.3-1-1.2-.6-1.9"/></defs><clipPath id="R"><use xlink:href="#Q" overflow="visible"/></clipPath><path clip-path="url(#R)" fill="#FFF" d="M109.6-138.2H136v-39.4h-26.4z"/></g><g><defs><path id="S" d="M-45.1 170.5l19.9-39.3c.4-.7 1.3-1 2-.7.7.4 1 1.3.7 2l-19.9 39.3c-.4.7-1.3 1-2 .7-.8-.4-1.1-1.3-.7-2"/></defs><clipPath id="T"><use xlink:href="#S" overflow="visible"/></clipPath><path clip-path="url(#T)" fill="#FFF" d="M-50.3 177.6h32.9v-52.2h-32.9z"/></g><g><defs><path id="U" d="M105.9-145.3l13.4-26.5c.4-.7 1.3-1 2-.7.7.4 1 1.3.7 2L108.6-144c-.4.7-1.3 1-2 .7-.8-.4-1-1.3-.7-2"/></defs><clipPath id="V"><use xlink:href="#U" overflow="visible"/></clipPath><path clip-path="url(#V)" fill="#FFF" d="M100.8-138.2h26.3v-39.4h-26.3z"/></g><g><defs><path id="W" d="M-54 170.5l20.1-39.6c.4-.7 1.3-1 2-.7.7.4 1 1.3.7 2l-20.1 39.6c-.4.7-1.3 1-2 .7-.7-.4-1-1.3-.7-2"/></defs><clipPath id="X"><use xlink:href="#W" overflow="visible"/></clipPath><path clip-path="url(#X)" fill="#FFF" d="M-59.1 177.6h33v-52.5h-33z"/></g></symbol><use xlink:href="#Y" width="272" height="355.3" x="-136" y="-177.6" transform="matrix(1 0 0 -1 250.61 250.358)" overflow="visible"/></svg>