<svg id="Calque_1" xmlns="http://www.w3.org/2000/svg" xmlns:xlink="http://www.w3.org/1999/xlink" viewBox="-161 215.2 288 362.8"><style>.st0{fill:none;stroke:#fffffc;stroke-width:3.4024;stroke-linecap:round;stroke-linejoin:round;stroke-miterlimit:10}.st1{fill:#fffffc}.st2{fill:none}.st3{enable-background:new}.st4,.st5{fill:#FFF}.st5{stroke:#FFF;stroke-width:.9237;stroke-miterlimit:10}.st6{stroke-width:2.802}.st6,.st7{fill:none;stroke:#FFF;stroke-linecap:round;stroke-linejoin:round;stroke-miterlimit:10}.st7{stroke-width:3}</style><image width="268" height="250" xlink:href="D1A1446EE9B721D9.png" transform="matrix(.996 0 0 .996 -149.007 278.498)" overflow="visible"/><path class="st0" d="M19 375.5l-24.5-49.3-24 49.3m18.4-11l-19.5-38.3-24.1 49.3m45.3-41.1l21.1 41.1m-42.3-49.3l25.4 49.3"/><path class="st1" d="M-16.8 287.1c35.4 0 64.2 28.8 64.2 64.2s-28.8 64.2-64.2 64.2S-81 386.7-81 351.3s28.8-64.2 64.2-64.2m0-3.4c-37.3 0-67.6 30.2-67.6 67.6s30.2 67.6 67.6 67.6 67.6-30.2 67.6-67.6c0-37.4-30.3-67.6-67.6-67.6z"/><path class="st2" d="M-130.9 495.3h254.4v24.6h-254.4v-24.6z"/><g class="st3"><path class="st4" d="M-127.4 507.7c0 .1 0 .1-.1.2-.1 0-.1.1-.2.1s-.1 0-.2-.1l-6.4-8.9v8.7c0 .1 0 .1-.1.2-.1 0-.1.1-.2.1s-.1 0-.2-.1c-.1 0-.1-.1-.1-.2v-9.4c0-.1 0-.1.1-.2 0-.1.1-.1.2-.1s.1 0 .2.1.2.3.5.6c.2.3.5.7.9 1.2s.7 1 1.1 1.5.8 1.1 1.2 1.7.8 1.1 1.2 1.7c.4.5.7 1 1 1.5.3.4.5.8.7 1.1s.4.3.4.3zm5.2-12.1v12.2c0 .1 0 .1-.1.2 0 0-.1.1-.2.1s-.1 0-.2-.1c0 0-.1-.1-.1-.2v-11.4l-5.5 7.6c0 .1.1.2.3.4.1.2.3.4.5.7.2.3.4.5.6.8.2.3.4.6.6.8.2.3.3.5.5.7.1.2.2.3.2.3 0 .1 0 .1-.1.2-.1 0-.1.1-.2.1s-.1 0-.2-.1l-8.7-12.1v-.2c0-.1 0-.1.1-.2 0 0 .1-.1.2-.1s.2 0 .2.1l5.8 8.1 5.8-8.1c0-.1.1-.1.2-.1s.1 0 .2.1c.1 0 .1.1.1.2zM-109.5 507.7c0 .1 0 .1-.1.2 0 0-.1.1-.2.1s-.2-.1-.2-.2l-4.6-11.6-.5 1.3c0 .1.1.3.3.6.1.3.3.8.5 1.2.2.5.4 1 .6 1.6.2.6.5 1.2.7 1.8.2.6.5 1.2.7 1.8.2.6.4 1.1.6 1.5s.3.8.4 1.1c.1.3.2.4.2.4 0 .1-.1.2-.2.2s-.2-.1-.2-.2l-3.8-9.6-3.7 9.6c0 .1-.1.2-.2.2s-.2-.1-.2-.2c0 0 .1-.2.2-.5s.3-.8.5-1.3.4-1.2.7-1.8c.3-.7.5-1.4.8-2.1s.6-1.5.8-2.2c.3-.7.5-1.4.8-2 .2-.6.4-1.1.6-1.5.2-.4.3-.7.3-.8 0-.1.1-.1.2-.1s.2 0 .2.1.1.4.3.8c.2.4.4.9.6 1.5.2.6.5 1.3.8 2 .3.7.6 1.4.9 2.2l.9 2.1c.3.7.5 1.3.7 1.9.2.5.4 1 .5 1.3.1.5.1.6.1.6zM-99.3 507.8c0 .1 0 .1-.1.2-.1 0-.1.1-.2.1s-.1 0-.2-.1l-4.3-5.9-2.3 2.3v3.4c0 .1 0 .1-.1.2-.1 0-.1.1-.2.1s-.1 0-.2-.1-.1-.1-.1-.2v-12c0-.1 0-.1.1-.2s.1-.1.2-.1.1 0 .2.1c.1 0 .1.1.1.2v5.8l6.1-6.1c.1-.1.1-.1.2-.1s.1 0 .2.1.1.1.1.2 0 .1-.1.2l-6.4 6.4v1.5l.3-.3c.2-.2.3-.3.4-.5l.5-.5c.2-.2.4-.3.5-.5l.4-.4.2-.2c.1 0 .2 0 .2.1.1.1.2.3.5.7s.5.7.9 1.2c.3.5.7.9 1.1 1.4.4.5.7 1 1 1.4.3.4.6.8.8 1.1.1.2.2.4.2.5zM-88.4 507.7c0 .1 0 .1-.1.2 0 .1-.1.1-.2.1h-7.8c-.1 0-.1 0-.2-.1s-.1-.1-.1-.2v-12.1c0-.1 0-.1.1-.2.1 0 .1-.1.2-.1h7.8c.1 0 .1 0 .2.1s.1.1.1.2 0 .1-.1.2-.1.1-.2.1h-7.5v4.9h5.9c.1 0 .1 0 .2.1s.1.1.1.2 0 .1-.1.2-.1.1-.2.1h-5.8v1.1h5.9c.2 0 .3.1.3.2s0 .1-.1.2-.1.1-.2.1h-5.9v4.7h7.5c.1 0 .1 0 .2.1s0-.1 0-.1zM-71.7 507.7c0 .1 0 .1-.1.2 0 0-.1.1-.2.1s-.2-.1-.2-.2l-4.6-11.6-.5 1.3c0 .1.1.3.3.6.1.3.3.8.5 1.2.2.5.4 1 .6 1.6.2.6.5 1.2.7 1.8.2.6.5 1.2.7 1.8.2.6.4 1.1.6 1.5s.3.8.4 1.1c.1.3.2.4.2.4 0 .1-.1.2-.2.2s-.2-.1-.2-.2l-3.8-9.6-3.7 9.6c0 .1-.1.2-.2.2s-.2-.1-.2-.2c0 0 .1-.2.2-.5s.3-.8.5-1.3.4-1.2.7-1.8c.3-.7.5-1.4.8-2.1s.6-1.5.8-2.2c.3-.7.5-1.4.8-2 .2-.6.4-1.1.6-1.5.2-.4.3-.7.3-.8 0-.1.1-.1.2-.1s.2 0 .2.1.1.4.3.8c.2.4.4.9.6 1.5.2.6.5 1.3.8 2 .3.7.6 1.4.9 2.2l.9 2.1c.3.7.5 1.3.7 1.9.2.5.4 1 .5 1.3 0 .5.1.6.1.6zM-55.5 504.6c0 .6-.1 1.1-.4 1.5-.2.4-.6.8-1 1.1-.4.3-.9.5-1.4.6-.5.1-1 .2-1.5.2-.9 0-1.7-.2-2.5-.5s-1.5-.8-2.1-1.4c-.1-.1-.1-.1-.1-.2s0-.1.1-.2.1-.1.2-.1.1 0 .2.1c.7.5 1.3 1 2 1.3.7.3 1.5.5 2.4.5.4 0 .9-.1 1.3-.2s.8-.3 1.2-.6c.4-.2.6-.6.9-.9.2-.4.3-.8.3-1.3 0-.4-.1-.7-.3-1-.2-.3-.4-.5-.7-.7-.3-.2-.7-.4-1.1-.5-.4-.1-.8-.3-1.2-.4l-1.2-.3c-.4-.1-.7-.1-1-.2-.3-.1-.7-.2-1-.4-.3-.2-.6-.4-.8-.6-.2-.2-.4-.5-.6-.8-.1-.3-.2-.7-.2-1.1 0-.5.1-1 .4-1.4s.6-.7 1-1c.4-.3.8-.5 1.3-.6s1-.2 1.4-.2c.3 0 .6 0 1 .1s.7.2 1.1.3c.4.1.7.3 1.1.4.3.2.6.4.8.6l.1.1v.1c0 .1 0 .1-.1.2s-.1.1-.2.1h-.1c-.1 0-.1-.1-.2-.1s-.1-.1-.2-.1-.1-.1-.1-.1c-.5-.3-1-.5-1.5-.7-.5-.2-1.1-.3-1.7-.3-.4 0-.8 0-1.2.2s-.8.3-1.2.5-.6.5-.9.8c-.2.3-.3.7-.3 1.2s.1.9.3 1.2c.2.3.5.6.9.8.4.2.8.4 1.3.5.5.1 1 .2 1.5.4.5.1 1 .2 1.5.4.5.1.9.3 1.3.6.4.2.7.5.9.9.2.1.3.6.3 1.2zM-40.8 501.7c0 .9-.2 1.7-.5 2.5s-.8 1.4-1.4 2c-.6.6-1.2 1-2 1.4s-1.6.5-2.5.5-1.7-.2-2.5-.5-1.4-.8-2-1.4c-.6-.6-1-1.2-1.4-2-.3-.8-.5-1.6-.5-2.5s.2-1.7.5-2.5.8-1.4 1.4-2c.6-.6 1.2-1 2-1.4.8-.3 1.6-.5 2.5-.5s1.7.2 2.5.5 1.4.8 2 1.4c.6.6 1 1.2 1.4 2s.5 1.6.5 2.5zm-.5 0c0-.8-.2-1.6-.5-2.3-.3-.7-.7-1.3-1.3-1.9-.5-.5-1.2-1-1.9-1.3s-1.5-.5-2.3-.5-1.6.2-2.3.5-1.3.7-1.9 1.3c-.5.5-1 1.2-1.3 1.9s-.5 1.5-.5 2.3.2 1.6.5 2.3c.3.7.7 1.3 1.3 1.9.5.5 1.2 1 1.9 1.3s1.5.5 2.3.5 1.6-.2 2.3-.5 1.3-.7 1.9-1.3 1-1.2 1.3-1.9c.4-.8.5-1.5.5-2.3zM-30.5 504.9c0 .4-.1.8-.2 1.2-.2.4-.4.7-.7 1s-.6.5-1 .7c-.4.2-.8.3-1.2.3h-1.2c-.4 0-.8-.1-1.2-.2-.4-.2-.7-.4-1-.7-.3-.3-.5-.6-.7-1-.2-.4-.2-.8-.2-1.2v-9.3c0-.1 0-.1.1-.2 0 0 .1-.1.2-.1s.1 0 .2.1c0 0 .1.1.1.2v9.3c0 .4.1.7.2 1 .1.3.3.6.6.8.2.2.5.4.8.6.3.1.7.2 1 .2h1.2c.4 0 .7-.1 1-.2.3-.1.6-.3.8-.6.2-.2.4-.5.6-.8.1-.3.2-.7.2-1v-9.3c0-.1 0-.1.1-.2 0 0 .1-.1.2-.1s.1 0 .2.1c0 0 .1.1.1.2v9.2zM-20.2 507.7c0 .1 0 .1-.1.2-.1 0-.1.1-.2.1s-.1 0-.2-.1L-27 499v8.7c0 .1 0 .1-.1.2s-.1.1-.2.1c-.2 0-.2-.1-.2-.3v-9.5c0-.1 0-.1.1-.2s.1-.1.2-.1.1 0 .2.1.2.3.5.6.5.7.9 1.2.7 1 1.1 1.5.8 1.1 1.2 1.7c.4.6.8 1.1 1.2 1.7.4.5.7 1 1 1.5s.5.8.7 1 .2.5.2.5zm2 0c0 .2-.1.3-.3.3-.1 0-.1 0-.2-.1l-8.7-12.1v-.1c0-.2.1-.3.2-.3s.1 0 .2.1l8.3 11.5v-11.4c0-.1 0-.1.1-.2 0 0 .1-.1.2-.1s.1 0 .2.1c0 0 .1.1.1.2l-.1 12.1zM-4.6 501.6c0 .9-.2 1.7-.5 2.5s-.8 1.4-1.4 2-1.2 1-2 1.3c-.8.3-1.6.5-2.4.5H-13c-.1 0-.1 0-.2-.1 0-.1-.1-.1-.1-.2v-11.9h-1.1v11.9c0 .2-.1.3-.3.3-.1 0-.1 0-.2-.1 0-.1-.1-.1-.1-.2v-12.1c0-.1 0-.1.1-.2 0-.1.1-.1.2-.1h3.7c.9 0 1.7.2 2.4.5.8.3 1.4.8 2 1.4.6.6 1 1.2 1.4 2s.6 1.7.6 2.5zm-.5 0c0-.8-.2-1.6-.5-2.3-.3-.7-.7-1.3-1.2-1.9-.5-.5-1.1-.9-1.8-1.2-.7-.3-1.5-.5-2.3-.5h-1.8v11.6h1.8c.8 0 1.6-.2 2.3-.5.7-.3 1.3-.7 1.8-1.2s.9-1.1 1.2-1.8c.4-.6.5-1.4.5-2.2zM13.1 507.7c0 .1 0 .1-.1.2 0 0-.1.1-.2.1s-.2-.1-.2-.2L8 496.2l-.5 1.3c0 .1.1.3.3.6.1.3.3.8.5 1.2.2.5.4 1 .6 1.6s.5 1.2.7 1.8c.2.6.5 1.2.7 1.8.2.6.4 1.1.6 1.5s.3.8.4 1.1c.1.3.2.4.2.4 0 .1-.1.2-.2.2s-.2-.1-.2-.2l-3.8-9.6-3.7 9.6c0 .1-.1.2-.2.2s-.2-.1-.2-.2c0 0 .1-.2.2-.5s.3-.8.5-1.3.4-1.2.7-1.8.5-1.4.8-2.1.6-1.5.8-2.2c.3-.7.5-1.4.8-2 .2-.6.4-1.1.6-1.5.2-.4.3-.7.3-.8 0-.1.1-.1.2-.1s.2 0 .2.1.1.4.3.8c.2.4.4.9.6 1.5.2.6.5 1.3.8 2s.6 1.4.9 2.2.6 1.4.9 2.1.5 1.3.7 1.9c.2.5.4 1 .5 1.3.1.5.1.6.1.6zM23 507.7c0 .1 0 .1-.1.2-.1 0-.1.1-.2.1s-.1 0-.2-.1l-6.3-8.9v8.7c0 .1 0 .1-.1.2l-.1.1c-.2 0-.2-.1-.2-.3v-9.5c0-.1 0-.1.1-.2s.1-.1.2-.1.1 0 .2.1.2.3.5.6c.2.3.5.7.9 1.2.3.5.7 1 1.1 1.5s.8 1.1 1.2 1.7c.4.6.8 1.1 1.2 1.7.4.5.7 1 1 1.5.3.4.5.8.7 1 0 .4.1.5.1.5zm1.9 0c0 .2-.1.3-.3.3-.1 0-.1 0-.2-.1l-8.7-12.1v-.1c0-.2.1-.3.2-.3s.1 0 .2.1l8.3 11.5v-11.4c0-.1 0-.1.1-.2 0 0 .1-.1.2-.1s.1 0 .2.1c0 0 .1.1.1.2l-.1 12.1zM38.6 501.6c0 .9-.2 1.7-.5 2.5s-.8 1.4-1.4 2c-.6.6-1.2 1-2 1.3-.8.3-1.6.5-2.5.5h-2.1c-.1 0-.1 0-.2-.1 0-.1-.1-.1-.1-.2v-11.9h-1.1v11.9c0 .2-.1.3-.3.3-.1 0-.1 0-.2-.1s-.1-.1-.1-.2v-12.1c0-.1 0-.1.1-.2 0-.1.1-.1.2-.1h3.7c.9 0 1.7.2 2.5.5s1.4.8 2 1.4c.6.6 1 1.2 1.4 2s.6 1.7.6 2.5zm-.5 0c0-.8-.2-1.6-.5-2.3-.3-.7-.7-1.3-1.2-1.9-.5-.5-1.1-.9-1.8-1.2-.7-.3-1.5-.5-2.3-.5h-1.8v11.6h1.8c.8 0 1.6-.2 2.3-.5.7-.3 1.3-.7 1.8-1.2s.9-1.1 1.2-1.8c.4-.6.5-1.4.5-2.2zM55 504.6c0 .6-.1 1.1-.4 1.5-.2.4-.6.8-1 1.1s-.9.5-1.4.6c-.5.1-1 .2-1.5.2-.9 0-1.7-.2-2.5-.5s-1.5-.8-2.1-1.4c-.1-.1-.1-.1-.1-.2s0-.1.1-.2.1-.1.2-.1.1 0 .2.1c.7.5 1.3 1 2 1.3.7.3 1.5.5 2.4.5.4 0 .9-.1 1.3-.2s.8-.3 1.2-.6c.4-.2.6-.6.9-.9.2-.4.3-.8.3-1.3 0-.4-.1-.7-.3-1-.2-.3-.4-.5-.7-.7-.3-.2-.7-.4-1.1-.5s-.8-.3-1.2-.4l-1.2-.3c-.4-.1-.7-.1-1-.2-.3-.1-.7-.2-1-.4-.3-.2-.6-.4-.8-.6-.2-.2-.4-.5-.6-.8s-.2-.7-.2-1.1c0-.5.1-1 .4-1.4.2-.4.6-.7 1-1 .4-.3.8-.5 1.3-.6s1-.2 1.4-.2c.3 0 .6 0 1 .1s.7.2 1.1.3c.4.1.7.3 1.1.4.3.2.6.4.8.6l.1.1v.1c0 .1 0 .1-.1.2s-.1.1-.2.1h-.1c-.1 0-.1-.1-.2-.1s-.1-.1-.2-.1-.1-.1-.1-.1c-.5-.3-1-.5-1.5-.7-.5-.2-1.1-.3-1.7-.3-.4 0-.8 0-1.2.2-.4.1-.8.3-1.2.5-.4.2-.6.5-.9.8s-.3.7-.3 1.2.1.9.3 1.2c.2.3.5.6.9.8.4.2.8.4 1.3.5.5.1 1 .2 1.5.4.5.1 1 .2 1.5.4.5.1.9.3 1.3.6.4.2.7.5.9.9.2.1.3.6.3 1.2zM66 507.7c0 .1 0 .1-.1.2s-.1.1-.2.1-.1 0-.2-.1c-.1 0-.1-.1-.1-.2v-5H58v5c0 .2-.1.3-.2.3s-.1 0-.2-.1c0-.1-.1-.1-.1-.2v-12.2c0-.1 0-.1.1-.2 0 0 .1-.1.2-.1s.1 0 .2.1c0 0 .1.1.1.2v5.2h7.4v-5.2c0-.1 0-.1.1-.2.1 0 .1-.1.2-.1s.1 0 .2.1c.1 0 .1.1.1.2v12.2zm-.5-5.4v-1.1h-7.4v1.1h7.4zM78.7 507.7c0 .1 0 .1-.1.2 0 0-.1.1-.2.1s-.2-.1-.2-.2l-4.6-11.6-.5 1.3c0 .1.1.3.3.6.1.3.3.8.5 1.2.2.5.4 1 .6 1.6s.5 1.2.7 1.8c.2.6.5 1.2.7 1.8.2.6.4 1.1.6 1.5s.3.8.4 1.1c.1.3.2.4.2.4 0 .1-.1.2-.2.2s-.2-.1-.2-.2l-3.8-9.6-3.7 9.6c0 .1-.1.2-.2.2s-.2-.1-.2-.2c0 0 .1-.2.2-.5s.3-.8.5-1.3.4-1.2.7-1.8.5-1.4.8-2.1.6-1.5.8-2.2c.3-.7.5-1.4.8-2 .2-.6.4-1.1.6-1.5.2-.4.3-.7.3-.8 0-.1.1-.1.2-.1s.2 0 .2.1.1.4.3.8c.2.4.4.9.6 1.5.2.6.5 1.3.8 2s.6 1.4.9 2.2.6 1.4.9 2.1.5 1.3.7 1.9c.2.5.4 1 .5 1.3.1.5.1.6.1.6zM88.8 498.2c0 .4-.1.7-.2 1.1-.1.3-.3.6-.5.9-.2.3-.5.5-.8.6-.3.2-.7.3-1 .3H83.1v1.1H86c.1 0 .2 0 .2.1s.1.3.3.6.3.6.5 1 .4.8.6 1.3c.2.4.4.9.6 1.2.2.4.3.7.4 1 .1.3.2.4.2.4 0 .1 0 .1-.1.2-.1 0-.1.1-.2.1s-.2 0-.2-.1l-2.4-5.2h-2.8v5.1c0 .1 0 .1-.1.2-.1 0-.1.1-.2.1s-.1 0-.2-.1c0 0-.1-.1-.1-.2v-11.8h-1V508c0 .1 0 .1-.1.2s-.1.1-.2.1-.1 0-.2-.1c0 0-.1-.1-.1-.2v-12.2c0-.2.1-.2.2-.2H86c.4 0 .8.1 1.1.2s.7.3.9.6c.3.3.5.6.6.9.2.1.2.5.2.9zm-.5 0c0-.3-.1-.6-.2-.9-.1-.3-.3-.5-.5-.7-.2-.2-.5-.4-.8-.5s-.6-.2-.9-.2h-2.8v4.7H86c.3 0 .6-.1.9-.2.3-.1.5-.3.8-.5s.4-.5.5-.8.1-.6.1-.9zM99.8 507.7c0 .1 0 .1-.1.2s-.1.1-.2.1h-7.8c-.1 0-.1 0-.2-.1s-.1-.1-.1-.2v-12.1c0-.1 0-.1.1-.2.1 0 .1-.1.2-.1h7.8c.1 0 .1 0 .2.1 0 0 .1.1.1.2s0 .1-.1.2c0 0-.1.1-.2.1H92v4.9h5.9c.1 0 .1 0 .2.1 0 0 .1.1.1.2s0 .1-.1.2c0 0-.1.1-.2.1h-5.8v1.1H98c.2 0 .3.1.3.2s0 .1-.1.2-.1.1-.2.1h-5.9v4.7h7.5c.1 0 .1 0 .2.1v-.1z"/></g><path class="st5" d="M13.3 465.3c0 1.9-.4 3.5-1.2 4.9-.8 1.4-1.9 2.5-3.2 3.4-1.3.9-2.8 1.6-4.4 2.1s-3.3.7-4.9.7c-2.9 0-5.7-.6-8.2-1.7-2.6-1.1-4.9-2.7-7-4.6-.2-.2-.3-.4-.3-.6s.1-.4.3-.6.4-.3.6-.3.3.1.5.3c2.1 1.8 4.3 3.2 6.6 4.3s4.8 1.6 7.7 1.6c1.4 0 2.9-.2 4.3-.6 1.4-.4 2.7-1 3.8-1.8s2.1-1.8 2.8-3c.7-1.2 1.1-2.6 1.1-4.2 0-1.3-.3-2.4-.9-3.4-.6-.9-1.4-1.7-2.4-2.4s-2.1-1.2-3.4-1.7l-3.9-1.2c-1.3-.3-2.6-.6-3.8-.8-1.2-.2-2.3-.5-3.3-.7-1.1-.3-2.2-.7-3.3-1.3-1-.5-2-1.2-2.7-2-.8-.8-1.4-1.7-1.9-2.7s-.7-2.2-.7-3.5c0-1.7.4-3.3 1.2-4.5.8-1.3 1.8-2.3 3.1-3.2 1.3-.8 2.7-1.5 4.3-1.9 1.6-.4 3.1-.6 4.6-.6 1 0 2 .1 3.3.3 1.2.2 2.4.5 3.6.9 1.2.4 2.4.8 3.4 1.4 1.1.5 2 1.2 2.7 1.8.1.1.2.2.2.3.1.1.1.2.1.4s-.1.4-.3.6c-.2.2-.4.3-.6.3-.1 0-.2-.1-.4-.2s-.4-.2-.6-.4c-.2-.2-.4-.3-.6-.4-.2-.1-.3-.2-.4-.3-1.5-.9-3.2-1.7-4.9-2.2-1.7-.5-3.5-.8-5.4-.8-1.3 0-2.6.2-4 .5s-2.6.8-3.8 1.5c-1.1.7-2.1 1.6-2.8 2.6-.7 1.1-1.1 2.4-1.1 3.9 0 1.6.4 3 1.1 4 .8 1 1.7 1.9 3 2.6 1.2.7 2.6 1.2 4.2 1.6l4.8 1.2c1.7.4 3.3.8 4.8 1.2 1.6.4 3 1.1 4.2 1.8 1.2.8 2.2 1.7 3 2.9.7 1.2 1.1 2.7 1.1 4.5zm85.3 0c0 1.9-.4 3.5-1.2 4.9-.8 1.4-1.9 2.5-3.2 3.4-1.3.9-2.8 1.6-4.4 2.1-1.6.5-3.3.7-4.9.7-2.9 0-5.7-.6-8.2-1.7-2.6-1.1-4.9-2.7-7-4.6-.2-.2-.3-.4-.3-.6s.1-.4.3-.6.4-.3.6-.3.3.1.5.3c2.1 1.8 4.3 3.2 6.6 4.3 2.3 1.1 4.8 1.6 7.7 1.6 1.4 0 2.9-.2 4.3-.6 1.4-.4 2.7-1 3.8-1.8s2.1-1.8 2.8-3 1.1-2.6 1.1-4.2c0-1.3-.3-2.4-.9-3.4-.6-.9-1.4-1.7-2.4-2.4s-2.1-1.2-3.4-1.7l-3.9-1.2c-1.3-.3-2.6-.6-3.8-.8-1.2-.2-2.3-.5-3.3-.7-1.1-.3-2.2-.7-3.3-1.3-1-.5-2-1.2-2.7-2-.8-.8-1.4-1.7-1.9-2.7s-.7-2.2-.7-3.5c0-1.7.4-3.3 1.2-4.5.8-1.3 1.8-2.3 3.1-3.2 1.3-.8 2.7-1.5 4.3-1.9 1.6-.4 3.1-.6 4.6-.6 1 0 2 .1 3.3.3 1.2.2 2.4.5 3.6.9 1.2.4 2.4.8 3.4 1.4 1.1.5 2 1.2 2.7 1.8.1.1.2.2.2.3.1.1.1.2.1.4s-.1.4-.3.6-.4.3-.6.3c-.1 0-.2-.1-.4-.2s-.4-.2-.6-.4c-.2-.2-.4-.3-.6-.4-.2-.1-.3-.2-.4-.3-1.5-.9-3.2-1.7-4.9-2.2s-3.5-.8-5.4-.8c-1.3 0-2.6.2-4 .5s-2.6.8-3.8 1.5c-1.1.7-2.1 1.6-2.8 2.6-.7 1.1-1.1 2.4-1.1 3.9 0 1.6.4 3 1.1 4s1.7 1.9 3 2.6c1.2.7 2.6 1.2 4.2 1.6l4.8 1.2c1.7.4 3.3.8 4.8 1.2 1.6.4 3 1.1 4.2 1.8 1.2.8 2.2 1.7 3 2.9.8 1.2 1.1 2.7 1.1 4.5z"/><path class="st6" d="M-71.1 476.5l-20.2-40.6-19.8 40.6m15.2-9.1l-16.1-31.5-19.8 40.6m37.3-33.9l17.3 33.9m-34.8-40.6l20.9 40.6m67.4-.4l-20.1-40.5-19.9 40.5m16.6-33.8l17.4 33.8m90.8 0l-20.2-40.5-19.8 40.5m16.5-33.8L55 476.1"/><path class="st7" d="M-136.2 536.8c-6.6 13.8-13.6 27.8-21.3 41.2M26.4 215.2l-20 39.6M-109.2 536.8c-6.6 13.8-13.6 27.8-21.3 41.2M53.4 215.2l-20 39.6M100 536.8c8.2 12.8 14.2 26.8 21.5 41M-62.6 215.2l20.2 40M91 536.8c8.2 12.8 14.2 26.8 21.5 41M-71.6 215.2l20.4 40.4"/></svg>