<?xml version="1.0" encoding="UTF-8" standalone="no"?>
<svg width="16px" height="16px" viewBox="0 0 16 16" version="1.1" xmlns="http://www.w3.org/2000/svg" xmlns:xlink="http://www.w3.org/1999/xlink">
    <!-- Generator: Sketch 3.8.3 (29802) - http://www.bohemiancoding.com/sketch -->
    <title>Imported Layers Copy 5</title>
    <desc>Created with Sketch.</desc>
    <defs></defs>
    <g id="Page-1" stroke="none" stroke-width="1" fill="none" fill-rule="evenodd">
        <g id="Website-Private-Profile" transform="translate(-1113.000000, -154.000000)" fill="#FFFFFF">
            <path d="M1126.16646,154.507663 C1125.57014,154.472544 1124.94018,154.682901 1124.37973,155.24385 L1127.74245,158.609523 C1129.4238,156.926687 1127.95317,154.612782 1126.16646,154.507663 L1126.16646,154.507663 Z M1123.25882,156.36575 L1115.80213,163.828996 C1115.54503,164.086317 1115.34284,164.393217 1115.20781,164.731093 L1113.5308,168.92728 C1113.39511,169.266845 1113.73177,169.603811 1114.07104,169.467993 L1118.26354,167.78951 C1118.60112,167.654365 1118.90775,167.45199 1119.16485,167.194668 L1126.62155,159.731423 L1123.25882,156.36575 L1123.25882,156.36575 Z M1116.18044,164.987637 L1118.01127,166.820077 C1118.10907,166.917967 1118.07782,167.083679 1117.95111,167.139167 L1115.2102,168.339299 C1115.13613,168.371726 1115.04977,168.35542 1114.99261,168.298204 L1114.74536,168.050737 C1114.68911,167.994444 1114.67235,167.909761 1114.70289,167.836251 L1115.86022,165.051146 C1115.91393,164.921911 1116.08154,164.888666 1116.18044,164.987637 L1116.18044,164.987637 Z" id="Imported-Layers-Copy-5"></path>
        </g>
    </g>
</svg>