<?xml version="1.0" encoding="UTF-8" standalone="no"?>
<svg width="163px" height="162px" viewBox="0 0 163 162" version="1.1" xmlns="http://www.w3.org/2000/svg" xmlns:xlink="http://www.w3.org/1999/xlink">
    <!-- Generator: Sketch 3.6.1 (26313) - http://www.bohemiancoding.com/sketch -->
    <title>Imported Layers</title>
    <desc>Created with Sketch.</desc>
    <defs></defs>
    <g id="Page-1" stroke="none" stroke-width="1" fill="none" fill-rule="evenodd">
        <g id="Mobile-Log-in-3" transform="translate(-239.000000, -263.000000)">
            <g id="For-a-better-collabo-+-Imported-Layers" transform="translate(38.000000, 263.000000)">
                <g id="Imported-Layers" transform="translate(201.687042, 0.000000)">
                    <path id="Stroke-1" stroke="#FFFFFC" stroke-width="39" stroke-linecap="round" stroke-linejoin="round"></path>
                    <path d="M80.7527919,4.06679082 C91.1071738,4.06679082 101.14967,6.09382535 110.601241,10.091585 C115.144389,12.0131958 119.526537,14.3918513 123.625891,17.1613359 C127.687498,19.9053769 131.506875,23.0567227 134.978078,26.5279894 C138.449282,29.999256 141.600674,33.8188068 144.344561,37.8803838 C147.114099,41.9799175 149.492711,46.362041 151.414183,50.905272 C155.411974,60.3571196 157.438971,70.3996945 157.438971,80.7542653 C157.438971,91.1088362 155.411974,101.151411 151.414183,110.603259 C149.492711,115.14649 147.114099,119.528613 144.344561,123.628147 C141.600674,127.689724 138.449282,131.509275 134.978078,134.980541 C131.506875,138.451808 127.687498,141.603154 123.625891,144.347195 C119.526537,147.116679 115.144389,149.495335 110.601241,151.416946 C101.14967,155.414705 91.1071738,157.44174 80.7527919,157.44174 C70.3985143,157.44174 60.3560183,155.414705 50.9044475,151.416946 C46.3612994,149.495335 41.9791515,147.116679 37.8796926,144.347195 C33.8181897,141.603154 29.9988129,138.451808 26.5276096,134.980541 C23.0564063,131.509275 19.9050137,127.689724 17.161127,123.628147 C14.3915887,119.528613 12.0129766,115.14649 10.0914009,110.603259 C6.09371417,101.151411 4.06671662,91.1088362 4.06671662,80.7542653 C4.06671662,70.3996945 6.09371417,60.3571196 10.0914009,50.905272 C12.0129766,46.362041 14.3915887,41.9799175 17.161127,37.8803838 C19.9050137,33.8188068 23.0564063,29.999256 26.5276096,26.5279894 C29.9988129,23.0567227 33.8181897,19.9053769 37.8796926,17.1613359 C41.9791515,14.3918513 46.3612994,12.0131958 50.9044475,10.091585 C60.3560183,6.09382535 70.3985143,4.06679082 80.7527919,4.06679082 M80.7527919,0 C36.1542578,0 0,36.1549174 0,80.7542653 C0,125.353613 36.1542578,161.508531 80.7527919,161.508531 C125.351326,161.508531 161.505688,125.353613 161.505688,80.7542653 C161.505688,36.1549174 125.351326,0 80.7527919,0" id="Fill-6" fill="#FFFFFC"></path>
                    <path d="M113.347742,56.8688859 C112.901544,56.5110921 112.250896,56.5774014 111.891728,57.024989 L82.641581,93.242288 C82.6125712,93.279587 82.5863243,93.3168859 82.5614588,93.3569478 C82.5531702,93.3707622 82.5448817,93.3859581 82.5352118,93.4025354 L74.6196861,103.279855 C74.3889893,103.563051 74.0712632,103.73435 73.7245272,103.761979 C73.3653585,103.781319 73.0393438,103.668041 72.7741116,103.429051 L50.082938,82.7985767 C49.6616055,82.4159169 49.0054319,82.4449272 48.6186348,82.8690303 C48.2346006,83.2917519 48.2649918,83.9479375 48.6890871,84.3319787 L71.3830235,104.965216 C72.0129502,105.531608 72.8003585,105.836907 73.6250651,105.836907 C73.710713,105.836907 73.796361,105.834144 73.8833903,105.827236 C74.8020333,105.756783 75.633647,105.316102 76.2318011,104.581175 L84.2481702,94.5781437 C84.2744172,94.5422262 84.3020456,94.4994014 84.3269111,94.4538138 L113.503843,58.3263086 C113.863011,57.8814839 113.792559,57.2294426 113.347742,56.8688859" id="Fill-141" stroke="#FFFFFF" stroke-width="2" fill="#FFFFFF"></path>
                </g>
            </g>
        </g>
    </g>
</svg>