<?xml version="1.0" encoding="UTF-8" standalone="no"?>
<svg width="305px" height="229px" viewBox="0 0 305 229" version="1.1" xmlns="http://www.w3.org/2000/svg" xmlns:xlink="http://www.w3.org/1999/xlink">
    <!-- Generator: Sketch 3.6.1 (26313) - http://www.bohemiancoding.com/sketch -->
    <title>Group 2</title>
    <desc>Created with Sketch.</desc>
    <defs></defs>
    <g id="Page-1" stroke="none" stroke-width="1" fill="none" fill-rule="evenodd">
        <g id="Website-Home-page-unlog-3" transform="translate(-803.000000, -362.000000)">
            <g id="Group-2" transform="translate(804.000000, 363.000000)">
                <path d="M105.218078,171.479701 C86.301384,165.594168 71.4810367,150.820122 65.5780824,131.956694 C65.3673544,131.282818 64.6580747,130.903602 63.966784,131.11627 C63.2934823,131.328938 62.9131439,132.046374 63.1238719,132.722813 C69.2812418,152.385669 84.7286334,167.790033 104.449692,173.926668 C104.578185,173.967665 104.709247,173.985601 104.83517,173.985601 C105.379979,173.985601 105.88881,173.63457 106.06099,173.086244 C106.271718,172.409805 105.89395,171.692369 105.218078,171.479701 M107.520667,164.141361 C91.0170658,159.006573 78.088131,146.118358 72.9381439,129.663463 C72.7274158,128.989586 72.0129965,128.61037 71.3268455,128.823039 C70.6509739,129.035707 70.2732054,129.753143 70.4839334,130.429582 C75.8883361,147.683904 89.4443152,161.199876 106.752281,166.588329 C106.878204,166.626763 107.009266,166.644698 107.135189,166.644698 C107.682568,166.644698 108.188829,166.29623 108.363579,165.747904 C108.574307,165.071465 108.196539,164.35403 107.520667,164.141361 M102.915489,178.818041 C81.588272,172.179201 64.8765123,155.519324 58.2180209,134.252488 C58.004723,133.578611 57.3005831,133.196833 56.6067225,133.412063 C55.9282811,133.624732 55.5530824,134.342167 55.7638105,135.018606 C62.6741475,157.084871 80.0155214,174.375065 102.149673,181.265008 C102.275596,181.306004 102.406658,181.32394 102.532581,181.32394 C103.07996,181.32394 103.586221,180.972909 103.760971,180.424584 C103.971699,179.750707 103.593931,179.030709 102.915489,178.818041 M142.018386,54.0611402 C141.334805,53.8484718 140.620385,54.2302499 140.407087,54.9015645 C140.196359,55.5780037 140.576698,56.2954391 141.249999,56.5055452 C160.169263,62.3936405 174.987041,77.1676863 180.889995,96.0285518 C181.064745,96.5768775 181.571006,96.9279084 182.118385,96.9279084 C182.244308,96.9279084 182.372801,96.9099725 182.501294,96.8689762 C183.177165,96.6588701 183.554934,95.9414347 183.344206,95.2649955 C177.189406,75.6021396 161.739444,60.1977755 142.018386,54.0611402 M139.720936,61.4020422 C139.032215,61.1842493 138.322936,61.5685897 138.109638,62.2424666 C137.89891,62.9189057 138.276678,63.6363412 138.95255,63.8464473 C155.453582,68.9837976 168.377377,81.8694507 173.529934,98.321783 C173.702114,98.8701087 174.210945,99.2211396 174.758324,99.2211396 C174.881677,99.2211396 175.012739,99.2032037 175.141232,99.1622074 C175.819674,98.9521013 176.194872,98.2346659 175.984144,97.5582267 C170.582311,80.3039041 157.023762,66.7879326 139.720936,61.4020422 M190.706837,92.9717644 C183.79393,70.9029374 166.455126,53.612743 144.320975,46.7228004 C143.632254,46.5050075 142.922974,46.8893479 142.709676,47.5632248 C142.498948,48.2396639 142.874147,48.9570994 143.552588,49.1672055 C164.884945,55.8086079 181.594135,72.468484 188.252627,93.7353207 C188.424807,94.2836463 188.931068,94.6346772 189.478447,94.6346772 C189.60437,94.6346772 189.735432,94.6167414 189.863925,94.575745 C190.539796,94.3656389 190.917565,93.6482035 190.706837,92.9717644 M123.235324,116.554893 C121.816764,116.554893 120.66547,115.406996 120.66547,113.992623 C120.66547,112.580813 121.816764,111.430354 123.235324,111.430354 C124.651313,111.430354 125.805178,112.580813 125.805178,113.992623 C125.805178,115.406996 124.651313,116.554893 123.235324,116.554893 M123.235324,108.868084 C120.395635,108.868084 118.095616,111.163878 118.095616,113.992623 C118.095616,116.823931 120.395635,119.117162 123.235324,119.117162 C126.072442,119.117162 128.375031,116.823931 128.375031,113.992623 C128.375031,111.163878 126.072442,108.868084 123.235324,108.868084 M123.235324,137.053048 C110.481139,137.053048 100.106639,126.709166 100.106639,113.992623 C100.106639,101.278642 110.481139,90.9321979 123.235324,90.9321979 C135.986939,90.9321979 146.364009,101.278642 146.364009,113.992623 C146.364009,126.709166 135.986939,137.053048 123.235324,137.053048 M123.235324,85.8076589 C107.623461,85.8076589 94.9669312,98.4268361 94.9669312,113.992623 C94.9669312,129.560972 107.623461,142.177587 123.235324,142.177587 C138.847186,142.177587 151.503716,129.560972 151.503716,113.992623 C151.503716,98.4268361 138.847186,85.8076589 123.235324,85.8076589 M123.235324,190.860707 C80.7248011,190.860707 46.1397077,156.380247 46.1397077,113.992623 C46.1397077,71.6075615 80.7248011,37.1245389 123.235324,37.1245389 C165.745846,37.1245389 200.33094,71.6075615 200.33094,113.992623 C200.33094,156.380247 165.745846,190.860707 123.235324,190.860707 M123.235324,32 C77.8182963,32 41,68.7096347 41,113.992623 C41,159.278174 77.8182963,195.985246 123.235324,195.985246 C168.652351,195.985246 205.470647,159.278174 205.470647,113.992623 C205.470647,68.7096347 168.652351,32 123.235324,32" id="Vinyl" fill="#FFFFFF"></path>
                <path d="M122.958333,137.145833 C109.920021,137.145833 99.3125,126.538313 99.3125,113.5 C99.3125,100.461688 109.920021,89.8541667 122.958333,89.8541667 C135.996646,89.8541667 146.604167,100.461688 146.604167,113.5 C146.604167,126.538313 135.996646,137.145833 122.958333,137.145833 L122.958333,137.145833 Z M122.958333,85.125 C107.285875,85.125 94.5833333,97.8275417 94.5833333,113.5 C94.5833333,129.172458 107.285875,141.875 122.958333,141.875 C138.630792,141.875 151.333333,129.172458 151.333333,113.5 C151.333333,97.8275417 138.630792,85.125 122.958333,85.125 L122.958333,85.125 Z M260.104167,70.4598542 L260.104167,47.2916667 C260.104167,44.690625 257.976042,42.5625 255.375,42.5625 C252.773958,42.5625 250.645833,44.690625 250.645833,47.2916667 L250.645833,70.4598542 C239.868062,68.2607917 231.729167,58.7126042 231.729167,47.2916667 C231.729167,34.2533542 242.336687,23.6458333 255.375,23.6458333 C268.413312,23.6458333 279.020833,34.2533542 279.020833,47.2916667 C279.020833,58.7126042 270.881937,68.2607917 260.104167,70.4598542 L260.104167,70.4598542 Z M255.375,18.9166667 C239.702542,18.9166667 227,31.6192083 227,47.2916667 C227,61.34675 237.229187,72.9852292 250.645833,75.2410417 L250.645833,154.104625 L242.573146,162.177312 C240.724042,160.328208 237.730479,160.328208 235.886104,162.177312 L215.82025,182.243167 C213.975875,184.087542 213.975875,187.081104 215.82025,188.930208 L222.507292,195.61725 C224.356396,197.461625 227.349958,197.461625 229.194333,195.61725 L249.260187,175.551396 C251.109292,173.707021 251.109292,170.713458 249.260187,168.864354 L258.72325,159.401292 C258.912417,159.212125 258.997542,158.970938 259.148875,158.762854 C259.356958,158.469646 259.598146,158.204813 259.735292,157.873771 C259.962292,157.329917 260.066333,156.757687 260.080521,156.176 C260.080521,156.138167 260.104167,156.105063 260.104167,156.0625 L260.104167,75.2410417 C273.520812,72.9852292 283.75,61.34675 283.75,47.2916667 C283.75,31.6192083 271.047458,18.9166667 255.375,18.9166667 L255.375,18.9166667 Z M28.375,37.8333333 C33.6007292,37.8333333 37.8333333,33.6007292 37.8333333,28.375 C37.8333333,23.1492708 33.6007292,18.9166667 28.375,18.9166667 C23.1492708,18.9166667 18.9166667,23.1492708 18.9166667,28.375 C18.9166667,33.6007292 23.1492708,37.8333333 28.375,37.8333333 L28.375,37.8333333 Z M52.0208333,198.625 L23.6458333,198.625 C21.0447917,198.625 18.9166667,200.753125 18.9166667,203.354167 C18.9166667,205.955208 21.0447917,208.083333 23.6458333,208.083333 L52.0208333,208.083333 C54.621875,208.083333 56.75,205.955208 56.75,203.354167 C56.75,200.753125 54.621875,198.625 52.0208333,198.625 L52.0208333,198.625 Z M122.958333,203.354167 C73.4108542,203.354167 33.1041667,163.047479 33.1041667,113.5 C33.1041667,63.9525208 73.4108542,23.6458333 122.958333,23.6458333 C172.505812,23.6458333 212.8125,63.9525208 212.8125,113.5 C212.8125,163.047479 172.505812,203.354167 122.958333,203.354167 L122.958333,203.354167 Z M122.958333,18.9166667 C70.7199583,18.9166667 28.375,61.261625 28.375,113.5 C28.375,165.738375 70.7199583,208.083333 122.958333,208.083333 C175.196708,208.083333 217.541667,165.738375 217.541667,113.5 C217.541667,61.261625 175.196708,18.9166667 122.958333,18.9166667 L122.958333,18.9166667 Z M293.208333,203.354167 C293.208333,211.176208 286.842875,217.541667 279.020833,217.541667 L23.6458333,217.541667 C15.8237917,217.541667 9.45833333,211.176208 9.45833333,203.354167 L9.45833333,23.6458333 C9.45833333,15.8237917 15.8237917,9.45833333 23.6458333,9.45833333 L279.020833,9.45833333 C286.842875,9.45833333 293.208333,15.8237917 293.208333,23.6458333 L293.208333,203.354167 Z M23.6458333,0 C10.640625,0 0,10.640625 0,23.6458333 L0,203.354167 C0,216.359375 10.640625,227 23.6458333,227 L279.020833,227 C292.026042,227 302.666667,216.359375 302.666667,203.354167 L302.666667,23.6458333 C302.666667,10.640625 292.026042,0 279.020833,0 L23.6458333,0 Z" id="Turntable" stroke="#FFFFFF" stroke-width="2"></path>
            </g>
        </g>
    </g>
</svg>