<?xml version="1.0" encoding="UTF-8" standalone="no"?>
<svg width="128px" height="160px" viewBox="0 0 128 160" version="1.1" xmlns="http://www.w3.org/2000/svg" xmlns:xlink="http://www.w3.org/1999/xlink">
    <!-- Generator: Sketch 3.6.1 (26313) - http://www.bohemiancoding.com/sketch -->
    <title>MASAS_icon_lock</title>
    <desc>Created with Sketch.</desc>
    <defs></defs>
    <g id="Page-1" stroke="none" stroke-width="1" fill="none" fill-rule="evenodd">
        <g id="Mobile-Upload-4-checked" transform="translate(-258.000000, -166.000000)">
            <g id="MASAS_icon_lock" transform="translate(258.000000, 166.000000)">
                <path d="M17.9446814,53.6687041 L18.0044853,53.6687041 C19.4397784,53.6687041 20.6112308,52.5253947 20.6428917,51.0865837 C21.1248406,29.4622048 39.7203289,5.27681281 63.8775779,5.27681281 C77.8540961,5.27681281 91.2290576,13.4136582 99.6402973,27.0419067 C100.403676,28.2801988 102.032452,28.667165 103.270744,27.9037861 C104.512554,27.1368893 104.896003,25.5081131 104.132624,24.269821 C94.7504507,9.07260015 79.7009806,0 63.8775779,0 C35.9597203,0 15.9078317,26.8624951 15.3660789,50.9704938 C15.3379359,52.4268942 16.4882811,53.6335254 17.9446814,53.6687041 L17.9446814,53.6687041 Z M109.736599,60.0501297 L17.6702871,60.071237 C7.59861044,61.3552614 0,69.9494305 0,80.0527681 L0,139.779253 C0,150.930918 9.0655644,160 20.2207467,160 L107.548481,160 C118.693109,160 127.762192,150.930918 127.762192,139.779253 L127.762192,80.0527681 C127.762192,69.9459127 120.156545,61.3517435 109.736599,60.0501297 L109.736599,60.0501297 Z M122.485379,139.779253 C122.485379,148.021635 115.783827,154.723187 107.548481,154.723187 L20.2207467,154.723187 C11.9748472,154.723187 5.27681281,148.021635 5.27681281,139.779253 L5.27681281,80.0527681 C5.27681281,72.5983906 10.8913416,66.2556616 18.0044853,65.3269425 L109.402401,65.3058353 C116.856779,66.2556616 122.485379,72.5948727 122.485379,80.0527681 L122.485379,139.779253 L122.485379,139.779253 Z M63.8775779,86.8739281 C56.1171452,86.8739281 49.8060771,93.1955499 49.8060771,100.966536 C49.8060771,106.169474 52.6098237,110.823623 57.081043,113.275582 L57.081043,127.537048 C57.081043,131.287103 60.127523,134.340618 63.8775779,134.340618 C67.6276329,134.340618 70.6846665,131.287103 70.6846665,127.537048 L70.6846665,113.275582 C75.1594037,110.820105 77.970186,106.165956 77.970186,100.966536 C77.970186,93.1955499 71.6485643,86.8739281 63.8775779,86.8739281 L63.8775779,86.8739281 Z M67.0858801,109.145596 C66.0762499,109.543116 65.4078537,110.517567 65.4078537,111.604591 L65.4078537,127.537048 C65.4078537,128.37782 64.7183501,129.063805 63.8775779,129.063805 C63.0403236,129.063805 62.3578559,128.37782 62.3578559,127.537048 L62.3578559,111.604591 C62.3578559,110.517567 61.6929774,109.543116 60.6833473,109.145596 C57.2815619,107.812321 55.0828899,104.604019 55.0828899,100.966536 C55.0828899,96.1048327 59.026428,92.150741 63.8775779,92.150741 C68.7357636,92.150741 72.6933732,96.1048327 72.6933732,100.966536 C72.6933732,104.600501 70.4911833,107.812321 67.0858801,109.145596 L67.0858801,109.145596 Z" id="Fill-97" fill="#FFFFFF"></path>
                <path d="M109.199163,54 C109.199163,25.8334778 88.5659274,3 63.1135415,3 C37.6611556,3 17.02792,25.8334778 17.02792,54" id="Fill-97" stroke="#FFFFFF" stroke-width="6" stroke-linecap="round"></path>
            </g>
        </g>
    </g>
</svg>