<svg xmlns="http://www.w3.org/2000/svg" viewBox="0 0 66.2 50"><path fill="#FFF" d="M31.5 47.3c-.8 0-1.7-.3-2.2-.9L.4 16.9C-.7 15.8-.8 14 .2 12.8L9.8.7c.6-.7 1.5-1.2 2.5-1.2h38.4c1 0 1.9.4 2.5 1.2l9.6 12.1c1 1.2.9 3-.2 4.1L33.7 46.4c-.6.6-1.4.9-2.2.9zM12.3.5c-.6 0-1.3.3-1.7.8L1 13.4c-.7.8-.6 2 .1 2.8L30 45.7c.8.8 2.3.8 3 0l28.8-29.5c.7-.8.8-1.9.1-2.8L52.4 1.3c-.4-.5-1-.8-1.7-.8H12.3zm19.2 38.9l-9.1-22.6h18.1l-9 22.6zm-7.6-21.6l7.6 18.9 7.6-18.9H23.9zM25 34.5L7.7 16.8h10.2L25 34.5zM10 17.8l12.1 12.4-5-12.4H10zm28 16.7l7.1-17.7h10.2L38 34.5zm7.8-16.7l-5 12.4 12.1-12.4h-7.1zm10.1-5.2H45.6l-6.3-7.9h10.3l6.3 7.9zm-9.8-1h7.8l-4.7-5.9h-7.8l4.7 5.9zm-5.9 1H22.7L29 4.7h4.9l6.3 7.9zm-15.4-1h13.4l-4.7-5.9h-4l-4.7 5.9zm-7.4 1H7l6.3-7.9h10.3l-6.2 7.9zm-8.3-1h7.8l4.7-5.9h-7.8l-4.7 5.9z"/></svg>