<svg xmlns="http://www.w3.org/2000/svg" viewBox="0 0 69.5 82.3"><path fill="#FFF" d="M10.5 81.6C4 81.6 0 74.7 0 69.9c0-4.6 3.4-11.6 8.5-11.7h1l-2.4-1.5c-2.5-2.1-2.2-4.8-.8-6.5 1.4-1.6 4-2.2 6.3-.3l8.7 5.2c.6.3.8 1.1.4 1.6-.3.6-1.1.8-1.6.4l-8.8-5.3c-1.4-1.2-2.5-.8-3.1-.1-.7.8-.8 2 .4 3l9.5 5.9-4.4-.1s-2.9-.1-5.2 0c-3.2.1-6.2 5.3-6.2 9.3 0 3.8 3.1 9.3 8.1 9.3H60c1.6 0 3.1-.7 4.3-2.1 1.9-2.1 2.8-5.1 2.6-6.4-.5-4.8-1.5-9.9-7.3-9.9-6.3 0-34.2-.1-34.2-.1v-2.4s27.9.1 34.2.1c8.4 0 9.3 8.4 9.7 12 .2 2.1-.8 5.2-3.2 7.9-1.7 1.9-3.8 2.4-6.1 2.4h-.1c-2.8 0-29.9.5-42.8.5l-6.6.5z"/><path fill="#FFF" d="M30.9 66.8c-5.6 0-11.7-.3-14.5-.7-.5-.1-.8-.5-.8-1 .1-.5.5-.8 1-.8 7 1 27.4.9 29-.7.1-.3 0-.7-.2-1.1-.7-1-2.8-2.1-6.5-2.1-.5 0-.9-.4-.9-.9s.4-.9.9-.9c3.7 0 6.7 1.1 8 2.9.6.9.8 1.9.4 2.8-.3.7-.9 2.3-13.8 2.5h-2.6z"/><path fill="#FFF" d="M16.5 70.9c-.5 0-.9-.4-.9-.9s.4-.9.9-.9c35.6 0 39.8-2.8 39.8-5 0-.5-.3-1.1-.8-1.6-.7-.7-2.6-2.2-7-2.2-.5 0-.9-.4-.9-.9s.4-.9.9-.9c4.9 0 7.3 1.7 8.3 2.7.9.9 1.3 1.9 1.3 2.9 0 2.9-.1 6.8-41.6 6.8z"/><path fill="#FFF" d="M40.5 74.8h-2.4c-.5 0-.9-.6-.9-1.1 0-.5.5-1.1.9-1.1 10.1 0 25.3-2.6 27.5-8.4.2-.5.7-.6 1.2-.4.5.2.7.7.5 1.2-1.2 3.3-5.5 5.8-10.8 7.3 5.4-.5 9.7-1.2 11.3-2.1.4-.3 1-.1 1.2.3.3.4.1 1-.3 1.2-3.8 2.3-18.4 3.1-28.2 3.1zM34.7 80.8c-.2 0-.4-.1-.5-.2-3-2.2-9.9-4.6-17.7-4.6-.5 0-.9-.4-.9-.9s.4-.9.9-.9c8.3 0 15.4 2.5 18.8 5 .4.3.5.9.2 1.3-.2.2-.5.3-.8.3zM42.2 53.9l1.1-2.2c.1-.2 2.7-5.2.1-10.7l-6 5.2-.7-1.3c-.1-.1-1.8-3.2-3.8-10-2.2 2.4-6.4 7.9-5.7 15.9l.2 1.8-1.7-.5c-.1 0-11.6-3.8-9.9-15.1.7-4.8 4-8.5 7.5-12.4 4.9-5.6 10-11.3 8.4-21L31.1 0l2.6 2.5c.4.4 8.3 8.1 10.3 19.7 2.2-3 4.2-6 4.3-6.7l.5-2.8 1.7 2.2c1.7 2.4 7.6 13.7 4.8 25.4C52.4 52 45 53.4 44.6 53.5l-2.4.4zm1.9-16.6l.7 1.2c2.7 4.5 2.3 8.9 1.6 11.6 2-1.3 4.9-4.1 6.4-10.4 2.1-8.8-1.2-17.6-3.3-21.6-1.5 2.6-4.1 6.1-5.5 7.9l-1.9 2.5-.2-3.2c-.6-8.2-4.8-14.9-7.5-18.4.1 8.6-4.9 14.2-9.3 19.2-3.2 3.6-6.3 7.1-6.9 11.2-1.1 7 3.9 10.4 6.6 11.8-.1-10.9 7.7-17.1 8-17.3l1.4-1.1.5 1.7c1.4 5.1 2.7 8.3 3.5 10l5.9-5.1z"/></svg>