<svg xmlns="http://www.w3.org/2000/svg" viewBox="0 0 83.5 79.5"><path fill="#FFF" d="M3.9 80.1L10 63.6l6.8 1.9 40-40 1.7 1.7-40 40 1.7 6.7-16.3 6.2zm7.6-13.6L8 75.9l9.3-3.6-1.2-4.6-4.6-1.2z"/><path fill="#FFF" d="M79.5 80.1l-16.3-6.2 1.7-6.7-40-40 1.7-1.7 40 40 6.8-1.9 6.1 16.5zm-13.4-7.7l9.3 3.6-3.4-9.5-4.7 1.3-1.2 4.6zM21.8 22.5l-11.1-1.2c-.7-.1-1.1-.7-1.1-1.3s.7-1.1 1.3-1.1l8.1.9-.8-8.3c-.1-.7.4-1.2 1.1-1.3.7-.1 1.2.4 1.3 1.1l1.2 11.2z"/><path fill="#FFF" d="M28.7 29.1l-12.3-1L0 11.8l12.5 1.4L11.3.6l16.2 16.2 1.2 12.3zm-10.8-4.5l6.7.6-.6-6.7-8.2-8.2.7 7-6.7-.7 8.1 8z"/><g><path fill="#FFF" d="M61.6 22.5l1.1-11.2c.1-.7.6-1.1 1.3-1.1.7.1 1.1.6 1.1 1.3l-.8 8.3 8.1-.9c.7-.1 1.3.4 1.3 1.1.1.7-.4 1.3-1.1 1.3l-11 1.2z"/><path fill="#FFF" d="M54.8 29.1l1.1-12.3L72.1.6 71 13.2l12.5-1.4-16.4 16.3-12.3 1zm4.6-10.6l-.6 6.7 6.7-.6 8.1-8.1-6.6.7.7-7-8.3 8.3z"/></g></svg>