<?xml version="1.0" encoding="UTF-8" standalone="no"?>
<svg width="248px" height="248px" viewBox="0 0 248 248" version="1.1" xmlns="http://www.w3.org/2000/svg" xmlns:xlink="http://www.w3.org/1999/xlink">
    <!-- Generator: Sketch 3.6.1 (26313) - http://www.bohemiancoding.com/sketch -->
    <title>Mixer@2x</title>
    <desc>Created with Sketch.</desc>
    <defs></defs>
    <g id="Page-1" stroke="none" stroke-width="1" fill="none" fill-rule="evenodd">
        <g id="Website-Home-page-unlog-2" transform="translate(-385.000000, -306.000000)" stroke="#FFFFFF" stroke-width="2">
            <path d="M624.3125,533.78125 C624.3125,540.138812 619.138812,545.3125 612.78125,545.3125 L405.21875,545.3125 C398.861187,545.3125 393.6875,540.138812 393.6875,533.78125 L393.6875,326.21875 C393.6875,319.861187 398.861187,314.6875 405.21875,314.6875 L612.78125,314.6875 C619.138812,314.6875 624.3125,319.861187 624.3125,326.21875 L624.3125,533.78125 Z M612.78125,307 L405.21875,307 C394.606156,307 386,315.606156 386,326.21875 L386,533.78125 C386,544.393844 394.606156,553 405.21875,553 L612.78125,553 C623.393844,553 632,544.393844 632,533.78125 L632,326.21875 C632,315.606156 623.393844,307 612.78125,307 L612.78125,307 Z M528.21875,360.8125 L558.96875,360.8125 C561.082813,360.8125 562.8125,359.082812 562.8125,356.96875 C562.8125,354.854687 561.082813,353.125 558.96875,353.125 L528.21875,353.125 C526.104687,353.125 524.375,354.854687 524.375,356.96875 C524.375,359.082812 526.104687,360.8125 528.21875,360.8125 L528.21875,360.8125 Z M582.03125,353.125 L574.34375,353.125 C572.229687,353.125 570.5,354.854687 570.5,356.96875 C570.5,359.082812 572.229687,360.8125 574.34375,360.8125 L582.03125,360.8125 C584.145312,360.8125 585.875,359.082812 585.875,356.96875 C585.875,354.854687 584.145312,353.125 582.03125,353.125 L582.03125,353.125 Z M597.40625,360.8125 L605.09375,360.8125 C607.207813,360.8125 608.9375,359.082812 608.9375,356.96875 C608.9375,354.854687 607.207813,353.125 605.09375,353.125 L597.40625,353.125 C595.292187,353.125 593.5625,354.854687 593.5625,356.96875 C593.5625,359.082812 595.292187,360.8125 597.40625,360.8125 L597.40625,360.8125 Z M447.5,356.96875 C447.5,354.854687 445.770312,353.125 443.65625,353.125 L435.96875,353.125 C433.854687,353.125 432.125,354.854687 432.125,356.96875 C432.125,359.082812 433.854687,360.8125 435.96875,360.8125 L443.65625,360.8125 C445.770312,360.8125 447.5,359.082812 447.5,356.96875 L447.5,356.96875 Z M420.59375,353.125 L412.90625,353.125 C410.792188,353.125 409.0625,354.854687 409.0625,356.96875 C409.0625,359.082812 410.792188,360.8125 412.90625,360.8125 L420.59375,360.8125 C422.707812,360.8125 424.4375,359.082812 424.4375,356.96875 C424.4375,354.854687 422.707812,353.125 420.59375,353.125 L420.59375,353.125 Z M412.90625,345.4375 L443.65625,345.4375 C445.770312,345.4375 447.5,343.707812 447.5,341.59375 L447.5,333.90625 C447.5,331.792188 445.770312,330.0625 443.65625,330.0625 L412.90625,330.0625 C410.792187,330.0625 409.0625,331.792188 409.0625,333.90625 L409.0625,341.59375 C409.0625,343.707812 410.792187,345.4375 412.90625,345.4375 L412.90625,345.4375 Z M608.9375,383.875 C608.9375,385.992906 607.211656,387.71875 605.09375,387.71875 C602.975844,387.71875 601.25,385.992906 601.25,383.875 C601.25,381.757094 602.975844,380.03125 605.09375,380.03125 C607.211656,380.03125 608.9375,381.757094 608.9375,383.875 L608.9375,383.875 Z M597.40625,383.875 C597.40625,388.122344 600.846406,391.5625 605.09375,391.5625 C609.341094,391.5625 612.78125,388.122344 612.78125,383.875 C612.78125,379.627656 609.341094,376.1875 605.09375,376.1875 C600.846406,376.1875 597.40625,379.627656 597.40625,383.875 L597.40625,383.875 Z M566.65625,387.71875 C564.538344,387.71875 562.8125,385.992906 562.8125,383.875 C562.8125,381.757094 564.538344,380.03125 566.65625,380.03125 C568.774156,380.03125 570.5,381.757094 570.5,383.875 C570.5,385.992906 568.774156,387.71875 566.65625,387.71875 L566.65625,387.71875 Z M566.65625,376.1875 C562.408906,376.1875 558.96875,379.627656 558.96875,383.875 C558.96875,388.122344 562.408906,391.5625 566.65625,391.5625 C570.903594,391.5625 574.34375,388.122344 574.34375,383.875 C574.34375,379.627656 570.903594,376.1875 566.65625,376.1875 L566.65625,376.1875 Z M528.21875,380.03125 C530.336656,380.03125 532.0625,381.757094 532.0625,383.875 C532.0625,385.992906 530.336656,387.71875 528.21875,387.71875 C526.100844,387.71875 524.375,385.992906 524.375,383.875 C524.375,381.757094 526.100844,380.03125 528.21875,380.03125 L528.21875,380.03125 Z M528.21875,391.5625 C532.466094,391.5625 535.90625,388.122344 535.90625,383.875 C535.90625,379.627656 532.466094,376.1875 528.21875,376.1875 C523.971406,376.1875 520.53125,379.627656 520.53125,383.875 C520.53125,388.122344 523.971406,391.5625 528.21875,391.5625 L528.21875,391.5625 Z M489.78125,380.03125 C491.899156,380.03125 493.625,381.757094 493.625,383.875 C493.625,385.992906 491.899156,387.71875 489.78125,387.71875 C487.663344,387.71875 485.9375,385.992906 485.9375,383.875 C485.9375,381.757094 487.663344,380.03125 489.78125,380.03125 L489.78125,380.03125 Z M489.78125,391.5625 C494.028594,391.5625 497.46875,388.122344 497.46875,383.875 C497.46875,379.627656 494.028594,376.1875 489.78125,376.1875 C485.533906,376.1875 482.09375,379.627656 482.09375,383.875 C482.09375,388.122344 485.533906,391.5625 489.78125,391.5625 L489.78125,391.5625 Z M451.34375,380.03125 C453.461656,380.03125 455.1875,381.757094 455.1875,383.875 C455.1875,385.992906 453.461656,387.71875 451.34375,387.71875 C449.225844,387.71875 447.5,385.992906 447.5,383.875 C447.5,381.757094 449.225844,380.03125 451.34375,380.03125 L451.34375,380.03125 Z M443.65625,383.875 C443.65625,388.122344 447.096406,391.5625 451.34375,391.5625 C455.591094,391.5625 459.03125,388.122344 459.03125,383.875 C459.03125,379.627656 455.591094,376.1875 451.34375,376.1875 C447.096406,376.1875 443.65625,379.627656 443.65625,383.875 L443.65625,383.875 Z M412.90625,380.03125 C415.024156,380.03125 416.75,381.757094 416.75,383.875 C416.75,385.992906 415.024156,387.71875 412.90625,387.71875 C410.788344,387.71875 409.0625,385.992906 409.0625,383.875 C409.0625,381.757094 410.788344,380.03125 412.90625,380.03125 L412.90625,380.03125 Z M412.90625,391.5625 C417.153594,391.5625 420.59375,388.122344 420.59375,383.875 C420.59375,379.627656 417.153594,376.1875 412.90625,376.1875 C408.658906,376.1875 405.21875,379.627656 405.21875,383.875 C405.21875,388.122344 408.658906,391.5625 412.90625,391.5625 L412.90625,391.5625 Z M605.09375,410.78125 C602.975844,410.78125 601.25,409.055406 601.25,406.9375 C601.25,404.819594 602.975844,403.09375 605.09375,403.09375 C607.211656,403.09375 608.9375,404.819594 608.9375,406.9375 C608.9375,409.055406 607.211656,410.78125 605.09375,410.78125 L605.09375,410.78125 Z M605.09375,399.25 C600.846406,399.25 597.40625,402.690156 597.40625,406.9375 C597.40625,411.184844 600.846406,414.625 605.09375,414.625 C609.341094,414.625 612.78125,411.184844 612.78125,406.9375 C612.78125,402.690156 609.341094,399.25 605.09375,399.25 L605.09375,399.25 Z M566.65625,410.78125 C564.538344,410.78125 562.8125,409.055406 562.8125,406.9375 C562.8125,404.819594 564.538344,403.09375 566.65625,403.09375 C568.774156,403.09375 570.5,404.819594 570.5,406.9375 C570.5,409.055406 568.774156,410.78125 566.65625,410.78125 L566.65625,410.78125 Z M566.65625,399.25 C562.408906,399.25 558.96875,402.690156 558.96875,406.9375 C558.96875,411.184844 562.408906,414.625 566.65625,414.625 C570.903594,414.625 574.34375,411.184844 574.34375,406.9375 C574.34375,402.690156 570.903594,399.25 566.65625,399.25 L566.65625,399.25 Z M528.21875,403.09375 C530.336656,403.09375 532.0625,404.819594 532.0625,406.9375 C532.0625,409.055406 530.336656,410.78125 528.21875,410.78125 C526.100844,410.78125 524.375,409.055406 524.375,406.9375 C524.375,404.819594 526.100844,403.09375 528.21875,403.09375 L528.21875,403.09375 Z M528.21875,414.625 C532.466094,414.625 535.90625,411.184844 535.90625,406.9375 C535.90625,402.690156 532.466094,399.25 528.21875,399.25 C523.971406,399.25 520.53125,402.690156 520.53125,406.9375 C520.53125,411.184844 523.971406,414.625 528.21875,414.625 L528.21875,414.625 Z M489.78125,403.09375 C491.899156,403.09375 493.625,404.819594 493.625,406.9375 C493.625,409.055406 491.899156,410.78125 489.78125,410.78125 C487.663344,410.78125 485.9375,409.055406 485.9375,406.9375 C485.9375,404.819594 487.663344,403.09375 489.78125,403.09375 L489.78125,403.09375 Z M489.78125,414.625 C494.028594,414.625 497.46875,411.184844 497.46875,406.9375 C497.46875,402.690156 494.028594,399.25 489.78125,399.25 C485.533906,399.25 482.09375,402.690156 482.09375,406.9375 C482.09375,411.184844 485.533906,414.625 489.78125,414.625 L489.78125,414.625 Z M451.34375,410.78125 C449.225844,410.78125 447.5,409.055406 447.5,406.9375 C447.5,404.819594 449.225844,403.09375 451.34375,403.09375 C453.461656,403.09375 455.1875,404.819594 455.1875,406.9375 C455.1875,409.055406 453.461656,410.78125 451.34375,410.78125 L451.34375,410.78125 Z M451.34375,399.25 C447.096406,399.25 443.65625,402.690156 443.65625,406.9375 C443.65625,411.184844 447.096406,414.625 451.34375,414.625 C455.591094,414.625 459.03125,411.184844 459.03125,406.9375 C459.03125,402.690156 455.591094,399.25 451.34375,399.25 L451.34375,399.25 Z M412.90625,403.09375 C415.024156,403.09375 416.75,404.819594 416.75,406.9375 C416.75,409.055406 415.024156,410.78125 412.90625,410.78125 C410.788344,410.78125 409.0625,409.055406 409.0625,406.9375 C409.0625,404.819594 410.788344,403.09375 412.90625,403.09375 L412.90625,403.09375 Z M412.90625,414.625 C417.153594,414.625 420.59375,411.184844 420.59375,406.9375 C420.59375,402.690156 417.153594,399.25 412.90625,399.25 C408.658906,399.25 405.21875,402.690156 405.21875,406.9375 C405.21875,411.184844 408.658906,414.625 412.90625,414.625 L412.90625,414.625 Z M578.1875,330.0625 C573.940156,330.0625 570.5,333.502656 570.5,337.75 C570.5,341.997344 573.940156,345.4375 578.1875,345.4375 C582.434844,345.4375 585.875,341.997344 585.875,337.75 C585.875,333.502656 582.434844,330.0625 578.1875,330.0625 L578.1875,330.0625 Z M601.25,345.4375 C605.497344,345.4375 608.9375,341.997344 608.9375,337.75 C608.9375,333.502656 605.497344,330.0625 601.25,330.0625 C597.002656,330.0625 593.5625,333.502656 593.5625,337.75 C593.5625,341.997344 597.002656,345.4375 601.25,345.4375 L601.25,345.4375 Z M412.90625,460.75 C417.153594,460.75 420.59375,457.309844 420.59375,453.0625 C420.59375,448.815156 417.153594,445.375 412.90625,445.375 C408.658906,445.375 405.21875,448.815156 405.21875,453.0625 C405.21875,457.309844 408.658906,460.75 412.90625,460.75 L412.90625,460.75 Z M412.90625,437.6875 C417.153594,437.6875 420.59375,434.247344 420.59375,430 C420.59375,425.752656 417.153594,422.3125 412.90625,422.3125 C408.658906,422.3125 405.21875,425.752656 405.21875,430 C405.21875,434.247344 408.658906,437.6875 412.90625,437.6875 L412.90625,437.6875 Z M451.34375,445.375 C447.096406,445.375 443.65625,448.815156 443.65625,453.0625 C443.65625,457.309844 447.096406,460.75 451.34375,460.75 C455.591094,460.75 459.03125,457.309844 459.03125,453.0625 C459.03125,448.815156 455.591094,445.375 451.34375,445.375 L451.34375,445.375 Z M451.34375,422.3125 C447.096406,422.3125 443.65625,425.752656 443.65625,430 C443.65625,434.247344 447.096406,437.6875 451.34375,437.6875 C455.591094,437.6875 459.03125,434.247344 459.03125,430 C459.03125,425.752656 455.591094,422.3125 451.34375,422.3125 L451.34375,422.3125 Z M489.78125,460.75 C494.028594,460.75 497.46875,457.309844 497.46875,453.0625 C497.46875,448.815156 494.028594,445.375 489.78125,445.375 C485.533906,445.375 482.09375,448.815156 482.09375,453.0625 C482.09375,457.309844 485.533906,460.75 489.78125,460.75 L489.78125,460.75 Z M489.78125,437.6875 C494.028594,437.6875 497.46875,434.247344 497.46875,430 C497.46875,425.752656 494.028594,422.3125 489.78125,422.3125 C485.533906,422.3125 482.09375,425.752656 482.09375,430 C482.09375,434.247344 485.533906,437.6875 489.78125,437.6875 L489.78125,437.6875 Z M528.21875,460.75 C532.466094,460.75 535.90625,457.309844 535.90625,453.0625 C535.90625,448.815156 532.466094,445.375 528.21875,445.375 C523.971406,445.375 520.53125,448.815156 520.53125,453.0625 C520.53125,457.309844 523.971406,460.75 528.21875,460.75 L528.21875,460.75 Z M528.21875,437.6875 C532.466094,437.6875 535.90625,434.247344 535.90625,430 C535.90625,425.752656 532.466094,422.3125 528.21875,422.3125 C523.971406,422.3125 520.53125,425.752656 520.53125,430 C520.53125,434.247344 523.971406,437.6875 528.21875,437.6875 L528.21875,437.6875 Z M566.65625,445.375 C562.408906,445.375 558.96875,448.815156 558.96875,453.0625 C558.96875,457.309844 562.408906,460.75 566.65625,460.75 C570.903594,460.75 574.34375,457.309844 574.34375,453.0625 C574.34375,448.815156 570.903594,445.375 566.65625,445.375 L566.65625,445.375 Z M566.65625,422.3125 C562.408906,422.3125 558.96875,425.752656 558.96875,430 C558.96875,434.247344 562.408906,437.6875 566.65625,437.6875 C570.903594,437.6875 574.34375,434.247344 574.34375,430 C574.34375,425.752656 570.903594,422.3125 566.65625,422.3125 L566.65625,422.3125 Z M605.09375,445.375 C600.846406,445.375 597.40625,448.815156 597.40625,453.0625 C597.40625,457.309844 600.846406,460.75 605.09375,460.75 C609.341094,460.75 612.78125,457.309844 612.78125,453.0625 C612.78125,448.815156 609.341094,445.375 605.09375,445.375 L605.09375,445.375 Z M605.09375,422.3125 C600.846406,422.3125 597.40625,425.752656 597.40625,430 C597.40625,434.247344 600.846406,437.6875 605.09375,437.6875 C609.341094,437.6875 612.78125,434.247344 612.78125,430 C612.78125,425.752656 609.341094,422.3125 605.09375,422.3125 L605.09375,422.3125 Z M528.21875,341.59375 C530.3405,341.59375 532.0625,339.87175 532.0625,337.75 C532.0625,335.62825 530.3405,333.90625 528.21875,333.90625 C526.097,333.90625 524.375,335.62825 524.375,337.75 C524.375,339.87175 526.097,341.59375 528.21875,341.59375 L528.21875,341.59375 Z M543.59375,341.59375 C545.7155,341.59375 547.4375,339.87175 547.4375,337.75 C547.4375,335.62825 545.7155,333.90625 543.59375,333.90625 C541.472,333.90625 539.75,335.62825 539.75,337.75 C539.75,339.87175 541.472,341.59375 543.59375,341.59375 L543.59375,341.59375 Z M558.96875,341.59375 C561.0905,341.59375 562.8125,339.87175 562.8125,337.75 C562.8125,335.62825 561.0905,333.90625 558.96875,333.90625 C556.847,333.90625 555.125,335.62825 555.125,337.75 C555.125,339.87175 556.847,341.59375 558.96875,341.59375 L558.96875,341.59375 Z M612.78125,499.1875 L608.9375,499.1875 L608.9375,479.96875 C608.9375,477.847 607.2155,476.125 605.09375,476.125 C602.972,476.125 601.25,477.847 601.25,479.96875 L601.25,499.1875 L597.40625,499.1875 C595.292187,499.1875 593.5625,500.917188 593.5625,503.03125 C593.5625,505.145312 595.292187,506.875 597.40625,506.875 L601.25,506.875 L601.25,526.09375 C601.25,528.2155 602.972,529.9375 605.09375,529.9375 C607.2155,529.9375 608.9375,528.2155 608.9375,526.09375 L608.9375,506.875 L612.78125,506.875 C614.895313,506.875 616.625,505.145312 616.625,503.03125 C616.625,500.917188 614.895313,499.1875 612.78125,499.1875 L612.78125,499.1875 Z M574.34375,491.5 L570.5,491.5 L570.5,479.96875 C570.5,477.847 568.778,476.125 566.65625,476.125 C564.5345,476.125 562.8125,477.847 562.8125,479.96875 L562.8125,491.5 L558.96875,491.5 C556.854688,491.5 555.125,493.229688 555.125,495.34375 C555.125,497.457812 556.854688,499.1875 558.96875,499.1875 L562.8125,499.1875 L562.8125,526.09375 C562.8125,528.2155 564.5345,529.9375 566.65625,529.9375 C568.778,529.9375 570.5,528.2155 570.5,526.09375 L570.5,499.1875 L574.34375,499.1875 C576.457813,499.1875 578.1875,497.457812 578.1875,495.34375 C578.1875,493.229688 576.457813,491.5 574.34375,491.5 L574.34375,491.5 Z M535.90625,483.8125 L532.0625,483.8125 L532.0625,479.96875 C532.0625,477.847 530.3405,476.125 528.21875,476.125 C526.097,476.125 524.375,477.847 524.375,479.96875 L524.375,483.8125 L520.53125,483.8125 C518.417187,483.8125 516.6875,485.542188 516.6875,487.65625 C516.6875,489.770312 518.417187,491.5 520.53125,491.5 L524.375,491.5 L524.375,526.09375 C524.375,528.2155 526.097,529.9375 528.21875,529.9375 C530.3405,529.9375 532.0625,528.2155 532.0625,526.09375 L532.0625,491.5 L535.90625,491.5 C538.020312,491.5 539.75,489.770312 539.75,487.65625 C539.75,485.542188 538.020312,483.8125 535.90625,483.8125 L535.90625,483.8125 Z M497.46875,499.1875 L493.625,499.1875 L493.625,479.96875 C493.625,477.847 491.903,476.125 489.78125,476.125 C487.6595,476.125 485.9375,477.847 485.9375,479.96875 L485.9375,499.1875 L482.09375,499.1875 C479.979687,499.1875 478.25,500.917188 478.25,503.03125 C478.25,505.145312 479.979687,506.875 482.09375,506.875 L485.9375,506.875 L485.9375,526.09375 C485.9375,528.2155 487.6595,529.9375 489.78125,529.9375 C491.903,529.9375 493.625,528.2155 493.625,526.09375 L493.625,506.875 L497.46875,506.875 C499.582812,506.875 501.3125,505.145312 501.3125,503.03125 C501.3125,500.917188 499.582812,499.1875 497.46875,499.1875 L497.46875,499.1875 Z M459.03125,506.875 L455.1875,506.875 L455.1875,479.96875 C455.1875,477.847 453.4655,476.125 451.34375,476.125 C449.222,476.125 447.5,477.847 447.5,479.96875 L447.5,506.875 L443.65625,506.875 C441.542187,506.875 439.8125,508.604687 439.8125,510.71875 C439.8125,512.832812 441.542187,514.5625 443.65625,514.5625 L447.5,514.5625 L447.5,526.09375 C447.5,528.2155 449.222,529.9375 451.34375,529.9375 C453.4655,529.9375 455.1875,528.2155 455.1875,526.09375 L455.1875,514.5625 L459.03125,514.5625 C461.145312,514.5625 462.875,512.832812 462.875,510.71875 C462.875,508.604687 461.145312,506.875 459.03125,506.875 L459.03125,506.875 Z M420.59375,491.5 L416.75,491.5 L416.75,479.96875 C416.75,477.847 415.028,476.125 412.90625,476.125 C410.7845,476.125 409.0625,477.847 409.0625,479.96875 L409.0625,491.5 L405.21875,491.5 C403.104688,491.5 401.375,493.229688 401.375,495.34375 C401.375,497.457812 403.104688,499.1875 405.21875,499.1875 L409.0625,499.1875 L409.0625,526.09375 C409.0625,528.2155 410.7845,529.9375 412.90625,529.9375 C415.028,529.9375 416.75,528.2155 416.75,526.09375 L416.75,499.1875 L420.59375,499.1875 C422.707813,499.1875 424.4375,497.457812 424.4375,495.34375 C424.4375,493.229688 422.707813,491.5 420.59375,491.5 L420.59375,491.5 Z" id="Mixer"></path>
        </g>
    </g>
</svg>