<svg xmlns="http://www.w3.org/2000/svg" viewBox="0 0 29.7 30.1"><path fill="#FFF" d="M12.1 19.2H8.8c-.3 0-.6-.3-.6-.6v-5.5c0-.3.3-.6.6-.6h3.3c.3 0 .6.3.6.6v5.5c0 .3-.3.6-.6.6zM9.4 18h2.1v-4.3H9.4V18z"/><path fill="#FFF" d="M21.4 30.1H6.1c-.3 0-.6-.3-.6-.6V23l-1.5.5v.5c0 .3-.3.6-.6.6H.6c-.3 0-.5-.2-.6-.5 0-.3.1-.6.4-.7l2.4-.8v-.7c0-.3.3-.6.6-.6h2.1v-2.1h-.8c-.3 0-.6-.3-.6-.6s.3-.6.6-.6h.8c0-.3.3-.5.6-.5h15.3c.3 0 .6.2.6.5h.8c.3 0 .6.3.6.6s-.3.6-.6.6H22v2.2h.8c.3 0 .6.3.6.6s-.3.6-.6.6H22v7c0 .3-.2.5-.6.5zM6.7 28.9h14.1v-6.4H6.7v6.4zm.2-7.6h13.9v-2.2H6.7v2.1c.1.1.1.1.2.1z"/><path fill="#FFF" d="M12.1 19.2H8.8c-.3 0-.6-.3-.6-.6v-5.5c0-.3.3-.6.6-.6h1V9c0-.2.1-.4.3-.5.1-.2.3-.3.5-.3h2.7c.3 0 .3 1.2 0 1.2h-2.4v3.2h1c.3 0 .6.3.6.6v5.5c.2.2-.1.5-.4.5zM9.4 18h2.1v-4.3H9.4V18z"/><path fill="#FFF" d="M25.5 17c-1.5 0-2.8-1.5-3.6-4.1L13 10.7c-.3-.1-.5-.3-.5-.6V7.2c0-.3.2-.5.5-.6l8.7-2.1c.7-2.9 2.1-4.7 3.7-4.7 2.4 0 4.2 3.7 4.2 8.5S27.9 17 25.5 17zM13.8 9.7l8.8 2.1c.2.1.4.2.4.4.6 2.1 1.5 3.5 2.5 3.5 1.4 0 3-3 3-7.3s-1.6-7.3-3-7.3c-1.1 0-2.1 1.6-2.6 4.1 0 .2-.2.4-.4.5l-8.7 2.1v1.9z"/></svg>