<svg xmlns="http://www.w3.org/2000/svg" viewBox="0 0 98.7 78.8"><path fill="#FFF" d="M25.3 80.1L14.6 70l.5-1.2C19.9 58.4 30.3 49.6 40.5 41c10.2-8.6 19.8-16.7 22.8-25.5l-3.6-4.1 12.6-12L73.6 1c.1.1 5.7 7.5 16.4 11.1 1 .3 3.2.7 4.9.9.8.1 1.6.2 2.2.3l1.6.3-.2 1.7c-.9 9-9.9 18.4-21.3 22.4l-1.7.6-.5-1.8c-.3-.8-.5-1.7-.8-2.7-.3-1.3-.7-2.7-1-3.4-.9-1.9-1.7-3.4-2.4-4.6-4.4 8.4-12 14.7-20 21.3-10 8.2-20.3 16.8-24.5 30.2l-1 2.8zM19 69.2l4.7 4.4c5-12.8 15-21.1 24.7-29.2 8.5-7 16.5-13.7 20.3-22.8l1.1-2.7 1.9 2.2c.1.1 2.4 2.7 4.7 7.8.4 1 .8 2.4 1.2 4 .1.2.1.5.2.7 8.4-3.5 15.2-10.4 16.8-17h-.3c-2-.3-4.2-.6-5.5-1.1C80 12.6 74.4 7.3 72 4.7l-7.3 6.9 2.7 3-.3.9c-2.9 10.3-13.3 19-24.3 28.2C33.4 51.8 23.7 60 19 69.2z"/><path fill="#FFF" d="M74.2 29.6c-.5 0-.9-.3-1.1-.8-.2-.6.1-1.3.7-1.5 8.3-3.1 12.1-5.7 14.5-13.8.2-.6.9-1 1.5-.8.6.2 1 .9.8 1.5-2.7 9-7.3 12.1-16 15.4h-.4zM70.4 24.1c-.6 0-1.1-.3-1.5-.7-.8-1-1.5-2.1-2.2-3.2-.8-1.1-1.6-2.4-2.7-4-.6-.8-.4-1.9.4-2.5.8-.6 1.9-.4 2.5.4 1.2 1.6 2 2.9 2.8 4.1.7 1.1 1.4 2.1 2.1 3.1.6.8.4 1.9-.4 2.5-.3.2-.7.3-1 .3z"/><g><path fill="#FFF" d="M43 42.4c-.4 0-.8-.1-1.2-.4-4.9-4.3-10.3-9.5-13.8-16.1-.7 1.1-1.6 2.6-2.5 4.6-.3.7-.7 2.1-1 3.4-.3 1-.5 2-.8 2.7l-.6 1.7-1.7-.6C10 33.7 1 24.3.1 15.3L0 13.7l1.6-.3c.6-.1 1.4-.3 2.2-.4 1.7-.3 3.9-.6 4.9-.9C19.4 8.5 25.1 1.1 25.1 1l1.2-1.6 12.6 12-3.6 4.1c2.4 7 9 13.5 15.2 19 .7.7.8 1.8.2 2.5-.7.7-1.8.8-2.5.2-6.9-6.1-14.2-13.4-16.6-21.6l-.3-.9 2.7-3-7.3-6.9c-2.4 2.6-8 7.9-16.8 10.8-1.3.4-3.5.8-5.5 1.1h-.3c1.6 6.6 8.4 13.5 16.8 17 .1-.2.1-.5.2-.7.4-1.5.8-3 1.2-4 2.3-5.1 4.6-7.7 4.7-7.8l1.9-2.2 1.1 2.7c3 7.2 8.8 12.9 14.1 17.6.7.7.8 1.8.2 2.5-.3.4-.8.6-1.3.6zM73.4 80.1l-.9-2.7c-4.2-13.4-14.4-21.8-24.3-30-.8-.6-.9-1.8-.2-2.5.6-.8 1.8-.9 2.5-.2 9.2 7.6 19.5 16.1 24.5 29l4.7-4.4C75.1 60 65.3 51.8 55.9 43.8l-1.8-1.5c-.8-.6-.9-1.8-.2-2.5.6-.8 1.8-.9 2.5-.2l1.7 1.5c10.1 8.5 20.6 17.3 25.4 27.8l.5 1.2-10.6 10z"/><path fill="#FFF" d="M24.6 29.6c-.1 0-.3 0-.4-.1-8.7-3.3-13.3-6.4-16-15.4-.2-.6.2-1.3.8-1.5.6-.2 1.3.2 1.5.8 2.4 8.1 6.3 10.7 14.5 13.8.6.2.9.9.7 1.5-.2.6-.6.9-1.1.9zM28.4 24.1c-.4 0-.7-.1-1.1-.4-.8-.6-1-1.7-.4-2.5.7-1 1.4-2 2.1-3.1.8-1.2 1.7-2.5 2.8-4.1.6-.8 1.7-1 2.5-.4s1 1.7.4 2.5c-1.1 1.6-2 2.8-2.7 4-.8 1.2-1.5 2.2-2.2 3.2-.3.6-.9.8-1.4.8z"/></g></svg>