<svg xmlns="http://www.w3.org/2000/svg" viewBox="1110.8 835.7 30.7 30.6"><path fill="#FFF" d="M1122.8 855.1h-3.3c-.3 0-.5-.2-.5-.5V849c0-.3.2-.5.5-.5h3.3c.3 0 .5.2.5.5v5.6c0 .3-.3.5-.5.5zm-2.8-1h2.3v-4.6h-2.3v4.6z"/><path fill="#FFF" d="M1122.8 855.1h-3.3c-.3 0-.5-.2-.5-.5V849c0-.3.2-.5.5-.5h1.1v-3.7c0-.2.1-.4.3-.5.1-.2.3-.3.5-.3h2.7c.3 0 .5.2.5.5s-.2.5-.5.5h-2.5v3.5h1.1c.3 0 .5.2.5.5v5.6c.1.3-.2.5-.4.5zm-2.8-1h2.3v-4.6h-.7c-.2.3-.7.3-.9 0h-.7v4.6z"/><path fill="#FFF" d="M1132 866.3h-15.2c-.3 0-.5-.2-.5-.5v-11.7c0-.3.2-.5.5-.5h15.2c.3 0 .5.2.5.5v11.7c0 .3-.2.5-.5.5zm-14.7-1h14.2v-10.7h-14.2v10.7z"/><path fill="#FFF" d="M1132 866.3h-15.2c-.3 0-.5-.2-.5-.5V859l-1.7.6v.7c0 .3-.2.5-.5.5h-2.8c-.2 0-.5-.2-.5-.4s.1-.5.3-.6l2.4-.9v-.9c0-.3.2-.5.5-.5h2.2v-2.4h-.9c-.3 0-.5-.2-.5-.5s.2-.5.5-.5h.9v-.1c0-.3.2-.5.5-.5h15.2c.3 0 .5.2.5.5v.1h.9c.3 0 .5.2.5.5s-.2.5-.5.5h-.9v2.4h.9c.3 0 .5.2.5.5s-.2.5-.5.5h-.9v7.2c.1.4-.1.6-.4.6zm-14.7-1h14.2v-6.7h-14.2v6.7zm.3-7.7h13.9v-2.4h-14.2v2.4h.1c0-.1.1-.1.2 0z"/><g><path fill="#FFF" d="M1136.1 852.9c-1.5 0-2.7-1.5-3.5-4.1l-8.9-2.2c-.2-.1-.4-.3-.4-.5v-3c0-.2.2-.4.4-.5l8.7-2.2c.7-2.9 2-4.7 3.6-4.7 2.3 0 4 3.8 4 8.6s-1.7 8.6-3.9 8.6zm-11.8-7.2l8.8 2.2c.2 0 .3.2.4.4.6 2.2 1.6 3.6 2.6 3.6 1.4 0 3-3.1 3-7.6s-1.6-7.6-3-7.6c-1.1 0-2.2 1.7-2.7 4.2 0 .2-.2.3-.4.4l-8.7 2.2v2.2z"/></g></svg>