<svg xmlns="http://www.w3.org/2000/svg" xmlns:xlink="http://www.w3.org/1999/xlink" viewBox="435 463.5 19 22.7"><defs><path id="a" d="M435 472.8v4.3c0 .3.2.5.5.5h4c.1 0 .3.1.3.1l2.6 2.6c.3.3.8.1.8-.3v-10.1c0-.4-.5-.6-.8-.3l-2.6 2.6c-.1.1-.2.1-.3.1h-4c-.3.1-.5.3-.5.5"/></defs><clipPath id="b"><use xlink:href="#a" overflow="visible"/></clipPath><path clip-path="url(#b)" fill="#FFF" d="M430 464.5h18.2v21.1H430z"/><g><defs><path id="c" d="M449.6 475c0-3.2-1.1-5.9-3.3-8.2-.8-.8-2 .4-1.2 1.2 1.9 2 2.7 4.2 2.8 7 0 2.7-.9 5-2.8 7-.8.8.5 2 1.2 1.2 2.2-2.3 3.3-5 3.3-8.2"/></defs><clipPath id="d"><use xlink:href="#c" overflow="visible"/></clipPath><path clip-path="url(#d)" fill="#FFF" d="M439.9 461.6h14.7v26.9h-14.7z"/></g><g><defs><path id="e" d="M454 475c-.1-4.3-1.5-8.1-4.5-11.2-.8-.8-2 .4-1.2 1.2 2.6 2.8 3.9 6.1 4 9.9-.1 3.8-1.3 7.2-4 9.9-.8.8.5 2 1.2 1.2 2.9-2.9 4.4-6.7 4.5-11"/></defs><clipPath id="f"><use xlink:href="#e" overflow="visible"/></clipPath><path clip-path="url(#f)" fill="#FFF" d="M443 458.6h15.9v32.9H443z"/></g></svg>