<?xml version="1.0" encoding="UTF-8" standalone="no"?>
<svg width="14px" height="17px" viewBox="0 0 14 17" version="1.1" xmlns="http://www.w3.org/2000/svg" xmlns:xlink="http://www.w3.org/1999/xlink">
    <!-- Generator: Sketch 3.8.3 (29802) - http://www.bohemiancoding.com/sketch -->
    <title>Fill 132</title>
    <desc>Created with Sketch.</desc>
    <defs></defs>
    <g id="Page-1" stroke="none" stroke-width="1" fill="none" fill-rule="evenodd" opacity="0.5">
        <g id="Website-Private-Profile-Copy" transform="translate(-1075.000000, -574.000000)" fill="#FFFFFF">
            <g id="My-Tracks-Copy" transform="translate(0.000000, -76.000000)">
                <path d="M1088.71411,652.245916 L1085.31703,652.245916 L1085.31703,650.996025 C1085.31703,650.446744 1084.87029,650 1084.32139,650 L1079.96297,650 C1079.41521,650 1078.96885,650.446744 1078.96885,650.996025 L1078.96885,652.245916 L1075.28589,652.245916 C1075.1277,652.245916 1075,652.373993 1075,652.531801 C1075,652.68961 1075.1277,652.817687 1075.28589,652.817687 L1076.31774,652.817687 L1076.74428,664.810009 C1076.74428,665.947452 1077.66903,666.872958 1078.80533,666.872958 L1085.19506,666.872958 C1086.33097,666.872958 1087.25572,665.947452 1087.25572,664.819919 L1087.68188,652.817687 L1088.71411,652.817687 C1088.87192,652.817687 1089,652.68961 1089,652.531801 C1089,652.373993 1088.87192,652.245916 1088.71411,652.245916 L1088.71411,652.245916 Z M1079.54062,650.996025 C1079.54062,650.76198 1079.73045,650.571771 1079.96297,650.571771 L1084.32139,650.571771 C1084.55467,650.571771 1084.74526,650.76198 1084.74526,650.996025 L1084.74526,652.245916 L1079.54062,652.245916 L1079.54062,650.996025 L1079.54062,650.996025 Z M1086.68395,664.810009 C1086.68395,665.632215 1086.01612,666.301187 1085.19506,666.301187 L1078.80533,666.301187 C1077.98426,666.301187 1077.31605,665.632215 1077.31605,664.799336 L1076.88989,652.817687 L1087.10973,652.817687 L1086.68395,664.810009 L1086.68395,664.810009 Z M1084.20704,662.706273 C1084.36484,662.706273 1084.49292,662.578196 1084.49292,662.420388 L1084.49292,656.705347 C1084.49292,656.547539 1084.36484,656.419462 1084.20704,656.419462 C1084.04923,656.419462 1083.92115,656.547539 1083.92115,656.705347 L1083.92115,662.420388 C1083.92115,662.578196 1084.04923,662.706273 1084.20704,662.706273 L1084.20704,662.706273 Z M1079.81317,662.706273 C1079.97098,662.706273 1080.09905,662.578196 1080.09905,662.420388 L1080.09905,656.705347 C1080.09905,656.547539 1079.97098,656.419462 1079.81317,656.419462 C1079.65536,656.419462 1079.52728,656.547539 1079.52728,656.705347 L1079.52728,662.420388 C1079.52728,662.578196 1079.65536,662.706273 1079.81317,662.706273 L1079.81317,662.706273 Z M1081.99276,664.014485 C1082.15057,664.014485 1082.27864,663.886408 1082.27864,663.728599 L1082.27864,655.397517 C1082.27864,655.239327 1082.15057,655.111631 1081.99276,655.111631 C1081.83495,655.111631 1081.70687,655.239327 1081.70687,655.397517 L1081.70687,663.728599 C1081.70687,663.886408 1081.83495,664.014485 1081.99276,664.014485 L1081.99276,664.014485 Z" id="Fill-132"></path>
            </g>
        </g>
    </g>
</svg>