<?xml version="1.0" encoding="UTF-8" standalone="no"?>
<svg width="359px" height="472px" viewBox="0 0 359 472" version="1.1" xmlns="http://www.w3.org/2000/svg" xmlns:xlink="http://www.w3.org/1999/xlink">
    <!-- Generator: Sketch 3.6.1 (26313) - http://www.bohemiancoding.com/sketch -->
    <title>Page 1</title>
    <desc>Created with Sketch.</desc>
    <defs>
        <path id="path-1" d="M33.229,2.02 L0.83,68.141 C0.277,69.273 0.745,70.642 1.884,71.194 C3.018,71.75 4.392,71.279 4.944,70.147 L35.304,8.191 L66.195,70.159 C66.761,71.29 68.134,71.75 69.268,71.186 C70.398,70.626 70.859,69.256 70.298,68.125 L37.339,2.008 C36.951,1.231 36.147,0.739 35.28,0.739 C34.411,0.743 33.612,1.242 33.229,2.02 L33.229,2.02 Z"></path>
        <path id="path-3" d="M35.436,0.739 C34.567,0.747 33.78,1.242 33.401,2.02 L0.998,68.141 C0.445,69.273 0.917,70.642 2.052,71.194 C3.187,71.75 4.56,71.279 5.113,70.147 L35.5,8.134 L59.71,55.449 C60.288,56.573 61.665,57.02 62.791,56.449 C63.917,55.872 64.366,54.499 63.788,53.375 L37.495,1.984 C37.103,1.221 36.317,0.739 35.458,0.739 L35.436,0.739 L35.436,0.739 Z"></path>
        <path id="path-5" d="M1.872,0.949 C0.749,1.525 0.305,2.902 0.882,4.022 L29.296,59.187 C29.872,60.307 31.254,60.75 32.376,60.174 C33.503,59.598 33.943,58.22 33.365,57.101 L4.957,1.935 C4.552,1.147 3.751,0.693 2.92,0.693 C2.567,0.693 2.208,0.775 1.872,0.949 L1.872,0.949 Z"></path>
        <path id="path-7" d="M1.41,0.993 C0.283,1.569 -0.157,2.946 0.421,4.07 L34.531,70.187 C35.109,71.311 36.489,71.75 37.616,71.174 C38.738,70.598 39.182,69.22 38.605,68.096 L4.491,1.98 C4.086,1.191 3.285,0.74 2.456,0.739 C2.103,0.739 1.745,0.821 1.41,0.993 L1.41,0.993 Z"></path>
        <path d="M0.036,91.667 C0.036,141.766 40.748,182.378 90.964,182.378 C141.185,182.378 181.897,141.766 181.897,91.667 C181.897,41.573 141.185,0.961 90.964,0.961 C40.748,0.961 0.036,41.573 0.036,91.667 L0.036,91.667 Z M4.615,91.667 C4.615,44.171 43.352,5.528 90.964,5.528 C138.581,5.528 177.318,44.171 177.318,91.667 C177.318,139.168 138.581,177.811 90.964,177.811 C43.352,177.811 4.615,139.168 4.615,91.667 L4.615,91.667 Z" id="path-9"></path>
        <path id="path-11" d="M13.589,1.292 C11.493,1.868 9.583,2.719 7.855,3.842 C6.127,4.97 4.723,6.392 3.64,8.116 C2.558,9.836 2.017,11.87 2.017,14.214 C2.017,15.958 2.328,17.533 2.949,18.931 C3.571,20.333 4.411,21.561 5.473,22.616 C6.531,23.675 7.763,24.557 9.168,25.27 C10.572,25.983 12.034,26.547 13.552,26.959 C14.796,27.281 16.258,27.603 17.937,27.925 C19.621,28.247 21.333,28.625 23.085,29.061 C24.834,29.496 26.574,30.015 28.298,30.612 C30.026,31.208 31.557,31.953 32.893,32.851 C34.229,33.745 35.312,34.825 36.14,36.089 C36.967,37.354 37.383,38.857 37.383,40.601 C37.383,42.759 36.91,44.645 35.966,46.252 C35.021,47.858 33.782,49.204 32.235,50.283 C30.693,51.363 28.968,52.164 27.059,52.692 C25.144,53.223 23.223,53.485 21.289,53.485 C17.465,53.485 14.025,52.761 10.964,51.314 C7.899,49.868 4.944,47.951 2.09,45.563 L1.399,45.216 L0.567,45.595 L0.224,46.389 L0.636,47.146 C3.398,49.764 6.523,51.834 10.015,53.348 C13.508,54.863 17.211,55.62 21.115,55.62 C23.32,55.62 25.516,55.31 27.7,54.689 C29.885,54.069 31.859,53.151 33.628,51.931 C35.401,50.714 36.826,49.172 37.904,47.307 C38.982,45.446 39.523,43.275 39.523,40.79 C39.523,38.305 39.018,36.271 38.005,34.683 C36.996,33.097 35.663,31.788 34.008,30.752 C32.352,29.717 30.471,28.9 28.355,28.3 C26.243,27.703 24.071,27.151 21.842,26.644 C19.613,26.141 17.44,25.613 15.329,25.057 C13.213,24.509 11.328,23.784 9.676,22.886 C8.021,21.988 6.689,20.84 5.675,19.438 C4.666,18.032 4.161,16.228 4.161,14.021 C4.161,11.995 4.653,10.263 5.647,8.813 C6.636,7.363 7.899,6.178 9.442,5.26 C10.985,4.342 12.677,3.661 14.522,3.222 C16.363,2.787 18.156,2.57 19.908,2.57 C22.395,2.57 24.813,2.936 27.16,3.669 C29.509,4.406 31.718,5.393 33.789,6.634 L34.378,7.012 L35.206,7.564 L36.034,8.079 L36.555,8.285 L37.314,7.943 L37.657,7.186 L37.556,6.702 L37.246,6.356 C36.277,5.438 35.081,4.612 33.652,3.879 C32.227,3.142 30.693,2.517 29.061,2.006 C27.426,1.49 25.791,1.1 24.155,0.833 C22.52,0.563 21.058,0.431 19.77,0.431 C17.744,0.431 15.684,0.721 13.589,1.292 L13.589,1.292 Z"></path>
        <path d="M14.424,1.697 C12.271,2.284 10.297,3.163 8.516,4.323 C6.715,5.495 5.242,6.99 4.115,8.786 C2.965,10.615 2.395,12.777 2.399,15.214 C2.395,17.031 2.722,18.694 3.384,20.184 C4.034,21.65 4.919,22.947 6.033,24.055 C7.139,25.163 8.427,26.085 9.885,26.822 C11.327,27.555 12.829,28.131 14.391,28.558 L14.399,28.558 C15.658,28.885 17.133,29.211 18.825,29.533 C20.492,29.851 22.196,30.23 23.936,30.661 C25.664,31.096 27.388,31.607 29.096,32.196 C30.78,32.78 32.262,33.501 33.546,34.367 C34.818,35.221 35.835,36.235 36.619,37.428 C37.374,38.579 37.761,39.953 37.761,41.601 C37.761,43.671 37.312,45.435 36.429,46.938 C35.528,48.472 34.353,49.745 32.879,50.776 C31.398,51.811 29.738,52.584 27.893,53.096 C26.032,53.611 24.166,53.865 22.289,53.865 C18.546,53.865 15.202,53.16 12.231,51.755 C9.219,50.333 6.304,48.444 3.49,46.087 L3.433,46.039 L2.674,45.664 L2.407,45.532 L1.309,46.032 L1.095,46.131 L0.534,47.421 L1.091,48.444 L1.14,48.528 L1.208,48.597 C4.018,51.263 7.208,53.374 10.77,54.916 C14.338,56.467 18.13,57.241 22.115,57.241 C24.38,57.241 26.633,56.922 28.87,56.286 C31.115,55.65 33.154,54.699 34.983,53.442 C36.825,52.173 38.319,50.559 39.441,48.621 C40.583,46.652 41.145,44.364 41.145,41.79 L40.523,41.79 L39.901,41.79 C39.901,44.187 39.384,46.24 38.366,47.997 C37.329,49.785 35.972,51.252 34.277,52.419 C32.565,53.6 30.651,54.49 28.531,55.094 C26.399,55.702 24.263,56 22.115,56 C18.292,56 14.677,55.263 11.262,53.781 C7.868,52.305 4.834,50.308 2.145,47.775 L2.186,47.848 L1.636,48.146 L2.064,47.698 C2.091,47.724 2.118,47.75 2.145,47.775 L1.915,47.36 L2.044,47.062 L2.387,46.905 L2.75,47.088 C2.73,47.071 2.709,47.055 2.689,47.038 L3.09,46.563 L2.811,47.119 L2.75,47.088 C5.623,49.482 8.602,51.414 11.698,52.874 C14.851,54.365 18.388,55.106 22.289,55.106 C24.28,55.106 26.258,54.836 28.224,54.293 C30.194,53.744 31.991,52.91 33.595,51.791 C35.206,50.663 36.513,49.249 37.502,47.566 C38.508,45.854 39.005,43.848 39.005,41.601 C39.005,39.759 38.561,38.124 37.66,36.747 C36.784,35.413 35.638,34.274 34.24,33.335 C32.856,32.405 31.273,31.636 29.504,31.023 C27.76,30.423 26.003,29.9 24.235,29.461 C22.474,29.021 20.751,28.639 19.059,28.312 C17.383,27.995 15.937,27.676 14.71,27.358 L14.71,27.359 C13.231,26.958 11.812,26.411 10.45,25.719 C9.098,25.034 7.923,24.189 6.913,23.181 C5.908,22.178 5.112,21.018 4.519,19.681 C3.938,18.368 3.643,16.886 3.639,15.214 C3.643,12.963 4.156,11.058 5.169,9.442 C6.203,7.795 7.54,6.441 9.195,5.362 C10.866,4.274 12.715,3.449 14.755,2.893 C16.798,2.329 18.8,2.051 20.77,2.051 C22.014,2.051 23.448,2.18 25.055,2.445 C26.657,2.707 28.265,3.091 29.871,3.594 C31.474,4.101 32.973,4.71 34.369,5.426 C35.738,6.133 36.882,6.924 37.795,7.785 L37.781,7.771 L38.246,7.356 L37.817,7.807 C37.81,7.799 37.802,7.792 37.795,7.785 L37.983,7.992 L38.007,8.113 L37.842,8.475 L37.539,8.612 L37.317,8.524 L36.542,8.041 L35.722,7.497 L35.718,7.493 L35.128,7.114 L35.12,7.107 L35.112,7.102 C32.997,5.838 30.74,4.826 28.345,4.077 C25.939,3.324 23.455,2.949 20.908,2.949 C19.107,2.949 17.262,3.171 15.376,3.622 C13.479,4.069 11.722,4.774 10.124,5.729 C8.508,6.692 7.171,7.94 6.13,9.463 C5.064,11.025 4.535,12.898 4.539,15.021 C4.539,17.321 5.068,19.266 6.171,20.801 C7.241,22.283 8.649,23.495 10.377,24.43 C12.085,25.356 14.016,26.097 16.171,26.657 C18.292,27.213 20.468,27.744 22.705,28.252 C24.921,28.756 27.081,29.303 29.186,29.9 C31.248,30.484 33.077,31.277 34.676,32.276 C36.259,33.267 37.519,34.507 38.48,36.018 C39.412,37.476 39.901,39.39 39.901,41.79 L41.145,41.79 C41.145,39.224 40.624,37.065 39.529,35.349 C38.472,33.686 37.067,32.304 35.339,31.225 C33.626,30.157 31.688,29.316 29.524,28.703 C27.401,28.104 25.22,27.547 22.979,27.04 C20.759,26.537 18.59,26.008 16.486,25.457 C14.411,24.918 12.574,24.212 10.971,23.342 C9.388,22.484 8.136,21.397 7.18,20.076 C6.263,18.799 5.783,17.135 5.783,15.021 C5.783,13.095 6.247,11.5 7.16,10.163 C8.1,8.786 9.292,7.67 10.762,6.792 C12.251,5.906 13.878,5.249 15.663,4.826 C17.464,4.399 19.208,4.19 20.908,4.19 C23.335,4.19 25.684,4.549 27.974,5.262 C30.275,5.982 32.443,6.949 34.47,8.166 L34.471,8.164 L34.454,8.153 L34.789,7.634 L34.471,8.164 L35.035,8.532 L35.863,9.079 L35.872,9.084 L36.707,9.608 L36.752,9.635 L37.325,9.861 L37.567,9.962 L38.782,9.41 L39.308,8.254 L39.162,7.574 L39.13,7.408 L38.706,6.941 L38.689,6.925 L38.673,6.909 C37.656,5.942 36.408,5.084 34.938,4.326 C33.477,3.574 31.911,2.937 30.247,2.414 C28.583,1.89 26.92,1.491 25.256,1.221 C23.596,0.948 22.103,0.81 20.77,0.81 C18.683,0.81 16.568,1.109 14.424,1.697 L14.424,1.697 Z M14.71,27.359 C14.713,27.36 14.715,27.361 14.718,27.362 L14.552,27.959 L14.71,27.359 L14.71,27.359 Z" id="path-13"></path>
        <path id="path-15" d="M13.4,1.292 C11.304,1.868 9.395,2.719 7.667,3.842 C5.939,4.97 4.533,6.392 3.456,8.116 C2.373,9.836 1.832,11.87 1.832,14.214 C1.832,15.958 2.139,17.533 2.761,18.931 C3.383,20.333 4.222,21.561 5.284,22.616 C6.342,23.675 7.574,24.557 8.979,25.27 C10.384,25.983 11.845,26.547 13.364,26.959 C14.607,27.281 16.069,27.603 17.753,27.925 C19.432,28.247 21.144,28.625 22.896,29.061 C24.645,29.496 26.385,30.015 28.113,30.612 C29.837,31.208 31.367,31.953 32.704,32.851 C34.04,33.745 35.123,34.825 35.95,36.089 C36.778,37.354 37.194,38.857 37.194,40.601 C37.194,42.759 36.721,44.645 35.776,46.252 C34.832,47.858 33.588,49.204 32.049,50.283 C30.503,51.363 28.78,52.164 26.87,52.692 C24.956,53.223 23.034,53.485 21.1,53.485 C17.276,53.485 13.836,52.761 10.775,51.314 C7.711,49.868 4.755,47.951 1.9,45.563 L1.21,45.216 L0.378,45.595 L0.035,46.389 L0.447,47.146 C3.209,49.764 6.334,51.834 9.827,53.348 C13.319,54.863 17.021,55.62 20.926,55.62 C23.135,55.62 25.327,55.31 27.512,54.689 C29.696,54.069 31.671,53.151 33.439,51.931 C35.211,50.714 36.632,49.172 37.715,47.307 C38.793,45.446 39.334,43.275 39.334,40.79 C39.334,38.305 38.829,36.271 37.816,34.683 C36.806,33.097 35.474,31.788 33.818,30.752 C32.163,29.717 30.281,28.9 28.166,28.3 C26.054,27.703 23.882,27.151 21.653,26.644 C19.424,26.141 17.252,25.613 15.14,25.057 C13.024,24.509 11.139,23.784 9.487,22.886 C7.832,21.988 6.499,20.84 5.486,19.438 C4.477,18.032 3.972,16.228 3.972,14.021 C3.972,11.995 4.464,10.263 5.458,8.813 C6.447,7.363 7.711,6.178 9.253,5.26 C10.796,4.342 12.491,3.661 14.333,3.222 C16.173,2.787 17.966,2.57 19.719,2.57 C22.206,2.57 24.624,2.936 26.971,3.669 C29.321,4.406 31.529,5.393 33.6,6.634 L34.19,7.012 L35.018,7.564 L35.846,8.079 L36.366,8.285 L37.125,7.943 L37.468,7.186 L37.367,6.702 L37.056,6.356 C36.088,5.438 34.892,4.612 33.463,3.879 C32.038,3.142 30.503,2.517 28.872,2.006 C27.237,1.49 25.602,1.1 23.966,0.833 C22.331,0.563 20.87,0.431 19.582,0.431 C17.555,0.431 15.496,0.721 13.4,1.292 L13.4,1.292 Z"></path>
        <path d="M14.234,1.697 C12.082,2.284 10.107,3.163 8.327,4.323 C6.526,5.495 5.053,6.99 3.926,8.786 C2.775,10.615 2.206,12.777 2.21,15.214 C2.206,17.031 2.533,18.694 3.195,20.184 C3.845,21.65 4.73,22.947 5.844,24.055 C6.95,25.163 8.238,26.085 9.696,26.822 C11.137,27.555 12.639,28.131 14.202,28.558 L14.21,28.558 C15.47,28.885 16.944,29.211 18.635,29.533 C20.303,29.851 22.006,30.23 23.747,30.661 C25.475,31.096 27.199,31.607 28.908,32.196 C30.591,32.78 32.073,33.501 33.356,34.367 C34.629,35.221 35.65,36.235 36.429,37.428 C37.184,38.579 37.572,39.953 37.572,41.601 C37.572,43.671 37.12,45.435 36.24,46.938 C35.339,48.472 34.164,49.745 32.69,50.776 C31.209,51.811 29.549,52.584 27.704,53.096 C25.842,53.611 23.977,53.865 22.1,53.865 C18.357,53.865 15.01,53.16 12.042,51.755 C9.03,50.333 6.119,48.444 3.3,46.087 L3.244,46.039 L2.484,45.664 L2.218,45.532 L1.12,46.032 L0.906,46.131 L0.345,47.421 L0.902,48.444 L0.95,48.528 L1.019,48.597 C3.829,51.263 7.019,53.374 10.58,54.916 C14.149,56.467 17.941,57.241 21.926,57.241 C24.192,57.241 26.444,56.922 28.681,56.286 C30.926,55.65 32.965,54.699 34.794,53.442 C36.635,52.173 38.129,50.559 39.251,48.621 C40.394,46.652 40.956,44.364 40.956,41.79 L40.334,41.79 L39.712,41.79 C39.712,44.187 39.195,46.24 38.178,47.997 C37.14,49.785 35.784,51.252 34.087,52.419 C32.375,53.6 30.462,54.49 28.341,55.094 C26.21,55.702 24.074,56 21.926,56 C18.099,56 14.489,55.263 11.077,53.781 C7.676,52.304 4.639,50.305 1.952,47.767 L1.996,47.848 L1.447,48.146 L1.879,47.698 C1.903,47.721 1.927,47.744 1.952,47.767 L1.726,47.356 L1.854,47.062 L2.198,46.905 L2.561,47.088 C2.54,47.071 2.52,47.055 2.501,47.038 L2.9,46.563 L2.622,47.119 L2.561,47.088 C5.433,49.482 8.414,51.414 11.509,52.874 C14.662,54.365 18.199,55.106 22.1,55.106 C24.09,55.106 26.069,54.836 28.035,54.293 C30.009,53.744 31.802,52.91 33.405,51.791 C35.016,50.663 36.324,49.249 37.314,47.566 C38.319,45.854 38.816,43.848 38.816,41.601 C38.816,39.759 38.371,38.124 37.471,36.747 C36.594,35.413 35.448,34.274 34.051,33.335 C32.666,32.405 31.084,31.636 29.315,31.023 C27.571,30.423 25.814,29.9 24.046,29.461 C22.285,29.021 20.561,28.639 18.87,28.312 C17.194,27.995 15.749,27.676 14.521,27.358 L14.521,27.359 C13.042,26.958 11.623,26.411 10.261,25.719 C8.909,25.034 7.733,24.189 6.724,23.181 C5.719,22.178 4.923,21.018 4.329,19.681 C3.748,18.368 3.454,16.886 3.449,15.214 C3.454,12.963 3.967,11.058 4.98,9.442 C6.013,7.795 7.35,6.441 9.006,5.362 C10.677,4.274 12.527,3.449 14.565,2.893 C16.608,2.329 18.611,2.051 20.582,2.051 C21.826,2.051 23.258,2.18 24.866,2.445 C26.469,2.707 28.075,3.091 29.682,3.594 C31.285,4.101 32.783,4.71 34.181,5.426 C35.55,6.133 36.693,6.924 37.606,7.785 L37.593,7.771 L38.056,7.356 L37.629,7.807 C37.621,7.799 37.613,7.792 37.606,7.785 L37.794,7.992 L37.818,8.113 L37.656,8.475 L37.35,8.612 L37.128,8.524 L36.352,8.041 L35.533,7.497 L35.529,7.493 L34.939,7.114 L34.931,7.107 L34.923,7.102 C32.807,5.838 30.55,4.826 28.156,4.077 C25.749,3.324 23.266,2.949 20.719,2.949 C18.918,2.949 17.073,3.171 15.187,3.622 C13.29,4.069 11.533,4.774 9.934,5.729 C8.319,6.692 6.983,7.94 5.941,9.463 C4.875,11.025 4.346,12.898 4.35,15.021 C4.35,17.321 4.879,19.266 5.981,20.801 C7.051,22.283 8.46,23.495 10.189,24.43 C11.892,25.356 13.826,26.097 15.983,26.657 C18.102,27.213 20.278,27.744 22.516,28.252 C24.732,28.756 26.892,29.303 28.996,29.9 C31.059,30.484 32.888,31.277 34.488,32.276 C36.07,33.267 37.33,34.507 38.295,36.018 C39.223,37.476 39.712,39.39 39.712,41.79 L40.956,41.79 C40.956,39.224 40.435,37.065 39.34,35.349 C38.283,33.686 36.877,32.304 35.149,31.225 C33.437,30.157 31.5,29.316 29.335,28.703 C27.211,28.104 25.031,27.547 22.79,27.04 C20.565,26.537 18.401,26.008 16.298,25.457 C14.222,24.918 12.385,24.212 10.783,23.342 C9.199,22.484 7.947,21.397 6.991,20.076 C6.075,18.799 5.594,17.135 5.594,15.021 C5.594,13.095 6.058,11.5 6.971,10.163 C7.911,8.786 9.102,7.67 10.572,6.792 C12.058,5.906 13.689,5.249 15.474,4.826 C17.275,4.399 19.019,4.19 20.719,4.19 C23.146,4.19 25.496,4.549 27.784,5.262 C30.087,5.982 32.255,6.949 34.281,8.166 L34.282,8.164 L34.265,8.153 L34.6,7.634 L34.282,8.164 L34.847,8.532 L35.675,9.079 L35.683,9.084 L36.518,9.608 L36.563,9.635 L37.132,9.861 L37.378,9.962 L38.384,9.507 L38.593,9.41 L39.034,8.439 L39.123,8.254 L38.973,7.574 L38.941,7.408 L38.517,6.941 L38.501,6.925 L38.484,6.909 C37.467,5.942 36.219,5.084 34.749,4.326 C33.288,3.574 31.721,2.937 30.058,2.414 C28.395,1.89 26.73,1.491 25.067,1.221 C23.408,0.948 21.914,0.81 20.582,0.81 C18.494,0.81 16.379,1.109 14.234,1.697 L14.234,1.697 Z M14.521,27.359 C14.524,27.36 14.526,27.361 14.529,27.362 L14.364,27.959 L14.521,27.359 L14.521,27.359 Z" id="path-17"></path>
        <path id="path-19" d="M27.107,1.451 L0.425,55.904 C-0.031,56.838 0.357,57.962 1.289,58.416 C2.226,58.876 3.357,58.489 3.813,57.555 L28.814,6.531 L54.255,57.567 C54.72,58.497 55.85,58.876 56.783,58.413 C57.716,57.949 58.096,56.822 57.631,55.891 L30.49,1.439 C30.171,0.803 29.509,0.396 28.794,0.396 C28.08,0.4 27.421,0.81 27.107,1.451 L27.107,1.451 Z"></path>
        <path id="path-21" d="M28.922,0.396 C28.208,0.403 27.561,0.81 27.246,1.451 L0.566,55.904 C0.11,56.838 0.493,57.962 1.43,58.416 C2.367,58.876 3.497,58.489 3.954,57.555 L28.974,6.486 L48.913,45.451 C49.389,46.377 50.524,46.744 51.452,46.273 C52.377,45.801 52.744,44.67 52.272,43.744 L30.618,1.423 C30.297,0.79 29.648,0.396 28.934,0.396 L28.922,0.396 L28.922,0.396 Z"></path>
        <path id="path-23" d="M1.517,0.627 C0.592,1.103 0.225,2.235 0.701,3.157 L24.1,48.587 C24.576,49.514 25.71,49.876 26.639,49.4 C27.564,48.925 27.932,47.794 27.455,46.867 L4.057,1.441 C3.723,0.791 3.064,0.419 2.38,0.419 C2.089,0.419 1.794,0.486 1.517,0.627 L1.517,0.627 Z"></path>
        <path id="path-25" d="M1.078,0.605 C0.149,1.08 -0.214,2.216 0.263,3.138 L28.357,57.591 C28.833,58.514 29.968,58.876 30.892,58.4 C31.821,57.925 32.185,56.794 31.708,55.867 L3.618,1.419 C3.284,0.769 2.623,0.396 1.939,0.396 C1.649,0.396 1.354,0.464 1.078,0.605 L1.078,0.605 Z"></path>
        <path id="path-27" d="M28.61,0.985 C27.895,0.985 27.236,1.396 26.921,2.04 L0.241,56.489 C-0.215,57.423 0.172,58.551 1.109,59.006 C2.042,59.461 3.172,59.074 3.628,58.14 L28.63,7.119 L54.071,58.152 C54.535,59.083 55.665,59.461 56.599,58.998 C57.531,58.539 57.911,57.407 57.45,56.476 L30.305,2.028 C29.988,1.391 29.33,0.985 28.619,0.985 L28.61,0.985 L28.61,0.985 Z"></path>
        <path id="path-29" d="M1.337,0.213 C0.408,0.688 0.044,1.82 0.52,2.746 L23.915,48.176 C24.391,49.099 25.529,49.465 26.455,48.99 C27.383,48.515 27.746,47.379 27.27,46.456 L3.872,1.026 C3.538,0.376 2.879,0.004 2.196,0.004 C1.906,0.004 1.612,0.071 1.337,0.213 L1.337,0.213 Z"></path>
        <path id="path-31" d="M28.661,0.985 C27.947,0.985 27.289,1.396 26.974,2.04 L0.292,56.489 C-0.164,57.423 0.224,58.551 1.156,59.006 C2.093,59.461 3.224,59.074 3.68,58.14 L28.681,7.119 L54.122,58.152 C54.587,59.083 55.718,59.461 56.65,58.998 C57.583,58.539 57.963,57.407 57.498,56.476 L30.357,2.028 C30.04,1.391 29.381,0.985 28.67,0.985 L28.661,0.985 L28.661,0.985 Z"></path>
        <path id="path-33" d="M1.384,0.213 C0.459,0.688 0.096,1.82 0.568,2.746 L23.966,48.176 C24.443,49.099 25.582,49.465 26.506,48.99 C27.435,48.515 27.799,47.379 27.322,46.456 L3.923,1.026 C3.59,0.376 2.931,0.004 2.247,0.004 C1.956,0.004 1.661,0.071 1.384,0.213 L1.384,0.213 Z"></path>
        <path id="path-35" d="M18.53,1.811 L0.218,37.936 C-0.286,38.931 0.114,40.144 1.107,40.643 C2.104,41.146 3.315,40.748 3.82,39.757 L22.13,3.631 C22.635,2.636 22.236,1.424 21.242,0.924 C20.95,0.777 20.637,0.707 20.331,0.707 C19.592,0.707 18.883,1.111 18.53,1.811 L18.53,1.811 Z"></path>
        <path id="path-37" d="M27.371,2.086 L0.452,55.194 C-0.053,56.184 0.347,57.397 1.34,57.901 C2.337,58.4 3.549,58.005 4.053,57.011 L30.972,3.903 C31.477,2.913 31.077,1.7 30.084,1.196 C29.791,1.049 29.48,0.978 29.174,0.978 C28.436,0.978 27.727,1.383 27.371,2.086 L27.371,2.086 Z"></path>
        <path id="path-39" d="M18.868,1.811 L0.557,37.936 C0.053,38.931 0.452,40.144 1.446,40.643 C2.443,41.146 3.654,40.748 4.159,39.757 L22.47,3.631 C22.975,2.636 22.575,1.424 21.581,0.924 C21.289,0.777 20.977,0.707 20.67,0.707 C19.932,0.707 19.222,1.111 18.868,1.811 L18.868,1.811 Z"></path>
        <path id="path-41" d="M27.709,2.086 L0.79,55.194 C0.285,56.184 0.686,57.397 1.679,57.901 C2.676,58.4 3.887,58.005 4.392,57.011 L31.311,3.903 C31.816,2.913 31.416,1.7 30.423,1.196 C30.13,1.049 29.819,0.978 29.513,0.978 C28.775,0.978 28.066,1.383 27.709,2.086 L27.709,2.086 Z"></path>
        <path id="path-43" d="M1.299,0.941 C0.305,1.44 -0.094,2.652 0.41,3.643 L18.786,39.893 C19.286,40.889 20.502,41.283 21.495,40.784 C22.493,40.281 22.892,39.068 22.388,38.077 L4.012,1.826 C3.659,1.127 2.948,0.723 2.21,0.723 C1.904,0.723 1.592,0.792 1.299,0.941 L1.299,0.941 Z"></path>
        <path id="path-45" d="M1.449,1.196 C0.456,1.7 0.056,2.913 0.561,3.903 L27.759,57.562 C28.263,58.557 29.479,58.956 30.472,58.452 C31.47,57.948 31.865,56.741 31.365,55.745 L4.163,2.086 C3.809,1.383 3.098,0.978 2.36,0.978 C2.053,0.978 1.742,1.049 1.449,1.196 L1.449,1.196 Z"></path>
        <path id="path-47" d="M1.19,0.941 C0.192,1.444 -0.203,2.656 0.297,3.647 L18.661,39.869 C19.161,40.865 20.376,41.259 21.37,40.759 C22.367,40.256 22.767,39.044 22.263,38.053 L3.903,1.831 C3.546,1.13 2.834,0.725 2.096,0.725 C1.79,0.725 1.481,0.795 1.19,0.941 L1.19,0.941 Z"></path>
        <path id="path-49" d="M1.336,1.196 C0.343,1.7 -0.057,2.913 0.448,3.903 L27.912,58.085 C28.417,59.081 29.632,59.479 30.626,58.976 C31.619,58.472 32.018,57.264 31.518,56.269 L4.05,2.086 C3.696,1.383 2.986,0.978 2.247,0.978 C1.94,0.978 1.629,1.049 1.336,1.196 L1.336,1.196 Z"></path>
    </defs>
    <g id="Page-1" stroke="none" stroke-width="1" fill="none" fill-rule="evenodd">
        <g id="Mobile-Home-page-unlog" transform="translate(-141.000000, -195.000000)">
            <g id="Page-1" transform="translate(141.000000, 194.000000)">
                <g id="Group-3" transform="translate(161.000000, 149.022000)">
                    <mask id="mask-2" fill="white">
                        <use xlink:href="#path-1"></use>
                    </mask>
                    <g id="Clip-2"></g>
                    <path d="M-4.402,76.427 L75.537,76.427 L75.537,-4.261 L-4.402,-4.261 L-4.402,76.427 Z" id="Fill-1" fill="#FFFFFC" mask="url(#mask-2)"></path>
                </g>
                <g id="Group-6" transform="translate(127.000000, 149.022000)">
                    <mask id="mask-4" fill="white">
                        <use xlink:href="#path-3"></use>
                    </mask>
                    <g id="Clip-5"></g>
                    <path d="M-4.233,76.427 L69.04,76.427 L69.04,-4.261 L-4.233,-4.261 L-4.233,76.427 Z" id="Fill-4" fill="#FFFFFC" mask="url(#mask-4)"></path>
                </g>
                <g id="Group-9" transform="translate(188.000000, 160.022000)">
                    <mask id="mask-6" fill="white">
                        <use xlink:href="#path-5"></use>
                    </mask>
                    <g id="Clip-8"></g>
                    <path d="M-4.371,65.427 L38.619,65.427 L38.619,-4.306 L-4.371,-4.306 L-4.371,65.427 Z" id="Fill-7" fill="#FFFFFC" mask="url(#mask-6)"></path>
                </g>
                <g id="Group-12" transform="translate(160.000000, 149.022000)">
                    <mask id="mask-8" fill="white">
                        <use xlink:href="#path-7"></use>
                    </mask>
                    <g id="Clip-11"></g>
                    <path d="M-4.833,76.428 L43.858,76.428 L43.858,-4.26 L-4.833,-4.26 L-4.833,76.428 Z" id="Fill-10" fill="#FFFFFC" mask="url(#mask-8)"></path>
                </g>
                <g id="Group-15" transform="translate(90.000000, 94.022000)">
                    <mask id="mask-10" fill="white">
                        <use xlink:href="#path-9"></use>
                    </mask>
                    <g id="Clip-14"></g>
                    <path d="M-4.964,187.378 L186.896,187.378 L186.896,-4.04 L-4.964,-4.04 L-4.964,187.378 Z" id="Fill-13" fill="#FFFFFC" mask="url(#mask-10)"></path>
                </g>
                <g id="Group-52" transform="translate(24.000000, 374.022000)" fill="#FFFFFF">
                    <path d="M17.5377,0.8129 C17.5377,0.8839 17.5307,0.9259 17.5167,0.9399 L17.5167,17.1499 C17.5167,17.2339 17.4847,17.3079 17.4207,17.3719 C17.3577,17.4349 17.2837,17.4669 17.1987,17.4669 C17.1137,17.4669 17.0427,17.4349 16.9867,17.3719 C16.9297,17.3079 16.9017,17.2339 16.9017,17.1499 L16.9017,1.8509 L9.5917,12.0849 C9.6477,12.1839 9.7747,12.3679 9.9737,12.6359 C10.1707,12.9049 10.4007,13.2189 10.6617,13.5799 C10.9227,13.9389 11.2027,14.3139 11.4987,14.7029 C11.7957,15.0909 12.0637,15.4589 12.3037,15.8039 C12.5437,16.1499 12.7457,16.4429 12.9077,16.6829 C13.0697,16.9229 13.1517,17.0719 13.1517,17.1279 C13.1517,17.2269 13.1157,17.3079 13.0457,17.3719 C12.9747,17.4349 12.8967,17.4669 12.8127,17.4669 C12.6997,17.4669 12.6147,17.4249 12.5587,17.3399 L0.9047,1.1099 C0.8627,1.0529 0.8407,0.9829 0.8407,0.8979 C0.8407,0.8129 0.8687,0.7389 0.9227,0.6749 C0.9767,0.6119 1.0527,0.5809 1.1477,0.5809 C1.2697,0.5809 1.3587,0.6289 1.4127,0.7279 L9.1887,11.5349 L16.9437,0.6439 C17.0007,0.5589 17.0787,0.5159 17.1777,0.5159 C17.2617,0.5159 17.3437,0.5449 17.4207,0.6009 C17.4987,0.6579 17.5377,0.7279 17.5377,0.8129 M10.5667,17.1499 C10.5667,17.2339 10.5307,17.3079 10.4607,17.3719 C10.3897,17.4349 10.3117,17.4669 10.2277,17.4669 C10.1147,17.4669 10.0297,17.4249 9.9737,17.3399 L1.4557,5.3899 L1.4557,17.0429 C1.4557,17.1419 1.4207,17.2199 1.3527,17.2769 C1.2847,17.3339 1.2087,17.3619 1.1267,17.3619 C1.0447,17.3619 0.9697,17.3299 0.9017,17.2659 C0.8327,17.2029 0.7987,17.1279 0.7987,17.0429 L0.7987,4.4159 C0.7987,4.3169 0.8257,4.2239 0.8807,4.1399 C0.9347,4.0549 1.0167,4.0119 1.1257,4.0119 C1.2347,4.0119 1.3157,4.0619 1.3707,4.1609 C1.4697,4.3019 1.6777,4.5879 1.9957,5.0189 C2.3137,5.4499 2.6947,5.9759 3.1397,6.5969 C3.5847,7.2189 4.0797,7.9049 4.6227,8.6529 C5.1667,9.4019 5.7147,10.1609 6.2657,10.9299 C6.8157,11.7009 7.3497,12.4499 7.8647,13.1759 C8.3807,13.9049 8.8397,14.5539 9.2427,15.1259 C9.6447,15.6979 9.9657,16.1669 10.2057,16.5349 C10.4467,16.9029 10.5667,17.1069 10.5667,17.1499" id="Fill-16"></path>
                    <path d="M34.6519,17.1498 C34.6519,17.2338 34.6199,17.3078 34.5559,17.3718 C34.4929,17.4348 34.4189,17.4668 34.3339,17.4668 C34.1649,17.4668 34.0589,17.3968 34.0159,17.2548 L27.8499,1.7028 L27.1509,3.5038 C27.2069,3.6178 27.3279,3.8998 27.5109,4.3518 C27.6949,4.8038 27.9209,5.3578 28.1889,6.0148 C28.4579,6.6708 28.7469,7.3998 29.0579,8.1978 C29.3689,8.9958 29.6869,9.8038 30.0109,10.6238 C30.3369,11.4428 30.6509,12.2408 30.9539,13.0178 C31.2579,13.7948 31.5269,14.4868 31.7589,15.0938 C31.9929,15.7018 32.1799,16.1928 32.3209,16.5668 C32.4619,16.9408 32.5329,17.1348 32.5329,17.1498 C32.5329,17.3048 32.4619,17.4038 32.3209,17.4458 C32.2929,17.4458 32.2719,17.4498 32.2569,17.4568 C32.2429,17.4638 32.2219,17.4668 32.1939,17.4668 C32.0519,17.4668 31.9539,17.3968 31.8969,17.2548 L26.8119,4.4158 L21.8749,17.2548 C21.8189,17.3968 21.7129,17.4668 21.5569,17.4668 C21.5289,17.4668 21.5109,17.4638 21.5049,17.4568 C21.4969,17.4498 21.4799,17.4458 21.4509,17.4458 C21.3099,17.4038 21.2389,17.2968 21.2389,17.1288 C21.2389,17.1148 21.3239,16.8808 21.4939,16.4288 C21.6629,15.9768 21.8859,15.3908 22.1609,14.6708 C22.4369,13.9498 22.7549,13.1238 23.1149,12.1908 C23.4749,11.2588 23.8419,10.3018 24.2159,9.3208 C24.5899,8.3378 24.9649,7.3678 25.3389,6.4068 C25.7139,5.4468 26.0519,4.5668 26.3569,3.7688 C26.6599,2.9708 26.9179,2.2998 27.1299,1.7558 C27.3419,1.2118 27.4759,0.8628 27.5319,0.7078 C27.5889,0.5808 27.6949,0.5158 27.8499,0.5158 C28.0059,0.5158 28.1049,0.5808 28.1469,0.7078 C28.2029,0.8628 28.3409,1.2118 28.5599,1.7558 C28.7789,2.2998 29.0439,2.9708 29.3549,3.7688 C29.6649,4.5668 30.0149,5.4468 30.4029,6.4068 C30.7919,7.3678 31.1799,8.3378 31.5689,9.3208 C31.9569,10.3018 32.3389,11.2588 32.7129,12.1908 C33.0869,13.1238 33.4159,13.9538 33.6979,14.6808 C33.9809,15.4088 34.2099,15.9988 34.3869,16.4508 C34.5639,16.9028 34.6519,17.1348 34.6519,17.1498" id="Fill-18"></path>
                    <path d="M48.461,17.1703 C48.461,17.2553 48.422,17.3263 48.344,17.3823 C48.267,17.4393 48.192,17.4673 48.122,17.4673 C48.008,17.4673 47.924,17.4253 47.868,17.3403 L42.168,9.3733 L39.032,12.5093 L39.032,17.0013 C39.032,17.0853 38.998,17.1593 38.929,17.2233 C38.861,17.2873 38.786,17.3183 38.704,17.3183 C38.622,17.3183 38.546,17.2903 38.478,17.2333 C38.409,17.1783 38.375,17.1003 38.375,17.0013 L38.375,0.9403 C38.375,0.8413 38.409,0.7643 38.478,0.7073 C38.546,0.6503 38.622,0.6223 38.704,0.6223 C38.786,0.6223 38.861,0.6533 38.929,0.7183 C38.998,0.7813 39.032,0.8563 39.032,0.9403 L39.032,8.7373 L47.147,0.6013 C47.218,0.5303 47.288,0.4953 47.359,0.4953 C47.444,0.4953 47.521,0.5343 47.592,0.6113 C47.663,0.6903 47.698,0.7643 47.698,0.8343 C47.698,0.9193 47.663,0.9963 47.592,1.0673 L39.032,9.6493 L39.032,11.5983 C39.088,11.5413 39.202,11.4253 39.371,11.2483 C39.541,11.0713 39.731,10.8703 39.943,10.6453 C40.155,10.4183 40.384,10.1863 40.632,9.9453 C40.878,9.7053 41.108,9.4833 41.32,9.2773 C41.532,9.0733 41.715,8.9033 41.871,8.7693 C42.026,8.6353 42.126,8.5673 42.168,8.5673 C42.295,8.5673 42.394,8.6103 42.464,8.6943 C42.549,8.8223 42.757,9.1153 43.089,9.5743 C43.421,10.0333 43.81,10.5663 44.255,11.1743 C44.7,11.7813 45.169,12.4243 45.664,13.1023 C46.158,13.7803 46.614,14.4123 47.031,14.9983 C47.447,15.5853 47.79,16.0793 48.058,16.4823 C48.326,16.8843 48.461,17.1143 48.461,17.1703" id="Fill-20"></path>
                    <path d="M62.9747,17.1068 C62.9747,17.1918 62.9467,17.2728 62.8897,17.3508 C62.8327,17.4278 62.7557,17.4668 62.6567,17.4668 L52.2647,17.4668 C52.1617,17.4668 52.0787,17.4318 52.0127,17.3618 C51.9467,17.2908 51.9137,17.2068 51.9137,17.1068 L51.9137,0.8348 C51.9137,0.7358 51.9507,0.6578 52.0237,0.6008 C52.0967,0.5448 52.1767,0.5158 52.2647,0.5158 L62.6567,0.5158 C62.7417,0.5158 62.8157,0.5488 62.8797,0.6148 C62.9427,0.6808 62.9747,0.7568 62.9747,0.8448 C62.9747,0.9328 62.9427,1.0088 62.8797,1.0748 C62.8157,1.1398 62.7417,1.1728 62.6567,1.1728 L52.5717,1.1728 L52.5717,7.7198 L60.4327,7.7198 C60.5167,7.7198 60.5907,7.7528 60.6547,7.8188 C60.7177,7.8848 60.7497,7.9608 60.7497,8.0488 C60.7497,8.1368 60.7177,8.2128 60.6547,8.2788 C60.5907,8.3438 60.5167,8.3778 60.4327,8.3778 L52.6137,8.3778 L52.5927,9.8388 L60.5167,9.8388 C60.7427,9.8388 60.8557,9.9488 60.8557,10.1678 C60.8557,10.2498 60.8207,10.3258 60.7497,10.3938 C60.6787,10.4618 60.6017,10.4968 60.5167,10.4968 L52.5717,10.4968 L52.5717,16.7468 L62.6567,16.7468 C62.7417,16.7468 62.8157,16.7858 62.8797,16.8638 C62.9427,16.9408 62.9747,17.0218 62.9747,17.1068" id="Fill-22"></path>
                    <path d="M85.3707,17.1498 C85.3707,17.2338 85.3387,17.3078 85.2747,17.3718 C85.2117,17.4348 85.1377,17.4668 85.0527,17.4668 C84.8837,17.4668 84.7777,17.3968 84.7347,17.2548 L78.5687,1.7028 L77.8697,3.5038 C77.9257,3.6178 78.0467,3.8998 78.2297,4.3518 C78.4137,4.8038 78.6397,5.3578 78.9077,6.0148 C79.1767,6.6708 79.4657,7.3998 79.7767,8.1978 C80.0877,8.9958 80.4057,9.8038 80.7297,10.6238 C81.0557,11.4428 81.3697,12.2408 81.6727,13.0178 C81.9767,13.7948 82.2457,14.4868 82.4777,15.0938 C82.7117,15.7018 82.8987,16.1928 83.0397,16.5668 C83.1807,16.9408 83.2517,17.1348 83.2517,17.1498 C83.2517,17.3048 83.1807,17.4038 83.0397,17.4458 C83.0117,17.4458 82.9907,17.4498 82.9757,17.4568 C82.9617,17.4638 82.9407,17.4668 82.9127,17.4668 C82.7707,17.4668 82.6727,17.3968 82.6157,17.2548 L77.5307,4.4158 L72.5937,17.2548 C72.5377,17.3968 72.4317,17.4668 72.2757,17.4668 C72.2477,17.4668 72.2297,17.4638 72.2237,17.4568 C72.2157,17.4498 72.1987,17.4458 72.1697,17.4458 C72.0287,17.4038 71.9577,17.2968 71.9577,17.1288 C71.9577,17.1148 72.0427,16.8808 72.2127,16.4288 C72.3817,15.9768 72.6047,15.3908 72.8797,14.6708 C73.1557,13.9498 73.4737,13.1238 73.8337,12.1908 C74.1937,11.2588 74.5607,10.3018 74.9347,9.3208 C75.3087,8.3378 75.6837,7.3678 76.0577,6.4068 C76.4327,5.4468 76.7707,4.5668 77.0757,3.7688 C77.3787,2.9708 77.6367,2.2998 77.8487,1.7558 C78.0607,1.2118 78.1947,0.8628 78.2507,0.7078 C78.3077,0.5808 78.4137,0.5158 78.5687,0.5158 C78.7247,0.5158 78.8237,0.5808 78.8657,0.7078 C78.9217,0.8628 79.0597,1.2118 79.2787,1.7558 C79.4977,2.2998 79.7627,2.9708 80.0737,3.7688 C80.3837,4.5668 80.7337,5.4468 81.1217,6.4068 C81.5107,7.3678 81.8987,8.3378 82.2877,9.3208 C82.6757,10.3018 83.0577,11.2588 83.4317,12.1908 C83.8057,13.1238 84.1347,13.9538 84.4167,14.6808 C84.6997,15.4088 84.9287,15.9988 85.1057,16.4508 C85.2827,16.9028 85.3707,17.1348 85.3707,17.1498" id="Fill-24"></path>
                    <path d="M107.1524,12.9057 C107.1524,13.6707 106.9864,14.3387 106.6554,14.9107 C106.3234,15.4837 105.8864,15.9577 105.3434,16.3327 C104.8004,16.7077 104.1944,16.9897 103.5254,17.1807 C102.8554,17.3717 102.1814,17.4677 101.5054,17.4677 C100.3064,17.4677 99.1714,17.2337 98.1004,16.7677 C97.0284,16.3017 96.0694,15.6667 95.2234,14.8607 C95.1384,14.7757 95.0964,14.6987 95.0964,14.6287 C95.0964,14.5437 95.1314,14.4627 95.2024,14.3847 C95.2724,14.3067 95.3574,14.2677 95.4564,14.2677 C95.5274,14.2677 95.5974,14.3027 95.6684,14.3737 C96.5444,15.1087 97.4514,15.6977 98.3904,16.1427 C99.3304,16.5887 100.3854,16.8097 101.5584,16.8097 C102.1524,16.8097 102.7414,16.7287 103.3274,16.5667 C103.9134,16.4047 104.4434,16.1577 104.9174,15.8247 C105.3904,15.4937 105.7714,15.0807 106.0614,14.5857 C106.3504,14.0917 106.4954,13.5117 106.4954,12.8477 C106.4954,12.3117 106.3684,11.8487 106.1134,11.4607 C105.8604,11.0717 105.5274,10.7397 105.1184,10.4647 C104.7084,10.1887 104.2384,9.9597 103.7094,9.7757 C103.1794,9.5927 102.6464,9.4327 102.1094,9.2997 C101.5724,9.1657 101.0464,9.0487 100.5304,8.9497 C100.0154,8.8507 99.5674,8.7517 99.1854,8.6527 C98.7194,8.5257 98.2704,8.3527 97.8394,8.1347 C97.4084,7.9147 97.0314,7.6427 96.7064,7.3177 C96.3814,6.9937 96.1234,6.6157 95.9334,6.1837 C95.7424,5.7537 95.6474,5.2697 95.6474,4.7327 C95.6474,4.0117 95.8134,3.3867 96.1454,2.8577 C96.4764,2.3287 96.9074,1.8897 97.4374,1.5447 C97.9664,1.1977 98.5534,0.9367 99.1954,0.7597 C99.8384,0.5837 100.4704,0.4957 101.0924,0.4957 C101.4874,0.4957 101.9364,0.5367 102.4384,0.6187 C102.9394,0.7007 103.4404,0.8207 103.9424,0.9787 C104.4434,1.1367 104.9134,1.3287 105.3514,1.5547 C105.7894,1.7807 106.1564,2.0357 106.4534,2.3177 C106.4954,2.3597 106.5274,2.3947 106.5484,2.4237 C106.5694,2.4517 106.5804,2.5017 106.5804,2.5717 C106.5804,2.6567 106.5454,2.7347 106.4744,2.8047 C106.4034,2.8757 106.3254,2.9107 106.2414,2.9107 C106.2124,2.9107 106.1594,2.8897 106.0824,2.8467 C106.0044,2.8047 105.9194,2.7517 105.8284,2.6877 C105.7354,2.6247 105.6514,2.5687 105.5734,2.5187 C105.4964,2.4687 105.4364,2.4307 105.3934,2.4017 C104.7574,2.0207 104.0804,1.7177 103.3594,1.4917 C102.6394,1.2647 101.8974,1.1517 101.1344,1.1517 C100.5974,1.1517 100.0474,1.2187 99.4824,1.3537 C98.9174,1.4877 98.3984,1.6967 97.9244,1.9797 C97.4514,2.2617 97.0634,2.6267 96.7594,3.0727 C96.4554,3.5177 96.3034,4.0517 96.3034,4.6747 C96.3034,5.3527 96.4584,5.9087 96.7694,6.3397 C97.0794,6.7707 97.4874,7.1247 97.9954,7.4007 C98.5034,7.6767 99.0814,7.8987 99.7294,8.0687 C100.3784,8.2387 101.0444,8.4007 101.7284,8.5557 C102.4114,8.7127 103.0774,8.8827 103.7264,9.0657 C104.3744,9.2497 104.9524,9.5007 105.4604,9.8187 C105.9674,10.1367 106.3764,10.5407 106.6864,11.0287 C106.9974,11.5157 107.1524,12.1417 107.1524,12.9057" id="Fill-26"></path>
                    <path d="M126.4112,8.9916 C126.4112,7.9186 126.2062,6.9086 125.7972,5.9626 C125.3872,5.0156 124.8262,4.1856 124.1122,3.4716 C123.3992,2.7596 122.5692,2.1976 121.6222,1.7876 C120.6762,1.3786 119.6662,1.1736 118.5932,1.1736 C117.5192,1.1736 116.5092,1.3786 115.5632,1.7876 C114.6162,2.1976 113.7862,2.7596 113.0732,3.4716 C112.3602,4.1856 111.7982,5.0156 111.3892,5.9626 C110.9792,6.9086 110.7742,7.9186 110.7742,8.9916 C110.7742,10.0656 110.9792,11.0756 111.3892,12.0216 C111.7982,12.9686 112.3602,13.7986 113.0732,14.5116 C113.7862,15.2246 114.6162,15.7866 115.5632,16.1956 C116.5092,16.6056 117.5192,16.8096 118.5932,16.8096 C119.6662,16.8096 120.6762,16.6056 121.6222,16.1956 C122.5692,15.7866 123.3992,15.2246 124.1122,14.5116 C124.8262,13.7986 125.3872,12.9686 125.7972,12.0216 C126.2062,11.0756 126.4112,10.0656 126.4112,8.9916 M127.0682,8.9916 C127.0682,10.1646 126.8462,11.2656 126.4012,12.2976 C125.9552,13.3286 125.3522,14.2246 124.5892,14.9876 C123.8262,15.7516 122.9292,16.3546 121.8982,16.8006 C120.8672,17.2446 119.7652,17.4676 118.5932,17.4676 C117.4202,17.4676 116.3182,17.2446 115.2872,16.8006 C114.2562,16.3546 113.3592,15.7516 112.5972,14.9876 C111.8332,14.2246 111.2302,13.3286 110.7852,12.2976 C110.3402,11.2656 110.1172,10.1646 110.1172,8.9916 C110.1172,7.8196 110.3402,6.7186 110.7852,5.6866 C111.2302,4.6556 111.8332,3.7586 112.5972,2.9956 C113.3592,2.2326 114.2562,1.6296 115.2872,1.1836 C116.3182,0.7386 117.4202,0.5156 118.5932,0.5156 C119.7652,0.5156 120.8672,0.7386 121.8982,1.1836 C122.9292,1.6296 123.8262,2.2326 124.5892,2.9956 C125.3522,3.7586 125.9552,4.6556 126.4012,5.6866 C126.8462,6.7186 127.0682,7.8196 127.0682,8.9916" id="Fill-28"></path>
                    <path d="M140.6886,13.2719 C140.6886,13.8369 140.5826,14.3739 140.3696,14.8819 C140.1576,15.3909 139.8636,15.8349 139.4886,16.2169 C139.1136,16.5979 138.6746,16.9029 138.1726,17.1279 C137.6696,17.3539 137.1356,17.4669 136.5696,17.4669 L134.9346,17.4669 C134.3536,17.4669 133.8086,17.3579 133.2986,17.1389 C132.7896,16.9199 132.3436,16.6199 131.9616,16.2389 C131.5796,15.8569 131.2776,15.4119 131.0596,14.9039 C130.8396,14.3949 130.7306,13.8509 130.7306,13.2719 L130.7306,0.8339 C130.7306,0.7499 130.7626,0.6749 130.8286,0.6119 C130.8936,0.5479 130.9706,0.5159 131.0586,0.5159 C131.1456,0.5159 131.2226,0.5479 131.2886,0.6119 C131.3536,0.6749 131.3866,0.7499 131.3866,0.8339 L131.3866,13.2549 C131.3866,13.7349 131.4816,14.1899 131.6716,14.6209 C131.8616,15.0509 132.1196,15.4279 132.4436,15.7519 C132.7676,16.0769 133.1446,16.3349 133.5746,16.5249 C134.0036,16.7149 134.4586,16.8099 134.9376,16.8099 L136.5656,16.8099 C137.0436,16.8099 137.4946,16.7149 137.9176,16.5249 C138.3406,16.3349 138.7076,16.0769 139.0166,15.7519 C139.3266,15.4279 139.5736,15.0509 139.7566,14.6209 C139.9396,14.1899 140.0316,13.7349 140.0316,13.2549 L140.0316,0.8339 C140.0316,0.7499 140.0646,0.6749 140.1296,0.6119 C140.1956,0.5479 140.2716,0.5159 140.3596,0.5159 C140.4476,0.5159 140.5236,0.5479 140.5896,0.6119 C140.6556,0.6749 140.6886,0.7499 140.6886,0.8339 L140.6886,13.2719 Z" id="Fill-30"></path>
                    <path d="M156.6929,17.1283 C156.6929,17.3543 156.5799,17.4673 156.3539,17.4673 C156.2409,17.4673 156.1559,17.4253 156.0999,17.3403 L144.4459,1.1313 C144.4179,1.1033 144.4039,1.0393 144.4039,0.9403 C144.4039,0.7143 144.5059,0.6013 144.7099,0.6013 C144.7919,0.6013 144.8729,0.6503 144.9549,0.7493 L156.0369,16.1323 L156.0369,0.8343 C156.0369,0.7493 156.0679,0.6753 156.1309,0.6113 C156.1949,0.5483 156.2689,0.5163 156.3539,0.5163 C156.4389,0.5163 156.5129,0.5483 156.5769,0.6113 C156.6399,0.6753 156.6719,0.7493 156.6719,0.8343 L156.6929,17.1283 Z M154.1089,17.1493 C154.1089,17.2333 154.0729,17.3083 154.0029,17.3713 C153.9319,17.4353 153.8539,17.4673 153.7689,17.4673 C153.6559,17.4673 153.5709,17.4253 153.5149,17.3403 L145.0189,5.4103 L145.0189,17.1283 C145.0189,17.2133 144.9839,17.2903 144.9159,17.3613 C144.8469,17.4323 144.7719,17.4673 144.6899,17.4673 C144.4709,17.4673 144.3619,17.3543 144.3619,17.1283 L144.3619,4.3523 C144.3619,4.2803 144.3959,4.2103 144.4639,4.1403 C144.5319,4.0683 144.5999,4.0333 144.6679,4.0333 C144.7639,4.0333 144.8519,4.0833 144.9339,4.1823 C145.0319,4.3233 145.2369,4.6093 145.5479,5.0403 C145.8589,5.4713 146.2399,5.9973 146.6929,6.6183 C147.1439,7.2403 147.6389,7.9293 148.1749,8.6853 C148.7129,9.4413 149.2559,10.1993 149.8069,10.9623 C150.3579,11.7253 150.8909,12.4703 151.4069,13.1973 C151.9219,13.9253 152.3809,14.5743 152.7839,15.1473 C153.1869,15.7193 153.5079,16.1853 153.7479,16.5453 C153.9879,16.9053 154.1089,17.1073 154.1089,17.1493 L154.1089,17.1493 Z" id="Fill-32"></path>
                    <path d="M174.3424,8.9603 C174.3424,7.8853 174.1384,6.8703 173.7284,5.9153 C173.3184,4.9603 172.7644,4.1333 172.0654,3.4333 C171.3654,2.7323 170.5394,2.1783 169.5854,1.7683 C168.6324,1.3573 167.6184,1.1513 166.5454,1.1513 C166.1354,1.1513 165.7264,1.1553 165.3174,1.1623 C164.9064,1.1703 164.4964,1.1733 164.0874,1.1733 L164.0874,16.7683 L165.3174,16.7683 C165.7264,16.7683 166.1354,16.7613 166.5454,16.7463 C167.6184,16.7323 168.6284,16.5213 169.5754,16.1103 C170.5214,15.7003 171.3484,15.1453 172.0544,14.4443 C172.7604,13.7443 173.3184,12.9243 173.7284,11.9833 C174.1384,11.0433 174.3424,10.0353 174.3424,8.9603 M174.9994,8.9713 C174.9994,10.1433 174.7774,11.2413 174.3324,12.2653 C173.8874,13.2893 173.2834,14.1833 172.5204,14.9453 C171.7574,15.7083 170.8614,16.3093 169.8294,16.7463 C168.7984,17.1853 167.7034,17.4103 166.5454,17.4253 L163.7704,17.4453 C163.6704,17.4453 163.5894,17.4103 163.5264,17.3403 C163.4624,17.2693 163.4304,17.1843 163.4304,17.0853 L163.4304,1.1733 L161.9684,1.1733 L161.9684,17.1283 C161.9684,17.3543 161.8554,17.4673 161.6294,17.4673 C161.5304,17.4673 161.4524,17.4323 161.3974,17.3613 C161.3404,17.2903 161.3124,17.2133 161.3124,17.1283 L161.3124,0.8763 C161.3124,0.7773 161.3434,0.6923 161.4064,0.6223 C161.4714,0.5523 161.5524,0.5163 161.6514,0.5163 L166.5454,0.5163 C167.7034,0.5163 168.7984,0.7383 169.8294,1.1843 C170.8614,1.6293 171.7574,2.2323 172.5204,2.9953 C173.2834,3.7583 173.8874,4.6553 174.3324,5.6873 C174.7774,6.7183 174.9994,7.8133 174.9994,8.9713" id="Fill-34"></path>
                    <path d="M198.731,17.1498 C198.731,17.2338 198.7,17.3078 198.635,17.3718 C198.572,17.4348 198.498,17.4668 198.414,17.4668 C198.244,17.4668 198.138,17.3968 198.095,17.2548 L191.929,1.7028 L191.23,3.5038 C191.287,3.6178 191.407,3.8998 191.59,4.3518 C191.774,4.8038 192.001,5.3578 192.268,6.0148 C192.537,6.6708 192.827,7.3998 193.137,8.1978 C193.448,8.9958 193.766,9.8038 194.09,10.6238 C194.416,11.4428 194.73,12.2408 195.034,13.0178 C195.337,13.7948 195.606,14.4868 195.838,15.0938 C196.072,15.7018 196.259,16.1928 196.4,16.5668 C196.542,16.9408 196.612,17.1348 196.612,17.1498 C196.612,17.3048 196.542,17.4038 196.4,17.4458 C196.372,17.4458 196.351,17.4498 196.336,17.4568 C196.323,17.4638 196.301,17.4668 196.273,17.4668 C196.131,17.4668 196.033,17.3968 195.976,17.2548 L190.891,4.4158 L185.955,17.2548 C185.898,17.3968 185.792,17.4668 185.636,17.4668 C185.608,17.4668 185.59,17.4638 185.584,17.4568 C185.577,17.4498 185.559,17.4458 185.531,17.4458 C185.389,17.4038 185.319,17.2968 185.319,17.1288 C185.319,17.1148 185.404,16.8808 185.573,16.4288 C185.743,15.9768 185.965,15.3908 186.241,14.6708 C186.516,13.9498 186.834,13.1238 187.194,12.1908 C187.554,11.2588 187.921,10.3018 188.295,9.3208 C188.669,8.3378 189.044,7.3678 189.418,6.4068 C189.793,5.4468 190.131,4.5668 190.436,3.7688 C190.74,2.9708 190.998,2.2998 191.21,1.7558 C191.421,1.2118 191.555,0.8628 191.612,0.7078 C191.669,0.5808 191.774,0.5158 191.929,0.5158 C192.085,0.5158 192.184,0.5808 192.226,0.7078 C192.283,0.8628 192.42,1.2118 192.639,1.7558 C192.858,2.2998 193.123,2.9708 193.434,3.7688 C193.745,4.5668 194.094,5.4468 194.483,6.4068 C194.871,7.3678 195.259,8.3378 195.648,9.3208 C196.037,10.3018 196.418,11.2588 196.793,12.1908 C197.167,13.1238 197.495,13.9538 197.778,14.6808 C198.06,15.4088 198.29,15.9988 198.466,16.4508 C198.643,16.9028 198.731,17.1348 198.731,17.1498" id="Fill-36"></path>
                    <path d="M214.3795,17.1283 C214.3795,17.3543 214.2665,17.4673 214.0405,17.4673 C213.9275,17.4673 213.8425,17.4253 213.7865,17.3403 L202.1325,1.1313 C202.1045,1.1033 202.0905,1.0393 202.0905,0.9403 C202.0905,0.7143 202.1915,0.6013 202.3965,0.6013 C202.4785,0.6013 202.5595,0.6503 202.6415,0.7493 L213.7235,16.1323 L213.7235,0.8343 C213.7235,0.7493 213.7545,0.6753 213.8175,0.6113 C213.8815,0.5483 213.9555,0.5163 214.0405,0.5163 C214.1255,0.5163 214.1995,0.5483 214.2635,0.6113 C214.3265,0.6753 214.3585,0.7493 214.3585,0.8343 L214.3795,17.1283 Z M211.7945,17.1493 C211.7945,17.2333 211.7595,17.3083 211.6895,17.3713 C211.6175,17.4353 211.5405,17.4673 211.4555,17.4673 C211.3425,17.4673 211.2575,17.4253 211.2015,17.3403 L202.7045,5.4103 L202.7045,17.1283 C202.7045,17.2133 202.6705,17.2903 202.6025,17.3613 C202.5335,17.4323 202.4585,17.4673 202.3765,17.4673 C202.1565,17.4673 202.0485,17.3543 202.0485,17.1283 L202.0485,4.3523 C202.0485,4.2803 202.0815,4.2103 202.1505,4.1403 C202.2185,4.0683 202.2865,4.0333 202.3545,4.0333 C202.4495,4.0333 202.5385,4.0833 202.6195,4.1823 C202.7185,4.3233 202.9235,4.6093 203.2345,5.0403 C203.5455,5.4713 203.9265,5.9973 204.3785,6.6183 C204.8305,7.2403 205.3245,7.9293 205.8615,8.6853 C206.3995,9.4413 206.9425,10.1993 207.4935,10.9623 C208.0445,11.7253 208.5775,12.4703 209.0935,13.1973 C209.6085,13.9253 210.0675,14.5743 210.4705,15.1473 C210.8725,15.7193 211.1935,16.1853 211.4345,16.5453 C211.6745,16.9053 211.7945,17.1073 211.7945,17.1493 L211.7945,17.1493 Z" id="Fill-38"></path>
                    <path d="M232.0289,8.9603 C232.0289,7.8853 231.8249,6.8703 231.4149,5.9153 C231.0049,4.9603 230.4509,4.1333 229.7519,3.4333 C229.0519,2.7323 228.2259,2.1783 227.2719,1.7683 C226.3189,1.3573 225.3049,1.1513 224.2319,1.1513 C223.8219,1.1513 223.4129,1.1553 223.0039,1.1623 C222.5929,1.1703 222.1829,1.1733 221.7739,1.1733 L221.7739,16.7683 L223.0039,16.7683 C223.4129,16.7683 223.8219,16.7613 224.2319,16.7463 C225.3049,16.7323 226.3149,16.5213 227.2619,16.1103 C228.2079,15.7003 229.0349,15.1453 229.7409,14.4443 C230.4469,13.7443 231.0049,12.9243 231.4149,11.9833 C231.8249,11.0433 232.0289,10.0353 232.0289,8.9603 M232.6859,8.9713 C232.6859,10.1433 232.4639,11.2413 232.0189,12.2653 C231.5739,13.2893 230.9699,14.1833 230.2069,14.9453 C229.4439,15.7083 228.5479,16.3093 227.5159,16.7463 C226.4849,17.1853 225.3899,17.4103 224.2319,17.4253 L221.4569,17.4453 C221.3569,17.4453 221.2759,17.4103 221.2129,17.3403 C221.1489,17.2693 221.1169,17.1843 221.1169,17.0853 L221.1169,1.1733 L219.6549,1.1733 L219.6549,17.1283 C219.6549,17.3543 219.5419,17.4673 219.3159,17.4673 C219.2169,17.4673 219.1389,17.4323 219.0839,17.3613 C219.0269,17.2903 218.9989,17.2133 218.9989,17.1283 L218.9989,0.8763 C218.9989,0.7773 219.0299,0.6923 219.0929,0.6223 C219.1579,0.5523 219.2389,0.5163 219.3379,0.5163 L224.2319,0.5163 C225.3899,0.5163 226.4849,0.7383 227.5159,1.1843 C228.5479,1.6293 229.4439,2.2323 230.2069,2.9953 C230.9699,3.7583 231.5739,4.6553 232.0189,5.6873 C232.4639,6.7183 232.6859,7.8133 232.6859,8.9713" id="Fill-40"></path>
                    <path d="M254.7017,12.9057 C254.7017,13.6707 254.5357,14.3387 254.2047,14.9107 C253.8727,15.4837 253.4357,15.9577 252.8927,16.3327 C252.3497,16.7077 251.7437,16.9897 251.0737,17.1807 C250.4047,17.3717 249.7307,17.4677 249.0547,17.4677 C247.8557,17.4677 246.7207,17.2337 245.6487,16.7677 C244.5777,16.3017 243.6187,15.6667 242.7717,14.8607 C242.6867,14.7757 242.6447,14.6987 242.6447,14.6287 C242.6447,14.5437 242.6807,14.4627 242.7517,14.3847 C242.8217,14.3067 242.9067,14.2677 243.0057,14.2677 C243.0757,14.2677 243.1457,14.3027 243.2177,14.3737 C244.0937,15.1087 245.0007,15.6977 245.9397,16.1427 C246.8797,16.5887 247.9347,16.8097 249.1077,16.8097 C249.7007,16.8097 250.2907,16.7287 250.8767,16.5667 C251.4627,16.4047 251.9927,16.1577 252.4667,15.8247 C252.9387,15.4937 253.3207,15.0807 253.6097,14.5857 C253.8997,14.0917 254.0447,13.5117 254.0447,12.8477 C254.0447,12.3117 253.9177,11.8487 253.6627,11.4607 C253.4087,11.0717 253.0767,10.7397 252.6677,10.4647 C252.2577,10.1887 251.7877,9.9597 251.2587,9.7757 C250.7277,9.5927 250.1947,9.4327 249.6587,9.2997 C249.1217,9.1657 248.5957,9.0487 248.0797,8.9497 C247.5637,8.8507 247.1157,8.7517 246.7347,8.6527 C246.2677,8.5257 245.8197,8.3527 245.3887,8.1347 C244.9577,7.9147 244.5807,7.6427 244.2557,7.3177 C243.9307,6.9937 243.6727,6.6157 243.4817,6.1837 C243.2917,5.7537 243.1957,5.2697 243.1957,4.7327 C243.1957,4.0117 243.3617,3.3867 243.6937,2.8577 C244.0257,2.3287 244.4567,1.8897 244.9867,1.5447 C245.5157,1.1977 246.1017,0.9367 246.7447,0.7597 C247.3877,0.5837 248.0197,0.4957 248.6407,0.4957 C249.0367,0.4957 249.4847,0.5367 249.9867,0.6187 C250.4877,0.7007 250.9897,0.8207 251.4917,0.9787 C251.9927,1.1367 252.4627,1.3287 252.8997,1.5547 C253.3387,1.7807 253.7057,2.0357 254.0027,2.3177 C254.0447,2.3597 254.0767,2.3947 254.0977,2.4237 C254.1187,2.4517 254.1297,2.5017 254.1297,2.5717 C254.1297,2.6567 254.0947,2.7347 254.0227,2.8047 C253.9527,2.8757 253.8747,2.9107 253.7907,2.9107 C253.7617,2.9107 253.7087,2.8897 253.6317,2.8467 C253.5537,2.8047 253.4687,2.7517 253.3777,2.6877 C253.2847,2.6247 253.2007,2.5687 253.1227,2.5187 C253.0457,2.4687 252.9847,2.4307 252.9427,2.4017 C252.3067,2.0207 251.6297,1.7177 250.9087,1.4917 C250.1877,1.2647 249.4467,1.1517 248.6837,1.1517 C248.1467,1.1517 247.5967,1.2187 247.0307,1.3537 C246.4667,1.4877 245.9467,1.6967 245.4737,1.9797 C245.0007,2.2617 244.6117,2.6267 244.3077,3.0727 C244.0047,3.5177 243.8527,4.0517 243.8527,4.6747 C243.8527,5.3527 244.0077,5.9087 244.3177,6.3397 C244.6287,6.7707 245.0367,7.1247 245.5447,7.4007 C246.0527,7.6767 246.6307,7.8987 247.2787,8.0687 C247.9277,8.2387 248.5937,8.4007 249.2767,8.5557 C249.9607,8.7127 250.6267,8.8827 251.2747,9.0657 C251.9237,9.2497 252.5017,9.5007 253.0097,9.8187 C253.5167,10.1367 253.9257,10.5407 254.2357,11.0287 C254.5467,11.5157 254.7017,12.1417 254.7017,12.9057" id="Fill-42"></path>
                    <path d="M268.5816,9.8178 L268.5816,8.3778 L258.6856,8.3778 L258.6656,9.8178 L268.5816,9.8178 Z M269.2806,17.1288 C269.2806,17.2138 269.2456,17.2908 269.1746,17.3618 C269.1036,17.4318 269.0256,17.4668 268.9416,17.4668 C268.8426,17.4668 268.7576,17.4348 268.6866,17.3718 C268.6166,17.3078 268.5816,17.2268 268.5816,17.1288 L268.5816,10.4748 L258.6436,10.4748 L258.6436,17.1288 C258.6436,17.3538 258.5346,17.4668 258.3156,17.4668 C258.2136,17.4668 258.1326,17.4318 258.0746,17.3618 C258.0166,17.2908 257.9866,17.2138 257.9866,17.1288 L257.9866,0.8348 C257.9866,0.7498 258.0196,0.6748 258.0856,0.6118 C258.1506,0.5478 258.2276,0.5158 258.3156,0.5158 C258.4026,0.5158 258.4796,0.5478 258.5456,0.6118 C258.6106,0.6748 258.6436,0.7498 258.6436,0.8348 L258.6436,7.7628 L268.5816,7.7628 L268.5816,0.8348 C268.5816,0.7358 268.6196,0.6578 268.6976,0.6008 C268.7746,0.5458 268.8566,0.5158 268.9416,0.5158 C269.0256,0.5158 269.1036,0.5478 269.1746,0.6118 C269.2456,0.6748 269.2806,0.7498 269.2806,0.8348 L269.2806,17.1288 Z" id="Fill-44"></path>
                    <path d="M286.399,17.1498 C286.399,17.2338 286.368,17.3078 286.303,17.3718 C286.24,17.4348 286.166,17.4668 286.082,17.4668 C285.912,17.4668 285.806,17.3968 285.763,17.2548 L279.597,1.7028 L278.898,3.5038 C278.955,3.6178 279.075,3.8998 279.258,4.3518 C279.442,4.8038 279.669,5.3578 279.936,6.0148 C280.205,6.6708 280.495,7.3998 280.805,8.1978 C281.116,8.9958 281.434,9.8038 281.758,10.6238 C282.084,11.4428 282.398,12.2408 282.702,13.0178 C283.005,13.7948 283.274,14.4868 283.506,15.0938 C283.74,15.7018 283.927,16.1928 284.068,16.5668 C284.21,16.9408 284.28,17.1348 284.28,17.1498 C284.28,17.3048 284.21,17.4038 284.068,17.4458 C284.04,17.4458 284.019,17.4498 284.004,17.4568 C283.991,17.4638 283.969,17.4668 283.941,17.4668 C283.799,17.4668 283.701,17.3968 283.644,17.2548 L278.559,4.4158 L273.623,17.2548 C273.566,17.3968 273.46,17.4668 273.304,17.4668 C273.276,17.4668 273.258,17.4638 273.252,17.4568 C273.245,17.4498 273.227,17.4458 273.199,17.4458 C273.057,17.4038 272.987,17.2968 272.987,17.1288 C272.987,17.1148 273.072,16.8808 273.241,16.4288 C273.411,15.9768 273.633,15.3908 273.909,14.6708 C274.184,13.9498 274.502,13.1238 274.862,12.1908 C275.222,11.2588 275.589,10.3018 275.963,9.3208 C276.337,8.3378 276.712,7.3678 277.086,6.4068 C277.461,5.4468 277.799,4.5668 278.104,3.7688 C278.408,2.9708 278.666,2.2998 278.878,1.7558 C279.089,1.2118 279.223,0.8628 279.28,0.7078 C279.337,0.5808 279.442,0.5158 279.597,0.5158 C279.753,0.5158 279.852,0.5808 279.894,0.7078 C279.951,0.8628 280.088,1.2118 280.307,1.7558 C280.526,2.2998 280.791,2.9708 281.102,3.7688 C281.413,4.5668 281.762,5.4468 282.151,6.4068 C282.539,7.3678 282.927,8.3378 283.316,9.3208 C283.705,10.3018 284.086,11.2588 284.461,12.1908 C284.835,13.1238 285.163,13.9538 285.446,14.6808 C285.728,15.4088 285.958,15.9988 286.134,16.4508 C286.311,16.9028 286.399,17.1348 286.399,17.1498" id="Fill-46"></path>
                    <path d="M299.2818,4.2992 C299.2818,3.8622 299.1968,3.4542 299.0268,3.0732 C298.8578,2.6942 298.6278,2.3622 298.3388,2.0812 C298.0488,1.8002 297.7138,1.5782 297.3318,1.4162 C296.9508,1.2542 296.5408,1.1732 296.1028,1.1732 L292.3318,1.1732 L292.3318,7.5292 L296.1028,7.5292 C296.5408,7.5292 296.9538,7.4452 297.3428,7.2772 C297.7308,7.1082 298.0698,6.8752 298.3598,6.5792 C298.6488,6.2832 298.8758,5.9432 299.0378,5.5552 C299.1998,5.1682 299.2818,4.7492 299.2818,4.2992 M299.9378,4.2882 C299.9378,4.7822 299.8528,5.2522 299.6838,5.6962 C299.5138,6.1422 299.2818,6.5332 298.9848,6.8732 C298.6878,7.2122 298.3318,7.4942 297.9148,7.7202 C297.4978,7.9462 297.0428,8.0952 296.5488,8.1652 C296.4768,8.1802 296.4028,8.1872 296.3258,8.1872 L296.1028,8.1872 L292.4168,8.1872 L292.3948,9.6062 L296.2728,9.6062 C296.3998,9.6062 296.4988,9.6702 296.5688,9.7972 C296.6118,9.9102 296.7238,10.1642 296.9088,10.5602 C297.0918,10.9552 297.3068,11.4212 297.5538,11.9582 C297.8018,12.4952 298.0628,13.0602 298.3388,13.6532 C298.6138,14.2462 298.8688,14.7972 299.1008,15.3062 C299.3348,15.8152 299.5278,16.2412 299.6838,16.5882 C299.8398,16.9342 299.9178,17.1282 299.9178,17.1702 C299.9178,17.2702 299.8818,17.3442 299.8108,17.3932 C299.7398,17.4432 299.6628,17.4672 299.5778,17.4672 C299.4368,17.4672 299.3378,17.4032 299.2818,17.2772 L296.0608,10.2632 L292.3318,10.2632 L292.3318,17.0432 C292.3318,17.1422 292.2968,17.2202 292.2258,17.2772 C292.1548,17.3332 292.0778,17.3622 291.9928,17.3622 C291.9078,17.3622 291.8338,17.3292 291.7698,17.2662 C291.7068,17.2022 291.6748,17.1282 291.6748,17.0432 L291.6748,1.1732 L290.2978,1.1732 L290.2978,17.1502 C290.2978,17.2482 290.2618,17.3262 290.1918,17.3832 C290.1208,17.4392 290.0438,17.4672 289.9588,17.4672 C289.8738,17.4672 289.7998,17.4352 289.7358,17.3712 C289.6728,17.3082 289.6398,17.2342 289.6398,17.1502 L289.6398,0.8342 C289.6398,0.6222 289.7468,0.5162 289.9588,0.5162 L296.1028,0.5162 C296.6398,0.5162 297.1408,0.6112 297.6078,0.8022 C298.0738,0.9932 298.4788,1.2582 298.8258,1.5972 C299.1718,1.9362 299.4438,2.3352 299.6408,2.7942 C299.8398,3.2532 299.9378,3.7512 299.9378,4.2882" id="Fill-48"></path>
                    <path d="M314.6851,17.1068 C314.6851,17.1918 314.6571,17.2728 314.6001,17.3508 C314.5431,17.4278 314.4661,17.4668 314.3681,17.4668 L303.9751,17.4668 C303.8721,17.4668 303.7891,17.4318 303.7231,17.3618 C303.6581,17.2908 303.6241,17.2068 303.6241,17.1068 L303.6241,0.8348 C303.6241,0.7358 303.6621,0.6578 303.7341,0.6008 C303.8071,0.5448 303.8871,0.5158 303.9751,0.5158 L314.3681,0.5158 C314.4531,0.5158 314.5261,0.5488 314.5901,0.6148 C314.6541,0.6808 314.6851,0.7568 314.6851,0.8448 C314.6851,0.9328 314.6541,1.0088 314.5901,1.0748 C314.5261,1.1398 314.4531,1.1728 314.3681,1.1728 L304.2821,1.1728 L304.2821,7.7198 L312.1431,7.7198 C312.2271,7.7198 312.3011,7.7528 312.3651,7.8188 C312.4281,7.8848 312.4601,7.9608 312.4601,8.0488 C312.4601,8.1368 312.4281,8.2128 312.3651,8.2788 C312.3011,8.3438 312.2271,8.3778 312.1431,8.3778 L304.3241,8.3778 L304.3031,9.8388 L312.2271,9.8388 C312.4541,9.8388 312.5671,9.9488 312.5671,10.1678 C312.5671,10.2498 312.5311,10.3258 312.4601,10.3938 C312.3891,10.4618 312.3121,10.4968 312.2271,10.4968 L304.2821,10.4968 L304.2821,16.7468 L314.3681,16.7468 C314.4531,16.7468 314.5261,16.7858 314.5901,16.8638 C314.6541,16.9408 314.6851,17.0218 314.6851,17.1068" id="Fill-50"></path>
                </g>
                <g id="Group-55" transform="translate(182.000000, 298.022000)">
                    <mask id="mask-12" fill="white">
                        <use xlink:href="#path-11"></use>
                    </mask>
                    <g id="Clip-54"></g>
                    <path d="M-4.776,60.62 L44.523,60.62 L44.523,-4.569 L-4.776,-4.569 L-4.776,60.62 Z" id="Fill-53" fill="#FFFFFF" mask="url(#mask-12)"></path>
                </g>
                <g id="Group-58" transform="translate(181.000000, 297.022000)">
                    <mask id="mask-14" fill="white">
                        <use xlink:href="#path-13"></use>
                    </mask>
                    <g id="Clip-57"></g>
                    <path d="M-4.466,62.24 L46.145,62.24 L46.145,-4.19 L-4.466,-4.19 L-4.466,62.24 Z" id="Fill-56" fill="#FFFFFF" mask="url(#mask-14)"></path>
                </g>
                <g id="Group-61" transform="translate(297.000000, 298.022000)">
                    <mask id="mask-16" fill="white">
                        <use xlink:href="#path-15"></use>
                    </mask>
                    <g id="Clip-60"></g>
                    <path d="M-4.965,60.62 L44.334,60.62 L44.334,-4.569 L-4.965,-4.569 L-4.965,60.62 Z" id="Fill-59" fill="#FFFFFF" mask="url(#mask-16)"></path>
                </g>
                <g id="Group-64" transform="translate(296.000000, 297.022000)">
                    <mask id="mask-18" fill="white">
                        <use xlink:href="#path-17"></use>
                    </mask>
                    <g id="Clip-63"></g>
                    <path d="M-4.655,62.24 L45.956,62.24 L45.956,-4.19 L-4.655,-4.19 L-4.655,62.24 Z" id="Fill-62" fill="#FFFFFF" mask="url(#mask-18)"></path>
                </g>
                <g id="Group-67" transform="translate(52.000000, 297.022000)">
                    <mask id="mask-20" fill="white">
                        <use xlink:href="#path-19"></use>
                    </mask>
                    <g id="Clip-66"></g>
                    <path d="M-4.766,63.611 L62.829,63.611 L62.829,-4.604 L-4.766,-4.604 L-4.766,63.611 Z" id="Fill-65" fill="#FFFFFF" mask="url(#mask-20)"></path>
                </g>
                <g id="Group-70" transform="translate(24.000000, 297.022000)">
                    <mask id="mask-22" fill="white">
                        <use xlink:href="#path-21"></use>
                    </mask>
                    <g id="Clip-69"></g>
                    <path d="M-4.626,63.611 L57.478,63.611 L57.478,-4.604 L-4.626,-4.604 L-4.626,63.611 Z" id="Fill-68" fill="#FFFFFF" mask="url(#mask-22)"></path>
                </g>
                <g id="Group-73" transform="translate(74.000000, 306.022000)">
                    <mask id="mask-24" fill="white">
                        <use xlink:href="#path-23"></use>
                    </mask>
                    <g id="Clip-72"></g>
                    <path d="M-4.507,54.609 L32.664,54.609 L32.664,-4.582 L-4.507,-4.582 L-4.507,54.609 Z" id="Fill-71" fill="#FFFFFF" mask="url(#mask-24)"></path>
                </g>
                <g id="Group-76" transform="translate(51.000000, 297.022000)">
                    <mask id="mask-26" fill="white">
                        <use xlink:href="#path-25"></use>
                    </mask>
                    <g id="Clip-75"></g>
                    <path d="M-4.947,63.609 L36.917,63.609 L36.917,-4.604 L-4.947,-4.604 L-4.947,63.609 Z" id="Fill-74" fill="#FFFFFF" mask="url(#mask-26)"></path>
                </g>
                <g id="Group-79" transform="translate(116.000000, 296.022000)">
                    <mask id="mask-28" fill="white">
                        <use xlink:href="#path-27"></use>
                    </mask>
                    <g id="Clip-78"></g>
                    <path d="M-4.951,64.197 L62.646,64.197 L62.646,-4.015 L-4.951,-4.015 L-4.951,64.197 Z" id="Fill-77" fill="#FFFFFF" mask="url(#mask-28)"></path>
                </g>
                <g id="Group-82" transform="translate(138.000000, 306.022000)">
                    <mask id="mask-30" fill="white">
                        <use xlink:href="#path-29"></use>
                    </mask>
                    <g id="Clip-81"></g>
                    <path d="M-4.689,54.198 L32.48,54.198 L32.48,-4.996 L-4.689,-4.996 L-4.689,54.198 Z" id="Fill-80" fill="#FFFFFF" mask="url(#mask-30)"></path>
                </g>
                <g id="Group-85" transform="translate(230.000000, 296.022000)">
                    <mask id="mask-32" fill="white">
                        <use xlink:href="#path-31"></use>
                    </mask>
                    <g id="Clip-84"></g>
                    <path d="M-4.899,64.197 L62.696,64.197 L62.696,-4.015 L-4.899,-4.015 L-4.899,64.197 Z" id="Fill-83" fill="#FFFFFF" mask="url(#mask-32)"></path>
                </g>
                <g id="Group-88" transform="translate(252.000000, 306.022000)">
                    <mask id="mask-34" fill="white">
                        <use xlink:href="#path-33"></use>
                    </mask>
                    <g id="Clip-87"></g>
                    <path d="M-4.639,54.198 L32.531,54.198 L32.531,-4.996 L-4.639,-4.996 L-4.639,54.198 Z" id="Fill-86" fill="#FFFFFF" mask="url(#mask-34)"></path>
                </g>
                <g id="Group-91" transform="translate(0.000000, 432.022000)">
                    <mask id="mask-36" fill="white">
                        <use xlink:href="#path-35"></use>
                    </mask>
                    <g id="Clip-90"></g>
                    <path d="M-5,45.861 L27.349,45.861 L27.349,-4.294 L-5,-4.294 L-5,45.861 Z" id="Fill-89" fill="#FFFFFF" mask="url(#mask-36)"></path>
                </g>
                <g id="Group-94" transform="translate(210.000000, 0.022000)">
                    <mask id="mask-38" fill="white">
                        <use xlink:href="#path-37"></use>
                    </mask>
                    <g id="Clip-93"></g>
                    <path d="M-4.767,63.116 L36.191,63.116 L36.191,-4.022 L-4.767,-4.022 L-4.767,63.116 Z" id="Fill-92" fill="#FFFFFF" mask="url(#mask-38)"></path>
                </g>
                <g id="Group-97" transform="translate(36.000000, 432.022000)">
                    <mask id="mask-40" fill="white">
                        <use xlink:href="#path-39"></use>
                    </mask>
                    <g id="Clip-96"></g>
                    <path d="M-4.661,45.861 L27.688,45.861 L27.688,-4.294 L-4.661,-4.294 L-4.661,45.861 Z" id="Fill-95" fill="#FFFFFF" mask="url(#mask-40)"></path>
                </g>
                <g id="Group-100" transform="translate(246.000000, 0.022000)">
                    <mask id="mask-42" fill="white">
                        <use xlink:href="#path-41"></use>
                    </mask>
                    <g id="Clip-99"></g>
                    <path d="M-4.428,63.116 L36.53,63.116 L36.53,-4.022 L-4.428,-4.022 L-4.428,63.116 Z" id="Fill-98" fill="#FFFFFF" mask="url(#mask-42)"></path>
                </g>
                <g id="Group-103" transform="translate(336.000000, 432.022000)">
                    <mask id="mask-44" fill="white">
                        <use xlink:href="#path-43"></use>
                    </mask>
                    <g id="Clip-102"></g>
                    <path d="M-4.808,45.999 L27.606,45.999 L27.606,-4.278 L-4.808,-4.278 L-4.808,45.999 Z" id="Fill-101" fill="#FFFFFF" mask="url(#mask-44)"></path>
                </g>
                <g id="Group-106" transform="translate(117.000000, 0.022000)">
                    <mask id="mask-46" fill="white">
                        <use xlink:href="#path-45"></use>
                    </mask>
                    <g id="Clip-105"></g>
                    <path d="M-4.657,63.67 L36.582,63.67 L36.582,-4.022 L-4.657,-4.022 L-4.657,63.67 Z" id="Fill-104" fill="#FFFFFF" mask="url(#mask-46)"></path>
                </g>
                <g id="Group-109" transform="translate(324.000000, 432.022000)">
                    <mask id="mask-48" fill="white">
                        <use xlink:href="#path-47"></use>
                    </mask>
                    <g id="Clip-108"></g>
                    <path d="M-4.919,45.976 L27.481,45.976 L27.481,-4.275 L-4.919,-4.275 L-4.919,45.976 Z" id="Fill-107" fill="#FFFFFF" mask="url(#mask-48)"></path>
                </g>
                <g id="Group-112" transform="translate(105.000000, 0.022000)">
                    <mask id="mask-50" fill="white">
                        <use xlink:href="#path-49"></use>
                    </mask>
                    <g id="Clip-111"></g>
                    <path d="M-4.77,64.193 L36.734,64.193 L36.734,-4.022 L-4.77,-4.022 L-4.77,64.193 Z" id="Fill-110" fill="#FFFFFF" mask="url(#mask-50)"></path>
                </g>
            </g>
        </g>
    </g>
</svg>