<?xml version="1.0" encoding="UTF-8" standalone="no"?>
<svg width="44px" height="44px" viewBox="0 0 44 44" version="1.1" xmlns="http://www.w3.org/2000/svg" xmlns:xlink="http://www.w3.org/1999/xlink">
    <!-- Generator: Sketch 3.6.1 (26313) - http://www.bohemiancoding.com/sketch -->
    <title>Imported Layers Copy</title>
    <desc>Created with Sketch.</desc>
    <defs></defs>
    <g id="Page-1" stroke="none" stroke-width="1" fill="none" fill-rule="evenodd">
        <g id="DISCOVER-Mobile-Copy-5" transform="translate(-45.000000, -761.000000)" fill="#FFFFFF">
            <g id="Spam-Copy" transform="translate(26.000000, 761.000000)">
                <g id="Imported-Layers-Copy" transform="translate(19.006280, 0.000000)">
                    <path d="M0.077382402,21.5542327 C0.0804369705,9.68389641 9.6967277,0.0595885074 21.562199,0.0595885074 C33.4291977,0.0595885074 43.0449793,9.68440571 43.0449793,21.5542327 C43.0449793,33.4260968 33.4286886,43.0488768 21.562199,43.050914 C9.6967277,43.0488768 0.0804369705,33.4271154 0.077382402,21.5542327 L0.077382402,21.5542327 Z M3.81311968,21.5542327 C3.83450166,31.3608712 11.761616,39.2937823 21.562199,39.3126265 C31.3638003,39.2937823 39.2924419,31.3608712 39.309242,21.5542327 C39.2924419,11.7496313 31.3638003,3.81570169 21.562199,3.79787607 C11.7621251,3.81621099 3.83450166,11.7496313 3.81311968,21.5542327 L3.81311968,21.5542327 Z" id="Fill-1"></path>
                    <path d="M21.5606718,32.7609465 C18.7010865,32.7619651 15.8226648,31.6628882 13.6411938,29.4784855 C11.4612501,27.297648 10.3585509,24.4241578 10.3595691,21.5644187 C10.3585509,18.7006053 11.4541228,15.8159103 13.6432302,13.6325263 C15.8247012,11.4450679 18.7031229,10.3465002 21.5606718,10.3505747 C24.4233115,10.3465002 27.300206,11.4476144 29.4832042,13.6325263 L26.8552572,16.2635881 C25.387537,14.7973034 23.4825044,14.0720552 21.5606718,14.070018 C19.6408754,14.0720552 17.7378793,14.7973034 16.26965,16.2635881 C14.8049844,17.7278356 14.0810517,19.6356865 14.0790153,21.5644187 C14.0810517,23.4824557 14.808039,25.3831762 16.2727046,26.8504796 C17.7358429,28.3126899 19.6393482,29.0389566 21.5606718,29.0409939 C23.4825044,29.0389566 25.3880461,28.3126899 26.8516935,26.8484424 L26.8557662,26.8504796 L29.4826952,29.4784855 C27.3007151,31.6628882 24.4273843,32.7609465 21.5677991,32.7609465 L21.5606718,32.7609465" id="Fill-2"></path>
                </g>
            </g>
        </g>
    </g>
</svg>