<?xml version="1.0" encoding="UTF-8" standalone="no"?>
<svg width="43px" height="77px" viewBox="0 0 43 77" version="1.1" xmlns="http://www.w3.org/2000/svg" xmlns:xlink="http://www.w3.org/1999/xlink">
    <!-- Generator: Sketch 3.8.3 (29802) - http://www.bohemiancoding.com/sketch -->
    <title>Metronome@2x</title>
    <desc>Created with Sketch.</desc>
    <defs></defs>
    <g id="Page-1" stroke="none" stroke-width="1" fill="none" fill-rule="evenodd" opacity="0.200000018">
        <g id="Mobile-Home-page-unlog" transform="translate(-299.000000, -1124.000000)" fill="#FFFFFF">
            <path d="M328.861163,1131.21875 L321.694524,1124 L314.527886,1131.21875 L309.834932,1155.28606 L311.617036,1158.39614 L316.258629,1134.59592 C316.368517,1134.03166 316.859432,1133.625 317.430374,1133.625 L325.958674,1133.625 C326.529616,1133.625 327.020531,1134.03166 327.130419,1134.59592 L335.766219,1178.87934 C336.056468,1180.36641 334.926528,1181.75 333.422728,1181.75 L322.577215,1181.75 C322.572437,1181.74158 322.573632,1181.73316 322.568854,1181.72473 L317.502041,1173.01772 L317.697929,1172.90342 C318.172121,1172.6267 318.400259,1172.06123 318.248565,1171.53066 L317.150875,1167.66381 L315.085689,1168.86573 L301.227799,1145.05348 C300.899328,1144.4808 300.165942,1144.28228 299.596194,1144.61314 C299.027641,1144.944 298.830558,1145.68392 299.159029,1146.25661 L313.016919,1170.06886 L310.944566,1171.27319 L313.71925,1174.1643 C314.100276,1174.56133 314.701079,1174.64555 315.175272,1174.37003 L315.433271,1174.22084 L319.814476,1181.75 L309.96632,1181.75 C308.462521,1181.75 307.332581,1180.36641 307.622829,1178.88055 L309.516016,1169.16892 L307.733912,1166.05884 L301.389048,1198.59375 L303.777928,1198.59375 C303.777928,1199.9232 304.846951,1201 306.166807,1201 C307.486663,1201 308.555687,1199.9232 308.555687,1198.59375 L334.833361,1198.59375 C334.833361,1199.9232 335.902385,1201 337.222241,1201 C338.542097,1201 339.61112,1199.9232 339.61112,1198.59375 L342,1198.59375 L328.861163,1131.21875 Z" id="Metronome"></path>
        </g>
    </g>
</svg>