<?xml version="1.0" encoding="UTF-8" standalone="no"?>
<svg width="20px" height="16px" viewBox="0 0 20 16" version="1.1" xmlns="http://www.w3.org/2000/svg" xmlns:xlink="http://www.w3.org/1999/xlink">
    <!-- Generator: Sketch 3.8.3 (29802) - http://www.bohemiancoding.com/sketch -->
    <title>Fill 118</title>
    <desc>Created with Sketch.</desc>
    <defs></defs>
    <g id="Page-1" stroke="none" stroke-width="1" fill="none" fill-rule="evenodd">
        <g id="Website-Home-page-unlog" transform="translate(-188.000000, -710.000000)" fill="#FFFFFF">
            <g id="Radio" transform="translate(-1.000000, -75.000000)">
                <g id="News-Feed-Copy-2">
                    <g id="Home">
                        <g id="Group-Copy-9">
                            <g id="Group-2" transform="translate(59.000000, 782.000000)">
                                <path d="M140.691405,9.64866352 C140.773361,9.64866352 140.855787,9.61993205 140.92267,9.5624691 C143.170319,7.61909106 145.010076,6.6332718 146.39107,6.6332718 L148.754587,6.6332718 L146.268137,9.12019281 C146.130132,9.25819809 146.130132,9.48145577 146.268137,9.61946104 C146.337375,9.68869918 146.427809,9.72308275 146.518242,9.72308275 C146.608205,9.72308275 146.698638,9.68869918 146.767876,9.61946104 L149.89631,6.49055645 C149.964135,6.42273133 150.001816,6.3299428 149.999932,6.23385722 C149.998048,6.13824264 149.95707,6.04639612 149.886419,5.98186806 L146.766463,3.09411944 C146.623748,2.96129525 146.400019,2.9702444 146.267666,3.11343076 C146.135313,3.25614611 146.143791,3.4798748 146.286978,3.61222799 L148.787558,5.92676015 L146.39107,5.92676015 C144.835332,5.92676015 142.840143,6.97004236 140.46014,9.02787529 C140.312715,9.15551839 140.296701,9.37830507 140.424344,9.5262015 C140.494053,9.60721484 140.592494,9.64866352 140.691405,9.64866352 L140.691405,9.64866352 Z M137.256817,12.1374686 L137.208774,12.1869244 C135.318149,14.1543238 133.952226,15.5758253 132.143085,15.5758253 L130.353256,15.5758253 C130.158259,15.5758253 130,15.7340839 130,15.9290811 C130,16.1240783 130.158259,16.2823369 130.353256,16.2823369 L132.143085,16.2823369 C134.2532,16.2823369 135.782562,14.6912727 137.718404,12.6767725 L137.766447,12.6268456 C137.901626,12.4860143 137.896916,12.2622856 137.756556,12.1271064 C137.616667,11.9923982 137.392467,11.9966372 137.256817,12.1374686 L137.256817,12.1374686 Z M146.767876,11.9862751 C146.629871,11.8482698 146.406143,11.8482698 146.268137,11.9862751 C146.130132,12.1238093 146.130132,12.347538 146.268137,12.4855433 L148.755058,14.9729353 L146.39107,14.9729353 C144.646458,14.9729353 142.093124,13.3404224 139.00614,10.2515535 C138.54832,9.79326291 138.121587,9.34957359 137.717462,8.92896366 C135.782562,6.91540545 134.253671,5.32434122 132.143085,5.32434122 L130.353256,5.32434122 C130.158259,5.32434122 130,5.48259983 130,5.67759704 C130,5.87259426 130.158259,6.03085287 130.353256,6.03085287 L132.143085,6.03085287 C133.952697,6.03085287 135.318149,7.4518833 137.208303,9.41834073 C137.615254,9.84224772 138.044813,10.2892341 138.506871,10.7508217 C141.774723,14.0214996 144.427439,15.679447 146.39107,15.679447 L148.787087,15.679447 L146.286978,17.9939791 C146.143791,18.1268033 146.135313,18.350061 146.267666,18.4932474 C146.337375,18.5686086 146.431577,18.6067602 146.526721,18.6067602 C146.612915,18.6067602 146.698638,18.5756737 146.766463,18.5125587 L149.886419,15.6243391 C149.95707,15.558869 149.998048,15.4679645 149.999932,15.3723499 C150.001816,15.2762643 149.964606,15.1834758 149.89631,15.1156507 L146.767876,11.9862751 L146.767876,11.9862751 Z" id="Fill-118"></path>
                            </g>
                        </g>
                    </g>
                </g>
            </g>
        </g>
    </g>
</svg>