<svg xmlns="http://www.w3.org/2000/svg" viewBox="0 21.3 80 17.4"><path fill="#FFF" d="M15.5 26.5c-.1 0-.2-.1-.2-.2l-.2-1.2-1.2-.2c-.1 0-.2-.1-.2-.2s0-.2.1-.2l1.1-.5-.2-1.2c0-.1 0-.1.1-.2s.2-.1.3 0l.9.9 1.2-.5c.1-.1.2 0 .3.1v.2l-.6 1.1.9.9c.1.1.1.2 0 .2 0 .1-.1.1-.2.1h-.1l-1.2-.2-.6 1.1c0-.1-.1 0-.2 0zm-1.1-2l.9.2c.1 0 .2.1.2.2l.1.9.5-.8c0-.1.1-.1.2-.1l.9.2-.6-.7c-.1-.1-.1-.2 0-.3l.5-.8-.9.4c-.1 0-.2 0-.3-.1l-.7-.7.1.9c0 .1 0 .2-.1.2l-.8.5zM9.4 28.8c-.1 0-.1 0-.1-.1l-.7-.5-.7.5c-.1.1-.2 0-.3-.1 0-.1-.1-.1 0-.2l.3-.8-.7-.5c-.1-.1-.1-.2-.1-.2 0-.1.1-.1.2-.1l.9.1.3-.9c0-.1.1-.1.2-.1s.2.1.2.2l.2.8.9.1c.1 0 .2.1.2.2s0 .2-.1.2l-.7.5.2.8v.2c-.1-.1-.2-.1-.2-.1zm-.8-.9c.1 0 .1 0 .1.1l.4.3-.1-.6c0-.1 0-.2.1-.2l.4-.3H9c-.1 0-.2-.1-.2-.2l-.1-.5-.3.5c0 .1-.1.1-.2.1h-.5l.4.3c.1.1.1.2.1.2l-.2.6.4-.3h.2zM7.2 35.4h-.1l-.6-.5-.6.4h-.1c-.1 0-.1 0-.1-.1v-.1l.2-.7-.6-.5c-.1 0-.1-.1-.1-.2s.1-.1.2-.1h.7l.3-.6c0-.1.1-.1.2-.1s.1.1.2.1l.2.7h.7c.1 0 .1.1.1.1s0 .1-.1.2l-.6.4.2.7v.1c-.1.1-.1.2-.1.2zm-.7-.8h.1l.4.3-.1-.5c0-.1 0-.1.1-.2l.3-.2h-.5c-.1 0-.1-.1-.1-.1l-.1-.4-.2.4c0 .1-.1.1-.2.1h-.5l.4.3c.1 0 .1.1.1.2l-.2.3.5-.2c-.1 0 0 0 0 0zM1.1 31.3c-.1 0-.1-.1-.2-.1l-.1-.7-.7-.1c-.1 0-.1-.1-.1-.1 0-.1 0-.1.1-.2l.6-.4-.2-.7v-.1c.1-.1.2-.1.2 0l.5.5.7-.4H2c.1 0 .1 0 .1.1v.2l-.3.6.5.5c.1.1.1.1 0 .2 0 .1-.1.1-.1.1l-.7-.1-.3.6s0 .1-.1.1zm-.6-1.2l.5.1c.1 0 .1.1.1.1l.1.5.2-.4c0-.1.1-.1.2-.1H2l-.4-.3c-.1-.1-.1-.1 0-.2l.2-.4-.4.2h-.1s-.1 0-.1-.1l-.3-.3.1.5c0 .1 0 .1-.1.2l-.4.2z"/><g><g fill="#FFF"><path d="M22.8 36c-.1 0-.1 0-.2-.1-.2-.4-.2-.8-.1-.9.3-.5.4-.8.2-1.1 0-.1-.1-.2-.1-.3-.1-.1-.2-.4-.2-.5l-.3.3c-.1.2-.2.3-.4.4-.3.2-.6-.1-1-.4-.1 0-.1-.1-.2-.1-.4-.3-.2-1-.1-1.4v-.1c.1-.3.2-.4.4-.6l.4-.4c.4-.4.7-.3 1.1-.1.1.1.3.1.4.2.2.1.7.2 1.2.5.1.1.1.2.1.2-.1.1-.2.1-.2.1-.5-.3-.9-.4-1.1-.5-.2-.1-.4-.1-.5-.2-.3-.2-.4-.2-.6 0l-.4.4c-.2.2-.3.2-.3.4v.1c-.1.3-.3.9 0 1.1.1 0 .1.1.2.1.2.1.5.4.6.4l.3-.3c.1-.1.2-.3.4-.4.1-.1.2-.1.3-.1.2.1.4.4.5.7 0 .1.1.2.1.3.2.5 0 .8-.2 1.4 0 .1-.1.2.1.7-.2 0-.2.1-.4.2zM18.8 35.1c-.3 0-.6-.2-.9-.5-.1-.1-.2-.1-.4-.1-.1 0-.2-.1-.2-.2s.1-.2.2-.2c.3 0 .5.1.6.3.2.2.4.4.6.4.1 0 .1 0 .2-.1 0-.1-.4-.6-.6-.8-.4-.5-.5-.7-.5-.9.1-.5.4-.8.8-.9.2-.1.8-.6.9-1.1.1-.2.1-.3 0-.3-.1-.1-.5-.2-1.5 0-.1 0-.2-.1-.2-.1 0-.1.1-.2.1-.2 1-.2 1.7-.1 1.8.2.1.2.1.4 0 .6-.2.5-.8 1.2-1.2 1.3-.3.1-.5.3-.5.6 0 .1.3.4.4.6.5.6.8.9.6 1.2.2.1 0 .2-.2.2.1 0 .1 0 0 0z"/></g><path fill="#FFF" d="M20.8 36.7c-2.1 0-3.7-1.7-3.7-3.7s1.7-3.7 3.7-3.7 3.7 1.7 3.7 3.7-1.7 3.7-3.7 3.7zm0-7.1c-1.9 0-3.4 1.5-3.4 3.4s1.5 3.4 3.4 3.4 3.4-1.5 3.4-3.4c-.1-1.9-1.6-3.4-3.4-3.4z"/></g><g><path fill="#FFF" d="M62.3 22.9c1.6.3 2.7 1.9 2.4 3.6-.3 1.6-1.9 2.7-3.6 2.4-1.6-.3-2.7-1.9-2.4-3.6.4-1.7 2-2.8 3.6-2.4zM61 29.3c1.9.4 3.8-.8 4.1-2.7.4-1.9-.8-3.8-2.7-4.1-1.9-.4-3.8.8-4.1 2.7-.4 1.9.8 3.7 2.7 4.1z"/><path fill="#FFF" d="M58.6 24c-.1.1-.1.3-.2.4-1.8-.2-2.5-.1-2.7 0 .2.2 1.1.6 2.5 1v.5c-.4-.1-.8-.2-1.2-.4-1.7-.6-1.9-1-1.9-1.2.2-.1.3-.7 3.5-.3M64.6 26.8c-.1.2-.1.3-.2.4-.9-.1-1.8-.3-2.8-.5-1-.2-1.9-.4-2.8-.7v-.5c.8.2 1.8.5 2.9.7 1 .3 2 .5 2.9.6M67.8 26.9c-.2-.2-.8-.5-2.5-1v-.5c3.2.9 3.1 1.4 3 1.6-.1.3-.4.5-2.2.4-.4 0-.8-.1-1.2-.1.1-.1.1-.3.2-.4 1.4.1 2.4.1 2.7 0M74.9 37.7c-.1 0-.1 0-.2-.1l-1.3-1.3-1.6.8c-.1.1-.3 0-.3-.1-.1-.1-.1-.2 0-.2l.9-1.6-1.4-1.3v-.3c0-.1.1-.2.2-.2l1.8.3.9-1.6c0-.1.1-.1.2-.1s.2.1.2.2l.3 1.8 1.8.3c.1 0 .2.1.2.2s0 .2-.1.3l-1.6.8.3 1.8c0 .1 0 .1-.1.2s-.1.1-.2.1zM73.5 36c.1 0 .1 0 .2.1l1.1 1.1-.2-1.6c0-.1 0-.2.1-.3l1.4-.7-1.6-.3c-.1 0-.2-.1-.2-.2l-.2-1.6-.8 1.5c0 .1-.1.1-.2.1l-1.6-.3 1.1 1.1c.1.1.1.2 0 .3l-.7 1.4 1.4-.7c.1.1.1.1.2.1z"/><g><path fill="#FFF" d="M77.8 30.2c-.1 0-.1 0-.2-.1 0 0-.1-.1-.1-.2l.1-1-1-.4c-.1 0-.1-.1-.1-.2s.1-.2.2-.2l1-.3.1-1c0-.1.1-.2.2-.2s.1 0 .2.1l.6.9 1-.3h.1c.1 0 .2.1.2.1v.2l-.7.8.6.9c0 .1.1.2 0 .2 0 .1-.1.1-.2.1h-.1l-1-.4-.7.8c-.1.1-.1.2-.2.2zm-.6-1.9l.7.3c.1 0 .1.1.1.2v.7l.5-.6c0-.1.1-.1.2-.1h.1l.7.3-.4-.6c-.1-.1-.1-.2 0-.3l.5-.6-.7.2h-.1c-.1 0-.1 0-.2-.1l-.4-.6v.7c0 .1-.1.2-.2.2l-.8.3z"/></g><g><path fill="#FFF" d="M71.4 31.7c-.1 0-.2-.1-.2-.1l-.4-1h-1.1c-.1 0-.2-.1-.2-.1 0-.1 0-.2.1-.2l.8-.6-.4-1v-.2c.1-.1.2-.1.3-.1l.9.6.8-.6c.1-.1.2-.1.3 0 0 .1.1.1 0 .2l-.3 1 .9.6c.1.1.1.1.1.2s-.1.2-.2.2h-1.1l-.3 1c.1.1.1.1 0 .1zm-.5-1.4c.1 0 .2.1.2.1l.3.7.2-.7c0-.1.1-.2.2-.2h.7l-.6-.4c-.1-.1-.1-.1-.1-.2l.2-.7-.6.5-.1.1h-.1l-.6-.4.3.7c0 .1 0 .2-.1.2l-.6.5.7-.2z"/></g><g><path fill="#FFF" d="M66.4 37.6c-.1 0-.1 0-.2-.1 0 0-.1-.1-.1-.2l.1-1-1-.4c-.1 0-.1-.1-.1-.2s.1-.2.2-.2l1-.3.1-1c0-.1.1-.2.2-.2s.1 0 .2.1l.6.9 1-.3h.1c.1 0 .2.1.2.1v.2l-.7.8.6.9c0 .1.1.2 0 .2 0 .1-.1.1-.2.1h-.1l-1-.4-.7.8c-.1.2-.1.2-.2.2zm-.7-1.8l.7.3c.1 0 .1.1.1.2v.7l.5-.6c0-.1.1-.1.2-.1h.1l.7.3-.5-.6c-.1-.1-.1-.2 0-.3l.5-.6-.7.2h-.1c-.1 0-.1 0-.2-.1l-.4-.6v.7c0 .1-.1.2-.2.2l-.7.3z"/></g></g></svg>