<?xml version="1.0" encoding="UTF-8" standalone="no"?>
<svg width="181px" height="137px" viewBox="0 0 181 137" version="1.1" xmlns="http://www.w3.org/2000/svg" xmlns:xlink="http://www.w3.org/1999/xlink">
    <!-- Generator: Sketch 3.8.3 (29802) - http://www.bohemiancoding.com/sketch -->
    <title>No Likes</title>
    <desc>Created with Sketch.</desc>
    <defs>
        <path d="M809.42388,292.247709 L782.383081,257.822839 C780.981875,256.042582 778.843194,255 776.5816,255 L668.4184,255 C666.156806,255 664.013208,256.042582 662.616919,257.822839 L635.57612,292.247709 C633.294859,295.149233 633.511186,299.290053 636.087437,301.940768 L717.209836,385.544022 C718.596292,386.975113 720.508814,387.781639 722.5,387.781639 C724.491186,387.781639 726.403708,386.975113 727.790164,385.544022 L808.912563,301.940768 C811.488814,299.290053 811.705141,295.149233 809.42388,292.247709 L809.42388,292.247709 Z M788.450053,289.424869 L762.96287,289.424869 L747.505365,269.753515 L772.997465,269.753515 L788.450053,289.424869 L788.450053,289.424869 Z M700.798529,289.424869 L716.251117,269.753515 L728.748883,269.753515 L744.201471,289.424869 L700.798529,289.424869 L700.798529,289.424869 Z M745.927166,304.178385 L722.5,362.946555 L699.072834,304.178385 L745.927166,304.178385 L745.927166,304.178385 Z M683.197426,304.178385 L700.193798,346.82588 L658.811541,304.178385 L683.197426,304.178385 L683.197426,304.178385 Z M761.802574,304.178385 L786.188459,304.178385 L744.806202,346.82588 L761.802574,304.178385 L761.802574,304.178385 Z M672.002535,269.753515 L697.494635,269.753515 L682.03713,289.424869 L656.549947,289.424869 L672.002535,269.753515 L672.002535,269.753515 Z" id="path-1"></path>
        <mask id="mask-2" maskContentUnits="userSpaceOnUse" maskUnits="objectBoundingBox" x="-1.5" y="-1.5" width="180" height="135.781639">
            <rect x="632.5" y="253.5" width="180" height="135.781639" fill="white"></rect>
            <use xlink:href="#path-1" fill="black"></use>
        </mask>
    </defs>
    <g id="Page-1" stroke="none" stroke-width="1" fill="none" fill-rule="evenodd" stroke-linecap="round" stroke-linejoin="round">
        <g id="No-Likes-Yet-Website" transform="translate(-632.000000, -253.000000)" stroke-width="3" stroke="#FFFFFF">
            <g id="Group">
                <use id="No-Likes" mask="url(#mask-2)" xlink:href="#path-1"></use>
            </g>
        </g>
    </g>
</svg>