<svg xmlns="http://www.w3.org/2000/svg" viewBox="0 0 141.2 87.8"><path fill-rule="evenodd" clip-rule="evenodd" fill="#FFF" d="M40.6 3C50 4.9 56.1 14.1 54.2 23.5 52.3 32.9 43 39 33.6 37.1c-9.4-2-15.5-11.2-13.6-20.6C22 7.1 31.2 1 40.6 3zm-7.5 36.6c10.8 2.2 21.4-4.8 23.6-15.6C59 13.2 52 2.6 41.1.4 30.3-1.8 19.7 5.2 17.5 16c-2.2 10.8 4.8 21.4 15.6 23.6z"/><path fill-rule="evenodd" clip-rule="evenodd" fill="#FFF" d="M19.5 9.7c-.4.8-.8 1.6-1.1 2.5C8.2 11.1 4 11.6 2.8 12c1.2 1.3 6.3 3.5 14.4 6-.1.9 0 1.8 0 2.7-2.4-.7-4.6-1.4-6.6-2.1C.7 15.1-.3 13 0 11.5c.3-1.1.9-4 19.5-1.8M53.3 25.6c-.4.9-.8 1.7-1.3 2.5-5-.7-10.5-1.6-16.2-2.8-5.7-1.2-11.1-2.4-16-3.8-.1-.9-.2-1.8-.2-2.8 4.7 1.3 10.3 2.7 16.7 4 6.5 1.3 12.2 2.2 17 2.9M71.6 26c-.9-.9-4.6-3-14.4-5.9.1-.9 0-1.8 0-2.7 18 5.3 17.4 8.1 17.2 9.2-.3 1.6-2.1 3.1-12.6 2.4-2.1-.1-4.4-.3-6.9-.6.4-.8.8-1.6 1.1-2.5 8.5.9 14 .8 15.6.1"/><path fill="#FFF" d="M112.1 87.8c-.4 0-.7-.2-1-.4l-7.3-7.5-9.4 4.6c-.6.3-1.5.1-1.8-.5-.3-.4-.3-.9 0-1.4l4.9-9.2-7.3-7.5c-.4-.4-.5-1-.3-1.5s.7-.9 1.3-.9h.2l10.3 1.8 4.9-9.2c.2-.5.7-.7 1.2-.7.7 0 1.3.5 1.4 1.2l1.5 10.3 10.3 1.8c.6.1 1.1.6 1.1 1.2.1.6-.2 1.2-.8 1.5l-9.4 4.6 1.5 10.3c.1.4-.1.8-.3 1.1-.2.2-.6.4-1 .4zm-8.2-10.1c.4 0 .7.2 1 .4l6.3 6.5-1.3-8.9c-.1-.6.2-1.2.8-1.5l8.1-3.9-8.9-1.6c-.6-.1-1.1-.6-1.1-1.2l-1.3-8.9-4.3 8c-.2.5-.7.7-1.2.7h-.2l-8.9-1.6 6.3 6.5c.4.4.5 1.1.2 1.6l-4.2 8 8.1-3.9c.2-.2.4-.2.6-.2z"/><g><path fill="#FFF" d="M128.6 44.6c-.3 0-.7-.1-.9-.4-.2-.2-.4-.6-.3-.9l.3-5.9-5.6-2.2c-.5-.2-.8-.7-.8-1.2s.4-1 .9-1.1l5.8-1.5.3-5.9c0-.7.6-1.2 1.2-1.2.4 0 .8.2 1 .6l3.3 5 5.8-1.5h.3c.5 0 .9.3 1.1.7.2.4.1.9-.2 1.3L137 35l3.2 5c.2.4.3.9 0 1.3-.2.4-.6.7-1.1.7-.1 0-.3 0-.5-.1l-5.6-2.2-3.8 4.6c.1.2-.2.3-.6.3zM125 34.2l3.9 1.5c.5.2.8.7.8 1.2l-.2 4.2 2.7-3.2c.2-.3.6-.5 1-.5.1 0 .3 0 .4.1l3.9 1.5-2.3-3.5c-.3-.5-.3-1 .1-1.5l2.6-3.2-4.1 1.1h-.3c-.4 0-.8-.2-1-.6l-2.3-3.5-.2 4.2c0 .5-.4 1-.9 1.1l-4.1 1.1z"/></g><g><path fill="#FFF" d="M92 53.6c-.5 0-1-.3-1.2-.8l-2.1-5.6-6 .2c-.6 0-1-.3-1.2-.8-.2-.5 0-1.1.4-1.4l4.7-3.7-2.1-5.6c-.1-.4-.1-.8.1-1.1.4-.5 1.2-.7 1.7-.3l5 3.3 4.7-3.7c.5-.4 1.4-.3 1.8.2.2.3.3.7.2 1.1l-1.6 5.7 5 3.3c.4.3.7.8.5 1.4-.1.5-.6.9-1.2.9l-6 .2-1.6 5.7c-.1.6-.6 1-1.1 1zm-2.8-8.5c.6 0 1 .3 1.2.8l1.5 3.9 1.1-4c.1-.5.6-.9 1.1-.9l4.2-.2-3.5-2.3c-.4-.3-.7-.8-.5-1.4l1.1-4-3.3 2.6c-.2.2-.5.3-.8.3-.2 0-.5-.1-.7-.2l-3.5-2.3 1.5 3.9c.2.5 0 1.1-.4 1.4L85 45.3l4.2-.2z"/></g><g><path fill="#FFF" d="M63.6 87.2c-.3 0-.7-.1-.9-.4-.2-.2-.4-.6-.3-.9l.3-5.9-5.6-2.2c-.5-.2-.8-.7-.8-1.2s.4-1 .9-1.1L63 74l.3-5.9c0-.7.6-1.2 1.2-1.2.4 0 .8.2 1 .6l3.3 5 5.8-1.5h.3c.5 0 .9.3 1.1.7.2.4.1.9-.2 1.3L72 77.6l3.3 5c.2.4.3.9.1 1.3-.2.4-.6.7-1.1.7-.1 0-.3 0-.5-.1l-5.6-2.2-3.8 4.6c-.1.1-.4.3-.8.3zM60 76.8l3.9 1.5c.5.2.8.7.8 1.2l-.2 4.2 2.7-3.2c.2-.3.6-.5 1-.5.1 0 .3 0 .4.1l3.9 1.5-2.3-3.5c-.3-.5-.3-1 .1-1.5l2.6-3.2-4.1 1.1h-.3c-.4 0-.8-.2-1-.6l-2.3-3.5-.2 4.2c0 .5-.4 1-.9 1.1L60 76.8z"/></g></svg>