<svg xmlns="http://www.w3.org/2000/svg" viewBox="1058.2 835.8 26.7 25.8"><path fill="#FFF" d="M1079.1 861.6c-.2 0-.3-.1-.5-.2l-7.2-5.3-7.2 5.3c-.4.3-.9.2-1.2-.2-.2-.2-.2-.5-.1-.8l2.8-8.6-7.2-5.3c-.3-.2-.4-.6-.3-.9.1-.3.4-.6.8-.6h8.9l2.8-8.6c.1-.3.4-.6.8-.6s.7.2.8.6l2.8 8.6h8.9c.4 0 .7.2.8.6.1.3 0 .7-.3.9l-7.2 5.3 2.8 8.6c.1.3 0 .5-.1.7-.4.4-.7.5-.9.5zm-7.8-6.5c.2 0 .3.1.5.2l6.9 5.1-2.6-8.2c-.1-.3 0-.7.3-.9l6.9-5.1h-8.6c-.4 0-.7-.2-.8-.6l-2.6-8.2-2.6 8.2c-.1.3-.4.6-.8.6h-8.6l6.9 5.1c.3.2.4.6.3.9l-2.6 8.2 6.9-5.1c.2-.1.4-.2.5-.2z"/></svg>