<?xml version="1.0" encoding="utf-8"?>
<!-- Generator: Adobe Illustrator 17.1.0, SVG Export Plug-In . SVG Version: 6.00 Build 0)  -->
<!DOCTYPE svg PUBLIC "-//W3C//DTD SVG 1.1//EN" "http://www.w3.org/Graphics/SVG/1.1/DTD/svg11.dtd">
<svg version="1.1" xmlns="http://www.w3.org/2000/svg" xmlns:xlink="http://www.w3.org/1999/xlink" x="0px" y="0px"
	 viewBox="0 0 49.8 28.4" enable-background="new 0 0 49.8 28.4" xml:space="preserve">
<g id="Calque_2" display="none">
	<rect x="-88.7" y="-530.5" display="inline" fill="#3A1654" stroke="#FFFFFF" stroke-miterlimit="10" width="4499" height="6155"/>
</g>
<g id="Calque_1">
	<g>
		<g>
			<defs>
				<path id="SVGID_23_" d="M13.9,0.4c-7.7,0-14,6.3-14,14c0,7.7,6.3,14,14,14h22c7.7,0,14-6.3,14-14c0-7.7-6.3-14-14-14H13.9z"/>
			</defs>
			<clipPath id="SVGID_2_">
				<use xlink:href="#SVGID_23_"  overflow="visible"/>
			</clipPath>
			<path clip-path="url(#SVGID_2_)" fill="none" stroke="#FFFFFF" stroke-width="2" stroke-miterlimit="10" d="M13.9,0.4
				c-7.7,0-14,6.3-14,14c0,7.7,6.3,14,14,14h22c7.7,0,14-6.3,14-14c0-7.7-6.3-14-14-14H13.9z"/>
		</g>
	</g>
	<g>
		<text transform="matrix(1 0 0 1 30.7619 17.9695)"><tspan x="0" y="0" fill="#FFFFFF" font-family="'HelveticaNeue-Light'" font-size="8.9286">O</tspan><tspan x="6.6" y="0" fill="#FFFFFF" font-family="'HelveticaNeue-Light'" font-size="8.9286">f</tspan><tspan x="8.8" y="0" fill="#FFFFFF" font-family="'HelveticaNeue-Light'" font-size="8.9286">f</tspan></text>
	</g>
	<g>
		<g>
			<defs>
				<path id="SVGID_25_" d="M13.7,27C6.8,27,1.2,21.4,1.2,14.4S6.8,1.7,13.7,1.7s12.5,5.7,12.5,12.6S20.6,27,13.7,27z"/>
			</defs>
			<clipPath id="SVGID_4_">
				<use xlink:href="#SVGID_25_"  overflow="visible"/>
			</clipPath>
			<g clip-path="url(#SVGID_4_)">
				<defs>
					<rect id="SVGID_27_" x="-26.8" y="-16.3" width="71" height="74.3"/>
				</defs>
				<clipPath id="SVGID_6_">
					<use xlink:href="#SVGID_27_"  overflow="visible"/>
				</clipPath>
			</g>
		</g>
	</g>
	<g>
		<g>
			<defs>
				<path id="SVGID_29_" d="M13.7,27C6.8,27,1.2,21.4,1.2,14.4S6.8,1.7,13.7,1.7s12.5,5.7,12.5,12.6S20.6,27,13.7,27z"/>
			</defs>
			<clipPath id="SVGID_8_">
				<use xlink:href="#SVGID_29_"  overflow="visible"/>
			</clipPath>
			<g clip-path="url(#SVGID_8_)">
				<defs>
					<rect id="SVGID_31_" x="-15.8" y="-9.3" width="53" height="53.3"/>
				</defs>
				<clipPath id="SVGID_10_">
					<use xlink:href="#SVGID_31_"  overflow="visible"/>
				</clipPath>
			</g>
		</g>
	</g>
	<g>
		<g>
			<defs>
				<ellipse id="SVGID_33_" cx="13.7" cy="14.4" rx="12.5" ry="12.6"/>
			</defs>
			<clipPath id="SVGID_12_">
				<use xlink:href="#SVGID_33_"  overflow="visible"/>
			</clipPath>
			<rect x="-3.8" y="-3.3" opacity="0.5" clip-path="url(#SVGID_12_)" fill="#FFFFFF" width="35" height="35.3"/>
		</g>
	</g>
</g>
</svg>
