<svg xmlns="http://www.w3.org/2000/svg" viewBox="0 0 30.1 31.4"><path fill="#FFF" d="M17.3 31.4h-4.5c-1.5 0-2.4-.9-2.4-2.4v-2.7c-.8-.3-1.5-.8-2.2-1.3L6 26.3c-.4.3-.9.4-1.3.4-.5 0-1.3-.2-2-1.3l-2.3-4s0-.1-.1-.1v-.1c-.6-1.2-.2-2.4 1-3.1l2.2-1.3v-.7-.4c0-.4 0-.9.1-1.3l-2.3-1.3c-.6-.4-1-.8-1.2-1.4-.3-.8.1-1.6.3-1.9l2.4-4.1c.6-1.1 1.5-1.3 1.9-1.3.4 0 .9.1 1.3.4l2.4 1.4c.1 0 .2-.1.4-.2.5-.3 1-.6 1.6-.8V2.4c0-1.5.9-2.4 2.4-2.4h4.5c1.5 0 2.4.9 2.4 2.4v2.7c.8.3 1.5.8 2.2 1.3l2.2-1.3c.4-.3.9-.4 1.3-.4.5 0 1.3.2 2 1.3l2.3 4c.7 1.3.4 2.5-.8 3.3l-2.3 1.3V15.7c0 .4 0 .9-.1 1.3l2.3 1.3c.7.4 1 .9 1.2 1.3.2.5.1.9 0 1.5 0 .2-.1.4-.2.5l-2.3 4c-.6 1-1.4 1.3-2 1.3-.4 0-.9-.1-1.3-.4l-2.3-1.4-.4.3s-.1 0-.1.1c-.5.3-1 .6-1.5.8V29c-.2 1.5-1.1 2.4-2.6 2.4zm-4.9-2s.1.1.3.1h4.5c.3 0 .3-.1.3-.1s.1-.1.1-.3v-3.4c0-.4.3-.8.7-.9.6-.2 1.2-.5 1.8-.9l.9-.7c.3-.2.8-.3 1.1-.1l2.9 1.7c.2.1.3.1.3.1s.1-.1.2-.3l2.3-4s0-.1.1-.1c.1-.2.1-.3.1-.3l-.2-.2-2.9-1.7c-.4-.2-.6-.6-.5-1 .1-.5.1-1.1.1-1.7v-.3c0-.4 0-.8-.1-1.2 0-.4.1-.8.5-1l2.8-1.6c.2-.1.2-.2.2-.2s0-.1-.1-.3l-2.3-4c-.1-.2-.2-.3-.2-.3s-.1 0-.3.1l-2.8 1.6c-.4.2-.8.2-1.1-.1-.9-.8-1.8-1.3-2.8-1.6-.4-.1-.7-.5-.7-.9V2.4c0-.3-.1-.3-.1-.3s-.1-.1-.3-.1h-4.5c-.3 0-.3.1-.3.1s-.1.1-.1.3v3.4c0 .4-.3.8-.7.9-.5.3-1.1.6-1.7 1-.3.1-.6.4-.9.6-.3.2-.7.3-1.1.1L5 6.7c-.2-.1-.3-.1-.3-.1s-.1.1-.2.3L2.1 11c-.1.1-.1.2-.1.2l.3.3L5.1 13c.4.2.6.6.5 1-.1.5-.1 1.1-.1 1.7v.3c0 .4 0 .8.1 1.1.1.4-.1.8-.5 1l-2.8 1.6c-.3.3-.3.4-.3.4v.2c0 .1.1.2.1.2l2.3 4c.1.2.2.2.2.3 0 0 .1 0 .3-.1L7.8 23c.4-.2.8-.2 1.1.1.8.7 1.8 1.3 2.8 1.6.4.1.7.5.7.9v3.8zm2.7-7.9c-1.6 0-3-.6-4.1-1.7-1.1-1.1-1.7-2.5-1.7-4.1 0-1.6.6-3 1.7-4.2 1.1-1.1 2.5-1.7 4.1-1.7 1.6 0 3 .6 4.1 1.7 1.2 1.2 1.7 2.6 1.7 4.2s-.6 3-1.7 4.1c-1.1 1.1-2.5 1.7-4.1 1.7zm0-9.7c-1.1 0-2 .4-2.7 1.1-.8.8-1.1 1.7-1.1 2.8 0 1.1.4 2 1.1 2.7.8.8 1.7 1.2 2.7 1.2 1.1 0 2-.4 2.7-1.2.8-.8 1.2-1.7 1.2-2.7 0-1.1-.4-2-1.2-2.8-.7-.8-1.6-1.1-2.7-1.1z"/></svg>