<?xml version="1.0" encoding="UTF-8" standalone="no"?>
<svg width="130px" height="97px" viewBox="0 0 130 97" version="1.1" xmlns="http://www.w3.org/2000/svg" xmlns:xlink="http://www.w3.org/1999/xlink">
    <!-- Generator: Sketch 3.8.3 (29802) - http://www.bohemiancoding.com/sketch -->
    <title>Group 3</title>
    <desc>Created with Sketch.</desc>
    <defs></defs>
    <g id="Page-1" stroke="none" stroke-width="1" fill="none" fill-rule="evenodd">
        <g id="Website-Upload-4" transform="translate(-655.000000, -281.000000)" fill="#FFFFFF">
            <g id="Group-3" transform="translate(655.000000, 281.000000)">
                <path d="M37.0930469,82.8034375 C26.1665625,79.3938281 17.6061719,70.8349219 14.1965625,59.9069531 C14.0748437,59.5165625 13.6651563,59.296875 13.2658594,59.4200781 C12.8769531,59.5432813 12.6572656,59.9589062 12.7789844,60.3507813 C16.3355469,71.741875 25.258125,80.6659375 36.6492187,84.2210156 C36.7234375,84.2447656 36.7991406,84.2551562 36.871875,84.2551562 C37.1865625,84.2551562 37.4804688,84.0517969 37.5799219,83.7341406 C37.7016406,83.3422656 37.4834375,82.9266406 37.0930469,82.8034375 M38.4230469,78.5521875 C28.8903906,75.5775 21.4225,68.1110938 18.4478125,58.5784375 C18.3260938,58.1880469 17.9134375,57.9683594 17.5171094,58.0915625 C17.1267188,58.2147656 16.9085156,58.6303906 17.0302344,59.0222656 C20.151875,69.0180469 27.9819531,76.848125 37.9792188,79.9697656 C38.0519531,79.9920313 38.1276563,80.0024219 38.2003906,80.0024219 C38.5165625,80.0024219 38.8089844,79.8005469 38.9099219,79.4828906 C39.0316406,79.0910156 38.8134375,78.6753906 38.4230469,78.5521875 M35.7630469,87.0546875 C23.4442187,83.2086719 13.7913281,73.5572656 9.9453125,61.2369531 C9.82210937,60.8465625 9.41539062,60.6253906 9.01460937,60.7500781 C8.62273437,60.8732812 8.40601562,61.2889062 8.52773437,61.6807813 C12.5192187,74.4642187 22.5357812,84.4807813 35.3207031,88.4722656 C35.3934375,88.4960156 35.4691406,88.5064062 35.541875,88.5064062 C35.8580469,88.5064062 36.1504687,88.3030469 36.2514062,87.9853906 C36.373125,87.595 36.1549219,87.1778906 35.7630469,87.0546875 M58.3492969,14.7804687 C57.9544531,14.6572656 57.5417969,14.8784375 57.4185937,15.2673438 C57.296875,15.6592187 57.5165625,16.0748437 57.9054688,16.1965625 C68.8334375,19.6076563 77.3923438,28.1665625 80.8019531,39.0930469 C80.9028906,39.4107031 81.1953125,39.6140625 81.5114844,39.6140625 C81.5842188,39.6140625 81.6584375,39.6036719 81.7326562,39.5799219 C82.1230469,39.4582031 82.34125,39.0425781 82.2195313,38.6507031 C78.6644531,27.2596094 69.7403906,18.3355469 58.3492969,14.7804687 M57.0222656,19.0332031 C56.6244531,18.9070312 56.2147656,19.1296875 56.0915625,19.5200781 C55.9698438,19.9119531 56.1880469,20.3275781 56.5784375,20.4492969 C66.1096094,23.4254687 73.5745313,30.8903906 76.5507031,40.4215625 C76.6501563,40.7392187 76.9440625,40.9425781 77.2602344,40.9425781 C77.3314844,40.9425781 77.4071875,40.9321875 77.4814063,40.9084375 C77.8732813,40.7867188 78.09,40.3710938 77.9682812,39.9792187 C74.848125,29.9834375 67.0165625,22.1533594 57.0222656,19.0332031 M86.4722656,37.3221875 C82.4792969,24.5372656 72.4642188,14.5207031 59.6792969,10.5292188 C59.2814844,10.4030469 58.8717969,10.6257031 58.7485937,11.0160937 C58.626875,11.4079688 58.8435937,11.8235938 59.2354688,11.9453125 C71.5572656,15.7928125 81.2086719,25.4442187 85.0546875,37.7645313 C85.1541406,38.0821875 85.4465625,38.2855469 85.7627344,38.2855469 C85.8354688,38.2855469 85.9111719,38.2751563 85.9853906,38.2514063 C86.3757813,38.1296875 86.5939844,37.7140625 86.4722656,37.3221875 M47.5,50.984375 C46.680625,50.984375 46.015625,50.319375 46.015625,49.5 C46.015625,48.6821094 46.680625,48.015625 47.5,48.015625 C48.3178906,48.015625 48.984375,48.6821094 48.984375,49.5 C48.984375,50.319375 48.3178906,50.984375 47.5,50.984375 M47.5,46.53125 C45.8597656,46.53125 44.53125,47.86125 44.53125,49.5 C44.53125,51.1402344 45.8597656,52.46875 47.5,52.46875 C49.13875,52.46875 50.46875,51.1402344 50.46875,49.5 C50.46875,47.86125 49.13875,46.53125 47.5,46.53125 M47.5,62.859375 C40.1330469,62.859375 34.140625,56.8669531 34.140625,49.5 C34.140625,42.1345313 40.1330469,36.140625 47.5,36.140625 C54.8654688,36.140625 60.859375,42.1345313 60.859375,49.5 C60.859375,56.8669531 54.8654688,62.859375 47.5,62.859375 M47.5,33.171875 C38.4824219,33.171875 31.171875,40.4824219 31.171875,49.5 C31.171875,58.5190625 38.4824219,65.828125 47.5,65.828125 C56.5175781,65.828125 63.828125,58.5190625 63.828125,49.5 C63.828125,40.4824219 56.5175781,33.171875 47.5,33.171875 M47.5,94.03125 C22.9454687,94.03125 2.96875,74.0560156 2.96875,49.5 C2.96875,24.9454687 22.9454687,4.96875 47.5,4.96875 C72.0545313,4.96875 92.03125,24.9454687 92.03125,49.5 C92.03125,74.0560156 72.0545313,94.03125 47.5,94.03125 M47.5,2 C21.2666406,2 0,23.2666406 0,49.5 C0,75.7348437 21.2666406,97 47.5,97 C73.7333594,97 95,75.7348437 95,49.5 C95,23.2666406 73.7333594,2 47.5,2" id="Vinyl"></path>
                <path d="M117.484375,26.8679219 L117.484375,15.15625 C117.484375,13.8414063 116.408594,12.765625 115.09375,12.765625 C113.778906,12.765625 112.703125,13.8414063 112.703125,15.15625 L112.703125,26.8679219 C107.254891,25.7562812 103.140625,20.9296094 103.140625,15.15625 C103.140625,8.56529687 108.502797,3.203125 115.09375,3.203125 C121.684703,3.203125 127.046875,8.56529687 127.046875,15.15625 C127.046875,20.9296094 122.932609,25.7562812 117.484375,26.8679219 L117.484375,26.8679219 Z M115.09375,0.8125 C107.171219,0.8125 100.75,7.23371875 100.75,15.15625 C100.75,22.2611875 105.920922,28.1445156 112.703125,29.2848437 L112.703125,69.1509062 L108.622328,73.2317031 C107.687594,72.2969688 106.174328,72.2969688 105.241984,73.2317031 L95.0985625,83.375125 C94.1662188,84.3074688 94.1662188,85.8207344 95.0985625,86.7554688 L98.4789063,90.1358125 C99.4136406,91.0681562 100.926906,91.0681562 101.85925,90.1358125 L112.002672,79.9923906 C112.937406,79.0600469 112.937406,77.5467812 112.002672,76.6120469 L116.786313,71.8284063 C116.881938,71.7327813 116.924969,71.6108594 117.001469,71.5056719 C117.106656,71.3574531 117.228578,71.2235781 117.297906,71.0562344 C117.412656,70.7813125 117.46525,70.4920469 117.472422,70.198 C117.472422,70.178875 117.484375,70.1621406 117.484375,70.140625 L117.484375,29.2848437 C124.266578,28.1445156 129.4375,22.2611875 129.4375,15.15625 C129.4375,7.23371875 123.016281,0.8125 115.09375,0.8125 L115.09375,0.8125 Z" id="Turntable"></path>
            </g>
        </g>
    </g>
</svg>