<?xml version="1.0" encoding="utf-8"?>
<!-- Generator: Adobe Illustrator 17.1.0, SVG Export Plug-In . SVG Version: 6.00 Build 0)  -->
<!DOCTYPE svg PUBLIC "-//W3C//DTD SVG 1.1//EN" "http://www.w3.org/Graphics/SVG/1.1/DTD/svg11.dtd">
<svg version="1.1" id="Calque_1" xmlns="http://www.w3.org/2000/svg" xmlns:xlink="http://www.w3.org/1999/xlink" x="0px" y="0px"
	 viewBox="206 52.3 19.9 19.5" enable-background="new 206 52.3 19.9 19.5" xml:space="preserve">
<g>
	<g>
		<g>
			<defs>
				<rect id="SVGID_1_" x="206" y="52.3" width="18.2" height="17"/>
			</defs>
			<clipPath id="SVGID_2_">
				<use xlink:href="#SVGID_1_"  overflow="visible"/>
			</clipPath>
			<g clip-path="url(#SVGID_2_)">
				<defs>
					<rect id="SVGID_3_" x="186" y="44" width="60" height="50"/>
				</defs>
				<clipPath id="SVGID_4_">
					<use xlink:href="#SVGID_3_"  overflow="visible"/>
				</clipPath>
				<g clip-path="url(#SVGID_4_)" enable-background="new    ">
					<g>
						<defs>
							<rect id="SVGID_5_" x="206" y="52" width="19" height="18"/>
						</defs>
						<clipPath id="SVGID_6_">
							<use xlink:href="#SVGID_5_"  overflow="visible"/>
						</clipPath>
						<g clip-path="url(#SVGID_6_)">
							<defs>
								<rect id="SVGID_7_" x="206" y="52" width="19" height="18"/>
							</defs>
							<clipPath id="SVGID_8_">
								<use xlink:href="#SVGID_7_"  overflow="visible"/>
							</clipPath>
							<g opacity="0.3549" clip-path="url(#SVGID_8_)" enable-background="new    ">
								<g>
									<defs>
										<rect id="SVGID_9_" x="206" y="52" width="19" height="18"/>
									</defs>
									<clipPath id="SVGID_10_">
										<use xlink:href="#SVGID_9_"  overflow="visible"/>
									</clipPath>
									<g clip-path="url(#SVGID_10_)">
										<defs>
											<rect id="SVGID_11_" x="206" y="52" width="19" height="18"/>
										</defs>
										<clipPath id="SVGID_12_">
											<use xlink:href="#SVGID_11_"  overflow="visible"/>
										</clipPath>
										
											<ellipse clip-path="url(#SVGID_12_)" fill="none" stroke="#FFFFFF" stroke-width="0.7" stroke-linecap="round" stroke-miterlimit="10" stroke-dasharray="2,2,2,2" cx="235.2" cy="84.8" rx="34.2" ry="32.5"/>
									</g>
								</g>
							</g>
						</g>
						<g clip-path="url(#SVGID_6_)">
							<defs>
								<path id="SVGID_13_" d="M214.5,60.6L214.5,60.6c-1.4,0-2.5-1.1-2.5-2.5s1.1-2.5,2.5-2.5c1.4,0,2.5,1.1,2.5,2.5
									S215.8,60.6,214.5,60.6z M214.5,59.8L214.5,59.8c0.9,0,1.7-0.8,1.7-1.7c0-0.9-0.8-1.7-1.7-1.7s-1.7,0.8-1.7,1.7
									C212.7,59.1,213.5,59.8,214.5,59.8z"/>
							</defs>
							<clipPath id="SVGID_14_">
								<use xlink:href="#SVGID_13_"  overflow="visible"/>
							</clipPath>
							<g clip-path="url(#SVGID_14_)">
								<defs>
									<rect id="SVGID_15_" x="206" y="52" width="19" height="18"/>
								</defs>
								<clipPath id="SVGID_16_">
									<use xlink:href="#SVGID_15_"  overflow="visible"/>
								</clipPath>
								<rect x="207" y="50.7" clip-path="url(#SVGID_16_)" fill="#FFFFFF" width="14.9" height="14.9"/>
							</g>
						</g>
						<g clip-path="url(#SVGID_6_)">
							<defs>
								<path id="SVGID_17_" d="M211.1,55.3c-0.1-0.1-0.1-0.4,0-0.5c0.1-0.1,0.4-0.2,0.5,0l0.5,0.5c0.1,0.1,0.1,0.4,0,0.5
									c-0.1,0.1-0.4,0.2-0.5,0L211.1,55.3z M210.1,58.5c-0.2,0-0.4-0.2-0.4-0.4c0-0.2,0.2-0.4,0.4-0.4h0.7c0.2,0,0.4,0.2,0.4,0.4
									c0,0.2-0.2,0.4-0.4,0.4H210.1z M211.6,61.5c-0.1,0.1-0.4,0.1-0.5,0c-0.1-0.1-0.2-0.4,0-0.5l0.5-0.5c0.1-0.1,0.4-0.1,0.5,0
									c0.1,0.1,0.2,0.4,0,0.5L211.6,61.5z M214.8,62.5c0,0.2-0.2,0.4-0.4,0.4c-0.2,0-0.4-0.2-0.4-0.4v-0.7c0-0.2,0.2-0.4,0.4-0.4
									c0.2,0,0.4,0.2,0.4,0.4V62.5z M217.8,60.9c0.1,0.1,0.1,0.4,0,0.5c-0.1,0.1-0.4,0.2-0.5,0l-0.5-0.5c-0.1-0.1-0.1-0.4,0-0.5
									c0.1-0.1,0.4-0.2,0.5,0L217.8,60.9z M218.8,57.8c0.2,0,0.4,0.2,0.4,0.4c0,0.2-0.2,0.4-0.4,0.4H218c-0.2,0-0.4-0.2-0.4-0.4
									c0-0.2,0.2-0.4,0.4-0.4H218.8z M217.3,54.8c0.1-0.1,0.4-0.1,0.5,0c0.1,0.1,0.2,0.4,0,0.5l-0.5,0.5c-0.1,0.1-0.4,0.1-0.5,0
									c-0.1-0.1-0.2-0.4,0-0.5L217.3,54.8z M214.1,53.8c0-0.2,0.2-0.4,0.4-0.4c0.2,0,0.4,0.2,0.4,0.4v0.7c0,0.2-0.2,0.4-0.4,0.4
									c-0.2,0-0.4-0.2-0.4-0.4V53.8z"/>
							</defs>
							<clipPath id="SVGID_18_">
								<use xlink:href="#SVGID_17_"  overflow="visible"/>
							</clipPath>
							<g clip-path="url(#SVGID_18_)">
								<defs>
									<rect id="SVGID_19_" x="206" y="52" width="19" height="18"/>
								</defs>
								<clipPath id="SVGID_20_">
									<use xlink:href="#SVGID_19_"  overflow="visible"/>
								</clipPath>
								<rect x="204.7" y="48.4" clip-path="url(#SVGID_20_)" fill="#FFFFFF" width="19.4" height="19.4"/>
							</g>
						</g>
					</g>
				</g>
			</g>
		</g>
		<g>
			
				<line fill="none" stroke="#FFFFFF" stroke-width="2" stroke-linecap="round" stroke-linejoin="round" stroke-miterlimit="10" x1="224.9" y1="69.3" x2="206.7" y2="69.3"/>
		</g>
		<g>
			<defs>
				<circle id="SVGID_21_" cx="214.6" cy="69.6" r="2"/>
			</defs>
			<clipPath id="SVGID_22_">
				<use xlink:href="#SVGID_21_"  overflow="visible"/>
			</clipPath>
			<g clip-path="url(#SVGID_22_)">
				<defs>
					<rect id="SVGID_23_" x="186" y="44" width="60" height="50"/>
				</defs>
				<clipPath id="SVGID_24_">
					<use xlink:href="#SVGID_23_"  overflow="visible"/>
				</clipPath>
				<rect x="207.6" y="62.6" clip-path="url(#SVGID_24_)" fill="#FFFFFF" width="14" height="14"/>
			</g>
		</g>
	</g>
</g>
</svg>
