<svg xmlns="http://www.w3.org/2000/svg" viewBox="0 0 14.8 14.8"><g fill="#FFF"><path d="M11.4 13.5c-.1 0-.3-.1-.3-.2-.4-.9-.4-1.5-.2-1.9.6-1.1.7-1.5.5-2.1-.1-.2-.2-.4-.2-.6-.1-.3-.3-.8-.5-1-.2.2-.4.4-.5.6-.3.4-.5.7-.8.9-.6.3-1.3-.3-2-.8l-.3-.3c-.8-.6-.4-2-.1-2.8v-.1c.2-.6.5-.9.9-1.2l.7-.7c.7-.9 1.4-.6 2.1-.3.3.1.5.3.9.4.5.1 1.4.5 2.3 1 .2.1.2.3.1.5s-.3.2-.5.1c-.9-.5-1.7-.8-2.2-1-.4-.1-.7-.3-1-.4-.7-.3-.9-.4-1.3 0-.2.4-.5.7-.7.9-.3.3-.5.5-.6.9v.1c-.2.6-.6 1.7-.1 2.1l.3.3c.3.2.9.7 1.1.7.2-.1.4-.4.6-.7.2-.3.5-.6.7-.8.2-.1.4-.2.6-.1.4.1.7.7 1 1.4 0 .2.1.4.1.6.4.9.1 1.7-.5 2.7-.1.1-.1.4.2 1.3.1.2 0 .4-.2.5h-.1zM3.6 11.8c-.6 0-1.2-.4-1.7-1-.1-.2-.4-.3-.8-.3-.2 0-.3-.2-.3-.4s.2-.3.4-.3c.6 0 1 .2 1.3.5.4.5.9.8 1.2.8.1 0 .2-.1.3-.2 0-.3-.7-1.1-1.1-1.6C2 8.4 1.7 8 1.8 7.6c.2-1 .8-1.6 1.6-1.8.5-.1 1.5-1.3 1.9-2.2.1-.4.1-.6.1-.6-.1-.2-1-.4-3 0-.2 0-.4-.1-.4-.3 0-.2.1-.4.3-.4 2.1-.4 3.3-.3 3.7.3.2.3.2.7 0 1.2-.4 1-1.5 2.4-2.3 2.6-.7.2-1 .6-1.2 1.3.1.2.5.8.8 1.2 1 1.2 1.5 1.9 1.2 2.4-.2.3-.5.5-.9.5z"/></g><path fill="#FFF" d="M7.4 14.8C3.3 14.8 0 11.5 0 7.4S3.3 0 7.4 0s7.4 3.3 7.4 7.4-3.3 7.4-7.4 7.4zM7.4.7a6.7 6.7 0 1 0 0 13.4A6.7 6.7 0 0 0 7.4.7z"/></svg>