<?xml version="1.0" encoding="UTF-8" standalone="no"?>
<svg width="139px" height="81px" viewBox="0 0 139 81" version="1.1" xmlns="http://www.w3.org/2000/svg" xmlns:xlink="http://www.w3.org/1999/xlink">
    <!-- Generator: Sketch 3.6.1 (26313) - http://www.bohemiancoding.com/sketch -->
    <title>Group</title>
    <desc>Created with Sketch.</desc>
    <defs>
        <path id="path-1" d="M118.97881,79.8965289 C129.994959,79.8965289 138.924992,70.9751736 138.924992,59.9704793 C138.924992,48.965438 129.994959,40.0444298 118.97881,40.0444298 C107.963008,40.0444298 99.0326281,48.965438 99.0326281,59.9704793 C99.0326281,70.9751736 107.963008,79.8965289 118.97881,79.8965289 L118.97881,79.8965289 Z"></path>
        <path id="path-3" d="M118.97881,79.8965289 C129.994959,79.8965289 138.924992,70.9751736 138.924992,59.9704793 C138.924992,48.965438 129.994959,40.0444298 118.97881,40.0444298 C107.963008,40.0444298 99.0326281,48.965438 99.0326281,59.9704793 C99.0326281,70.9751736 107.963008,79.8965289 118.97881,79.8965289 L118.97881,79.8965289 Z"></path>
        <path id="path-5" d="M118.97881,79.8965289 C129.994959,79.8965289 138.924992,70.9751736 138.924992,59.9704793 C138.924992,48.965438 129.994959,40.0444298 118.97881,40.0444298 C107.963008,40.0444298 99.0326281,48.965438 99.0326281,59.9704793 C99.0326281,70.9751736 107.963008,79.8965289 118.97881,79.8965289 L118.97881,79.8965289 Z"></path>
        <path id="path-7" d="M118.97881,79.8965289 C129.994959,79.8965289 138.924992,70.9751736 138.924992,59.9704793 C138.924992,48.965438 129.994959,40.0444298 118.97881,40.0444298 C107.963008,40.0444298 99.0326281,48.965438 99.0326281,59.9704793 C99.0326281,70.9751736 107.963008,79.8965289 118.97881,79.8965289 L118.97881,79.8965289 Z"></path>
        <path id="path-9" d="M118.97881,79.8965289 C129.994959,79.8965289 138.924992,70.9751736 138.924992,59.9704793 C138.924992,48.965438 129.994959,40.0444298 118.97881,40.0444298 C107.963008,40.0444298 99.0326281,48.965438 99.0326281,59.9704793 C99.0326281,70.9751736 107.963008,79.8965289 118.97881,79.8965289 L118.97881,79.8965289 Z"></path>
    </defs>
    <g id="Page-1" stroke="none" stroke-width="1" fill="none" fill-rule="evenodd">
        <g id="Terms-of-Uses" transform="translate(-931.000000, -190.000000)">
            <g id="My-tracks-Copy-4-+-1.1-L'utilisation-du-+-2.1-Pour-utiliser-le" transform="translate(-16.000000, 0.000000)">
                <g id="Group" transform="translate(947.000000, 191.000000)">
                    <path d="M86.9297904,0.0909244674 L92.1946793,5.66546992 C92.2795681,5.75492447 92.4129015,5.78066992 92.5257904,5.72961538 L99.5515681,2.53586992 C99.8040126,2.42154265 100.058235,2.69077901 99.9226793,2.92903356 L96.148457,9.56219719 C96.0880126,9.66910629 96.1040126,9.80176083 96.1889015,9.89121538 L101.452013,15.4627063 C101.641346,15.6629972 101.459124,15.9837245 101.186235,15.9304881 L93.5893459,14.4581972 C93.4671237,14.4346336 93.3435681,14.4909245 93.2831237,14.5973972 L89.5102348,21.2357972 C89.3746793,21.4740517 89.0080126,21.4029245 88.9746793,21.1319426 L88.0546793,13.5889608 C88.0400126,13.4676517 87.9471237,13.3694699 87.8249015,13.3459063 L80.2315681,11.8792881 C79.9586793,11.8264881 79.9142348,11.4616881 80.1666793,11.3469245 L87.192457,8.15361538 C87.3053459,8.10256083 87.3715681,7.98561538 87.3569015,7.86430629 L86.4346793,0.316088104 C86.4013459,0.0451062856 86.7409015,-0.108930078 86.9297904,0.0909244674 L86.9297904,0.0909244674 Z" id="Imported-Layers-Copy-13" stroke="#FFFFFF" stroke-width="2" stroke-linecap="round" stroke-linejoin="round"></path>
                    <path d="M44.9086015,20.0644048 L48.6378978,24.0130412 C48.6980274,24.0764048 48.7924719,24.0946412 48.8724348,24.0584776 L53.8490274,21.7962412 C54.0278423,21.7152594 54.2079163,21.9059685 54.1118978,22.0747321 L51.4384904,26.773223 C51.3956756,26.8489503 51.4070089,26.9429139 51.4671386,27.0062776 L55.1951756,30.9527503 C55.3292867,31.094623 55.2002126,31.3218048 55.0069163,31.2840957 L49.6257867,30.241223 C49.5392126,30.2245321 49.4516941,30.2644048 49.4088793,30.339823 L46.7364163,35.042023 C46.6403978,35.2107866 46.3806756,35.1604048 46.3570645,34.9684594 L45.7053978,29.6255139 C45.6950089,29.5395866 45.6292126,29.4700412 45.5426386,29.4533503 L40.1640274,28.4144957 C39.9707311,28.3770957 39.9392497,28.1186957 40.1180645,28.0374048 L45.0946571,25.7754776 C45.17462,25.7393139 45.2215274,25.6564776 45.2111386,25.5705503 L44.5578978,20.2238957 C44.5342867,20.0319503 44.7748052,19.9228412 44.9086015,20.0644048 L44.9086015,20.0644048 Z" id="Imported-Layers-Copy-14" stroke="#FFFFFF" stroke-width="2" stroke-linecap="round" stroke-linejoin="round" transform="translate(48.500000, 28.500000) scale(-1, 1) rotate(-50.000000) translate(-48.500000, -28.500000) "></path>
                    <path d="M34.0423777,60.0530393 L37.1135629,63.3048575 C37.1630814,63.3570393 37.2408592,63.3720575 37.306711,63.3422756 L41.4050814,61.4792575 C41.5523407,61.4125665 41.700637,61.5696211 41.6215629,61.7086029 L39.4199333,65.5779484 C39.384674,65.640312 39.3940073,65.7176938 39.4435259,65.7698756 L42.513674,69.019912 C42.6241185,69.1367484 42.5178222,69.3238393 42.358637,69.2927847 L37.9271185,68.4339484 C37.8558222,68.4202029 37.7837481,68.4530393 37.7484888,68.5151484 L35.547637,72.3875484 C35.4685629,72.5265302 35.254674,72.4850393 35.2352296,72.3269665 L34.6985629,67.9268938 C34.6900073,67.8561302 34.6358222,67.7988575 34.5645259,67.785112 L30.1350814,66.9295847 C29.9758962,66.8987847 29.9499703,66.6859847 30.0972296,66.6190393 L34.1955999,64.7562756 C34.2614518,64.7264938 34.3000814,64.6582756 34.2915259,64.587512 L33.7535629,60.1843847 C33.7341185,60.026312 33.9321925,59.9364575 34.0423777,60.0530393 L34.0423777,60.0530393 Z" id="Imported-Layers-Copy-15" stroke="#FFFFFF" stroke-width="1.5" stroke-linecap="round" stroke-linejoin="round" transform="translate(37.000000, 67.000000) scale(-1, 1) rotate(-50.000000) translate(-37.000000, -67.000000) "></path>
                    <path d="M4.04237772,35.0530393 L7.1135629,38.3048575 C7.16308142,38.3570393 7.2408592,38.3720575 7.30671105,38.3422756 L11.4050814,36.4792575 C11.5523407,36.4125665 11.700637,36.5696211 11.6215629,36.7086029 L9.41993327,40.5779484 C9.38467401,40.640312 9.39400735,40.7176938 9.44352586,40.7698756 L12.513674,44.019912 C12.6241185,44.1367484 12.5178222,44.3238393 12.358637,44.2927847 L7.92711846,43.4339484 C7.85582216,43.4202029 7.78374809,43.4530393 7.74848883,43.5151484 L5.54763698,47.3875484 C5.4685629,47.5265302 5.25467401,47.4850393 5.23522957,47.3269665 L4.6985629,42.9268938 C4.69000735,42.8561302 4.63582216,42.7988575 4.56452586,42.785112 L0.13508142,41.9295847 C-0.0241037649,41.8987847 -0.0500296908,41.6859847 0.0972295685,41.6190393 L4.19559994,39.7562756 C4.26145179,39.7264938 4.30008142,39.6582756 4.29152586,39.587512 L3.7535629,35.1843847 C3.73411846,35.026312 3.93219253,34.9364575 4.04237772,35.0530393 L4.04237772,35.0530393 Z" id="Imported-Layers-Copy-16" stroke="#FFFFFF" stroke-width="1.5" stroke-linecap="round" stroke-linejoin="round" transform="translate(7.000000, 42.000000) scale(-1, 1) rotate(-90.000000) translate(-7.000000, -42.000000) "></path>
                    <mask id="mask-2" fill="white">
                        <use xlink:href="#path-1"></use>
                    </mask>
                    <g id="Clip-2"></g>
                    <path d="M118.97881,79.8965289 C129.994959,79.8965289 138.924992,70.9751736 138.924992,59.9704793 C138.924992,48.965438 129.994959,40.0444298 118.97881,40.0444298 C107.963008,40.0444298 99.0326281,48.965438 99.0326281,59.9704793 C99.0326281,70.9751736 107.963008,79.8965289 118.97881,79.8965289 L118.97881,79.8965289 Z" id="Stroke-1" stroke="#FFFFFF" stroke-width="2" stroke-linecap="round" stroke-linejoin="round" mask="url(#mask-2)"></path>
                    <mask id="mask-4" fill="white">
                        <use xlink:href="#path-3"></use>
                    </mask>
                    <g id="Clip-5"></g>
                    <path d="M99.0326281,79.9444298 L138.932628,79.9444298 L138.932628,40.0444298 L99.0326281,40.0444298 L99.0326281,79.9444298 Z" id="Stroke-4" stroke="#FFFFFF" stroke-width="2" stroke-linecap="round" stroke-linejoin="round" mask="url(#mask-4)"></path>
                    <mask id="mask-6" fill="white">
                        <use xlink:href="#path-5"></use>
                    </mask>
                    <g id="Clip-8"></g>
                    <path d="M118.97881,79.8965289 C129.994959,79.8965289 138.924992,70.9751736 138.924992,59.9704793 C138.924992,48.965438 129.994959,40.0444298 118.97881,40.0444298 C107.963008,40.0444298 99.0326281,48.965438 99.0326281,59.9704793 C99.0326281,70.9751736 107.963008,79.8965289 118.97881,79.8965289 L118.97881,79.8965289 Z" id="Stroke-7" stroke="#FFFFFF" stroke-width="2" stroke-linecap="round" stroke-linejoin="round" mask="url(#mask-6)"></path>
                    <mask id="mask-8" fill="white">
                        <use xlink:href="#path-7"></use>
                    </mask>
                    <g id="Clip-11"></g>
                    <path d="M102.258298,46.5308264 C104.136149,45.9921157 112.89957,44.3221818 114.25086,46.5308264 C115.602149,48.7398182 110.664893,55.2508595 108.064017,56.0210909 C105.462793,56.7913223 104.547471,59.1912231 104.197934,60.563686 C103.848744,61.9361488 111.266083,68.7259174 110.191438,70.3090744 C109.116446,71.8922314 106.631851,71.7207603 104.197934,68.6887769 C101.764017,65.6564463 91.6416694,69.6502645 92.0953388,67.1885785 C92.5490083,64.7272397 96.6559835,51.3042479 96.6559835,51.3042479 C96.6559835,51.3042479 100.380793,47.0695372 102.258298,46.5308264 L102.258298,46.5308264 Z M130.836694,49.1761322 C127.343752,48.1625785 125.68076,45.786281 123.329802,48.4635207 C120.97919,51.1411074 119.786182,51.3549256 119.109322,53.5830083 C118.43281,55.8107438 117.203355,59.4244793 119.109322,60.9635537 C121.015636,62.5029752 123.199983,64.6477521 124.389868,63.9080661 C125.579405,63.1683802 126.87481,60.7757686 128.217769,59.6799504 C129.560727,58.5841322 130.599967,62.4963802 131.549306,64.5658347 C132.498645,66.6349421 131.881835,68.2979339 130.163653,71.4503636 C128.445471,74.6024463 136.064826,85.3228595 137.433124,89.0955702 C138.801421,92.868281 147.038281,96.0578512 147.038281,96.0578512 L146.813355,84.7001488 C146.813355,84.7001488 155.600727,75.5052727 150.681868,65.4138182 C145.763355,55.3223636 134.329636,50.189686 130.836694,49.1761322 L130.836694,49.1761322 Z" id="Stroke-10" stroke="#FFFFFF" stroke-width="2" stroke-linecap="round" stroke-linejoin="round" mask="url(#mask-8)"></path>
                    <mask id="mask-10" fill="white">
                        <use xlink:href="#path-9"></use>
                    </mask>
                    <g id="Clip-14"></g>
                </g>
            </g>
        </g>
    </g>
</svg>