<svg xmlns="http://www.w3.org/2000/svg" viewBox="0 0 239.9 126.9"><path fill="#FFF" d="M43.5 78.2H38c-.6 0-1-.4-1-1V68c0-.6.4-1 1-1h5.5c.6 0 1 .4 1 1v9.1c0 .6-.5 1.1-1 1.1zm-4.5-2h3.5V69H39v7.2z"/><path fill="#FFF" d="M59 96.4H33.4c-.6 0-1-.4-1-1v-11l-2.5.9v.9c0 .6-.4 1-1 1h-4.6c-.5 0-.9-.4-1-.8-.1-.5.2-.9.7-1.1l4-1.4v-1.2c0-.6.4-1 1-1h3.5v-3.6h-1.3c-.6 0-1-.4-1-1s.4-1 1-1h1.3c0-.5.5-.9 1-.9H59c.5 0 1 .4 1 .9h1.3c.6 0 1 .4 1 1s-.4 1-1 1H60v3.6h1.3c.6 0 1 .4 1 1s-.4 1-1 1H60v11.6c0 .7-.5 1.1-1 1.1zm-24.6-2H58V83.8H34.4v10.6zm.4-12.6H58v-3.6H34.4v3.6c.1-.1.3-.1.4 0z"/><path fill="#FFF" d="M43.5 78.2H38c-.6 0-1-.4-1-1V68c0-.6.4-1 1-1h1.7v-5.9c0-.4.2-.7.6-.9.2-.3.5-.6.9-.6h4.6c.6 0 .6 2 0 2h-4V67h1.7c.6 0 1 .4 1 1v9.1c0 .6-.5 1.1-1 1.1zm-4.5-2h3.5V69H39v7.2z"/><path fill="#FFF" d="M65.8 74.5c-2.5 0-4.7-2.5-5.9-6.8l-14.8-3.6c-.4-.1-.8-.5-.8-1v-4.9c0-.5.3-.9.8-1l14.6-3.5c1.2-4.8 3.5-7.8 6.2-7.8 4 0 6.9 6.1 6.9 14.2s-3 14.4-7 14.4zM46.3 62.4L61 66c.4.1.6.4.7.7.9 3.5 2.6 5.8 4.2 5.8 2.3 0 4.9-5 4.9-12.2S68.2 48 65.8 48c-1.8 0-3.5 2.7-4.4 6.8-.1.4-.4.7-.7.8l-14.4 3.5v3.3zM.706 30.53L21 50.826l-.707.707L0 31.238z"/><g><path fill="#FFF" d="M75.76 105.952l20.293 20.294-.707.707-20.294-20.294z"/></g><g><path fill="#FFF" d="M95.705 30.43l.707.707L76.118 51.43l-.707-.706z"/></g><g><path fill="#FFF" d="M20.688 105.923l.707.707L1.1 126.924l-.706-.707z"/></g><g><path fill-rule="evenodd" clip-rule="evenodd" fill="#FFF" d="M239.9 28.6c.2.7-.5 1.6-1.6 1.9-1.1.4-2.2.1-2.5-.6-.3-.7.4-1.6 1.5-2.1.4-.2.9-.2 1.3-.2l-1.8-5-4.8 3.1s.8 2.1 1.5 4.3c.3.7.4 1.2.4 1.5.3.7-.4 1.6-1.5 2.1-1.1.4-2.2.1-2.5-.6-.3-.7.4-1.6 1.5-2.1.5-.2.9-.2 1.3-.2l-.4-1.2s-1.4-3.8-1.6-4.5c-.2-.7 0-.9.3-1.1.4-.3 4.7-3.5 5.2-3.7.6-.2.7.1.8.4l2.6 7.3c.3.3.3.5.3.7"/></g><g><path fill-rule="evenodd" clip-rule="evenodd" fill="#FFF" d="M215.1 12.9c-.3 1-1.8 1.6-3.4 1.3-1.7-.3-2.9-1.4-2.7-2.6.2-1.1 1.7-1.8 3.4-1.5.7.1 1.3.4 1.8.7l1.3-7.6-8.3.4s-.6 3.2-1.1 6.5c-.2 1.1-.4 1.8-.6 2.2v.1c-.2 1.1-1.7 1.8-3.4 1.5-1.7-.3-2.9-1.4-2.7-2.6.2-1.1 1.7-1.8 3.4-1.5.7.1 1.3.4 1.8.7l.3-1.8s1-5.8 1.2-6.8c.2-1 .6-1.1 1.2-1.2.6-.1 8.4-1 9.3-.9.9.2.8.7.7 1.2l-2 11.1c0 .4-.1.6-.2.8"/></g><g><path fill-rule="evenodd" clip-rule="evenodd" fill="#FFF" d="M180.9 43.1c-.2 1.6-2.2 2.8-4.7 2.8-2.6 0-4.7-1.4-4.7-3.1 0-1.7 2.1-3.1 4.7-3.1 1 0 2 .2 2.8.6V28.8l-12.1 2.7v9.9c0 1.7-.1 2.7-.2 3.4v.1c0 1.7-2.1 3.1-4.7 3.1s-4.7-1.4-4.7-3.1 2.1-3.1 4.7-3.1c1.1 0 2 .2 2.8.6v-2.7-10.4c0-1.5.6-1.8 1.5-2.1.9-.3 12.2-3.7 13.5-3.7 1.3 0 1.4.8 1.4 1.5v16.9c-.1.6-.2.9-.3 1.2"/></g></svg>