<svg xmlns="http://www.w3.org/2000/svg" viewBox="0 0 19.3 17.8"><path fill="#FFF" d="M4.1 17.8c-2.3 0-4.1-1.1-4.1-2.6s1.8-2.6 4.1-2.6c.6 0 1.1.1 1.7.2V4.5c0-1.4.8-1.7 1.5-1.9.1 0 .5-.1 1-.3C12.5 1.2 16.9 0 17.7 0c1.6 0 1.6 1.2 1.6 1.6v11.6c0 .3-.1.6-.2.8-.2 1.3-2 2.3-4.1 2.3-2.3 0-4.1-1.1-4.1-2.6s1.8-2.6 4.1-2.6c.6 0 1.1.1 1.6.2V4.7L8.4 6.4v6.4c0 1-.1 1.8-.2 2.4 0 1.4-1.8 2.6-4.1 2.6zm0-4.2c-1.8 0-3.1.8-3.1 1.6s1.3 1.6 3.1 1.6 3.1-.8 3.1-1.6V15c.1-.5.2-1.3.2-2.2V5.6l10.3-2.1v9.3l-.7-.3c-.6-.2-1.2-.4-1.9-.4-1.8 0-3.1.8-3.1 1.6s1.3 1.6 3.1 1.6 3-.8 3.1-1.5v-.1c.1-.2.1-.4.1-.5V1.6c0-.4 0-.6-.6-.6-.8 0-7.1 1.7-9.2 2.3-.5.1-.8.2-1 .2-.6.2-.8.2-.8 1v9.8l-.6-.3c-.6-.3-1.3-.4-2-.4z"/></svg>