<svg xmlns="http://www.w3.org/2000/svg" xmlns:xlink="http://www.w3.org/1999/xlink" viewBox="0 0 410 74"><g opacity=".8"><defs><path id="a" d="M0 0h410v74H0z"/></defs><clipPath id="b"><use xlink:href="#a" overflow="visible"/></clipPath><g clip-path="url(#b)"><defs><path id="c" d="M0 0h410v74H0z"/></defs><clipPath id="d"><use xlink:href="#c" overflow="visible"/></clipPath><g clip-path="url(#d)"><defs><path id="e" d="M0 0h410v74H0z"/></defs><clipPath id="f"><use xlink:href="#e" overflow="visible"/></clipPath><g clip-path="url(#f)"><defs><path id="g" d="M0 0h410v74H0z"/></defs><clipPath id="h"><use xlink:href="#g" overflow="visible"/></clipPath><g clip-path="url(#h)"><path fill="#FFF" d="M177 34h223.9v3H177z"/></g><g clip-path="url(#h)"><path fill="#FFF" d="M164.7 60.4c-.4 0-.7-.1-1-.4-.6-.6-.6-1.5 0-2.1l21.8-22.8-21.8-22c-.6-.6-.6-1.5 0-2.1.6-.6 1.5-.6 2.1 0l23.8 24.1L165.8 60c-.3.2-.7.4-1.1.4z"/></g><g clip-path="url(#h)"><path fill="#FFF" d="M155.1 60.4c-.4 0-.7-.1-1-.4-.6-.6-.6-1.5 0-2.1l21.8-22.8-21.8-22c-.6-.6-.6-1.5 0-2.1.6-.6 1.5-.6 2.1 0L180 35.1 156.2 60c-.4.2-.7.4-1.1.4z"/></g><g clip-path="url(#h)"><path fill="#FFF" d="M52.5 73.5c-.4 0-.8-.2-1.1-.5L16.2 36.2 51.5.6C52 0 53 0 53.6.5s.6 1.5 0 2.1L20.3 36.2 53.6 71c.6.6.6 1.5 0 2.1-.3.3-.7.4-1.1.4z"/></g><g clip-path="url(#h)"><path fill="#FFF" d="M36.5 73.5c-.4 0-.8-.2-1.1-.5L.2 36.2 35.5.6C36.1 0 37 0 37.6.5s.6 1.5 0 2.1L4.4 36.2 37.6 71c.6.6.6 1.5 0 2.1-.3.3-.7.4-1.1.4z"/></g><g clip-path="url(#h)"><path fill="#FFF" d="M408.4 45.6c-.4 0-.8-.2-1.1-.5l-9.4-9.8 9.4-9.5c.6-.6 1.5-.6 2.1 0 .6.6.6 1.5 0 2.1l-7.4 7.4 7.4 7.7c.6.6.6 1.5 0 2.1-.2.4-.6.5-1 .5z"/></g><g clip-path="url(#h)"><path fill="#FFF" d="M398.8 45.6c-.4 0-.8-.2-1.1-.5l-9.4-9.8 9.4-9.5c.6-.6 1.5-.6 2.1 0 .6.6.6 1.5 0 2.1l-7.4 7.4 7.4 7.7c.6.6.6 1.5 0 2.1-.2.4-.6.5-1 .5z"/></g></g></g></g></g></svg>