<svg id="Layer_1" xmlns="http://www.w3.org/2000/svg" viewBox="-379 289.7 40.4 23.3"><style>.st0{fill:url(#SVGID_1_)}.st1{fill:url(#SVGID_2_)}.st2{fill:url(#SVGID_3_)}.st3{fill:url(#SVGID_4_)}.st4{fill:url(#SVGID_5_)}.st5{fill:url(#SVGID_6_)}.st6{fill:#FFF}</style><linearGradient id="SVGID_1_" gradientUnits="userSpaceOnUse" x1="-377.791" y1="273.711" x2="-377.791" y2="164.911" gradientTransform="matrix(1 0 0 -1 0 605.302)"><stop offset="0" stop-color="#f08300"/><stop offset=".205" stop-color="#ef7c00"/><stop offset=".538" stop-color="#ec6707"/><stop offset=".954" stop-color="#e74011"/><stop offset="1" stop-color="#e63b11"/></linearGradient><path class="st0" d="M-377.8 386z"/><linearGradient id="SVGID_2_" gradientUnits="userSpaceOnUse" x1="-377.791" y1="402.638" x2="-377.791" y2="258.656" gradientTransform="matrix(1 0 0 -1 0 605.302)"><stop offset="0" stop-color="#f08300"/><stop offset=".205" stop-color="#ef7c00"/><stop offset=".538" stop-color="#ec6707"/><stop offset=".954" stop-color="#e74011"/><stop offset="1" stop-color="#e63b11"/></linearGradient><path class="st1" d="M-377.8 386z"/><linearGradient id="SVGID_3_" gradientUnits="userSpaceOnUse" x1="-377.791" y1="278.51" x2="-377.791" y2="160.11" gradientTransform="matrix(1 0 0 -1 0 605.302)"><stop offset="0" stop-color="#f08300"/><stop offset=".205" stop-color="#ef7c00"/><stop offset=".538" stop-color="#ec6707"/><stop offset=".954" stop-color="#e74011"/><stop offset="1" stop-color="#e63b11"/></linearGradient><path class="st2" d="M-377.8 386z"/><linearGradient id="SVGID_4_" gradientUnits="userSpaceOnUse" x1="-451.904" y1="402.91" x2="-451.904" y2="213.706" gradientTransform="matrix(1 0 0 -1 0 605.302)"><stop offset="0" stop-color="#f08300"/><stop offset=".205" stop-color="#ef7c00"/><stop offset=".538" stop-color="#ec6707"/><stop offset=".954" stop-color="#e74011"/><stop offset="1" stop-color="#e63b11"/></linearGradient><path class="st3" d="M-451.9 387.2v.1z"/><linearGradient id="SVGID_5_" gradientUnits="userSpaceOnUse" x1="-433.587" y1="402.75" x2="-433.587" y2="213.71" gradientTransform="matrix(1 0 0 -1 0 605.302)"><stop offset="0" stop-color="#f08300"/><stop offset=".205" stop-color="#ef7c00"/><stop offset=".538" stop-color="#ec6707"/><stop offset=".954" stop-color="#e74011"/><stop offset="1" stop-color="#e63b11"/></linearGradient><path class="st4" d="M-433.6 387z"/><linearGradient id="SVGID_6_" gradientUnits="userSpaceOnUse" x1="-506.014" y1="252.507" x2="-506.014" y2="182.107" gradientTransform="matrix(1 0 0 -1 0 605.302)"><stop offset="0" stop-color="#f08300"/><stop offset=".205" stop-color="#ef7c00"/><stop offset=".538" stop-color="#ec6707"/><stop offset=".954" stop-color="#e74011"/><stop offset="1" stop-color="#e63b11"/></linearGradient><path class="st5" d="M-506 388z"/><path class="st6" d="M-361.6 306l-.2-9.8c0-.3-.2-.5-.5-.5s-.5.2-.5.5l-.2 9.8.2 4.7c0 .3.2.5.5.5s.5-.2.5-.5l.2-4.7zM-363.3 306l-.3-10.2c0-.3-.2-.5-.4-.5s-.4.2-.4.5l-.2 10.2.2 4.7c0 .3.2.5.4.5s.4-.2.4-.5l.3-4.7zM-367 295.9c0-.2-.2-.4-.4-.4s-.4.2-.4.4l-.2 10.1.3 4.8c0 .2.2.4.4.4s.4-.2.4-.4l.3-4.8-.4-10.1zM-365.3 295.6c0-.3-.2-.5-.4-.5s-.4.2-.4.5l-.3 10.4.3 4.8c0 .3.2.5.4.5s.4-.2.4-.5l.3-4.8-.3-10.4zM-373.9 311.1c.1 0 .2-.1.2-.3l.4-4.9-.4-5c0-.1-.1-.3-.2-.3s-.2.1-.2.3l-.4 5 .4 4.9c0 .2.1.3.2.3zM-359.9 306l-.2-11.6c0-.2-.1-.4-.2-.5-.1-.1-.2-.1-.3-.1-.1 0-.2 0-.3.1-.1.1-.2.3-.2.5v.1l-.2 11.5.2 4.7c0 .1 0 .3.1.3.1.1.2.2.4.2.1 0 .3-.1.4-.2.1-.1.2-.2.2-.4v-.5l.1-4.1zM-372 301.3c0-.2-.1-.3-.3-.3-.1 0-.3.1-.3.3l-.3 4.7.3 4.9c0 .2.1.3.3.3.1 0 .3-.1.3-.3l.4-4.9-.4-4.7zM-370.6 298.1c-.2 0-.3.2-.3.3l-.3 7.6.3 4.9c0 .2.1.3.3.3.2 0 .3-.2.3-.3l.4-4.9-.4-7.6c0-.2-.2-.3-.3-.3zM-368.7 310.9l.3-4.9-.3-9.3c0-.2-.2-.4-.3-.4-.2 0-.3.2-.3.4l-.3 9.3.3 4.9c0 .2.2.4.3.4.2 0 .3-.2.3-.4zM-358.6 292.8c-.1-.1-.2-.1-.3-.1-.1 0-.2.1-.3.1-.1.1-.2.3-.2.5v.1l-.2 12.6.1 2.3.1 2.3c0 .3.2.6.5.6s.5-.3.5-.6l.2-4.6-.2-12.7c0-.2-.1-.4-.2-.5zM-378.5 308.7c.1 0 .1-.1.2-.2l.3-2.5-.3-2.5c0-.1-.1-.2-.2-.2s-.2.1-.2.2l-.3 2.5.3 2.5c0 .1.1.2.2.2zM-377 310.2c.1 0 .2-.1.2-.2l.5-4-.5-4.1c0-.1-.1-.2-.2-.2s-.2.1-.2.2l-.4 4.1.4 4c0 .1.1.2.2.2zM-375.5 310.9c.1 0 .2-.1.2-.2l.4-4.7-.4-4.9c0-.1-.1-.2-.2-.2s-.2.1-.2.2l-.4 4.9.4 4.7c.1.1.1.2.2.2zM-343.6 300c-.7 0-1.3.2-1.9.4-.4-5.1-4.1-9.1-8.7-9.1-1.1 0-2.2.2-3.2.7-.4.2-.5.3-.5.7v17.9c0 .3.2.6.5.6h13.8c2.7 0 5-2.5 5-5.6-.1-3.1-2.3-5.6-5-5.6z"/></svg>