<svg xmlns="http://www.w3.org/2000/svg" viewBox="0 0 77.6 108.4"><path fill="#FFF" d="M1.8 108.6c-.3 0-.6-.1-.8-.2-.9-.5-1.2-1.5-.8-2.4l54-105c.5-.9 1.5-1.2 2.4-.8.9.5 1.2 1.5.8 2.4l-54 105c-.3.6-.9 1-1.6 1z"/><path fill="#FFF" d="M76.8 108.6c-.7 0-1.3-.4-1.6-1l-54-105c-.5-.9-.1-2 .8-2.4.9-.5 2-.1 2.4.8l54 105c.5.9.1 2-.8 2.4-.2.1-.5.2-.8.2zM57.6 108.6c-.7 0-1.3-.4-1.6-1L28.1 53.4c-.5-.9-.1-2 .8-2.4.9-.5 2-.1 2.4.8L59.2 106c.5.9.1 2-.8 2.4-.2.1-.5.2-.8.2z"/><path fill="#FFF" d="M21 108.6c-.3 0-.6-.1-.8-.2-.9-.5-1.2-1.5-.8-2.4l18.3-35.6c.5-.9 1.5-1.2 2.4-.8.9.5 1.2 1.5.8 2.4l-18.3 35.6c-.3.6-.9 1-1.6 1zM13 108c-.2 0-.4 0-.6-.1-.6-.3-.8-1-.5-1.6l22.6-42.8c.3-.6 1-.8 1.6-.5s.8 1 .5 1.6L14 107.4c-.1.4-.6.6-1 .6zM42.7 41.7c-.2 0-.4 0-.6-.1-.6-.3-.8-1-.5-1.6L57.5 9.7c.3-.6 1-.8 1.6-.5.6.3.8 1 .5 1.6L43.8 41.1c-.2.4-.7.6-1.1.6zM35.9 41.7c-.4 0-.8-.2-1-.6l-14-24.4c-.3-.6-.1-1.3.4-1.6.6-.3 1.3-.1 1.6.4l14 24.4c.3.6.1 1.3-.4 1.6-.2.2-.4.2-.6.2z"/></svg>