<?xml version="1.0" encoding="utf-8"?>
<!-- Generator: Adobe Illustrator 17.1.0, SVG Export Plug-In . SVG Version: 6.00 Build 0)  -->
<!DOCTYPE svg PUBLIC "-//W3C//DTD SVG 1.1//EN" "http://www.w3.org/Graphics/SVG/1.1/DTD/svg11.dtd">
<svg version="1.1" id="Calque_1" xmlns="http://www.w3.org/2000/svg" xmlns:xlink="http://www.w3.org/1999/xlink" x="0px" y="0px"
	 viewBox="1298.8 0 1674.3 1984.2" enable-background="new 1298.8 0 1674.3 1984.2" xml:space="preserve">
<g id="Calque_2" display="none">
	
		<rect x="-39441.1" y="-133401.9" display="inline" fill="#3A1654" stroke="#FFFFFF" stroke-miterlimit="10" width="437604.9" height="598679.4"/>
</g>
<g>
	<g>
		<g>
			<g>
				<defs>
					<path id="SVGID_1_" d="M2471.3,466.9c262.6,126.4,447.4,389.1,447.4,700.3c0,428-350.2,778.1-778.1,778.1
						s-778.1-350.2-778.1-778.1c0-311.3,175.1-583.6,437.7-700.3v165.4c-175.1,107-291.8,311.3-291.8,535
						c0,350.2,282.1,632.2,632.2,632.2s632.2-282.1,632.2-632.2c0-223.7-116.7-418.2-291.8-535V466.9"/>
				</defs>
				<clipPath id="SVGID_2_">
					<use xlink:href="#SVGID_1_"  overflow="visible"/>
				</clipPath>
				<rect x="876.1" y="-19.5" clip-path="url(#SVGID_2_)" fill="#FFFFFF" width="2528.9" height="2451.1"/>
			</g>
		</g>
	</g>
	<g>
		<g>
			<g>
				<defs>
					<path id="SVGID_3_" d="M2023.9,126.4c0-58.4,48.6-107,107-107s107,48.6,107,107v661.4c0,58.4-48.6,107-107,107
						c-58.4,0-107-48.6-107-107L2023.9,126.4"/>
				</defs>
				<clipPath id="SVGID_4_">
					<use xlink:href="#SVGID_3_"  overflow="visible"/>
				</clipPath>
				<rect x="1537.5" y="-466.9" clip-path="url(#SVGID_4_)" fill="#FFFFFF" width="1196.4" height="1857.8"/>
			</g>
		</g>
	</g>
	<g>
		<g>
			<g id="Calque_1_1_">
				<defs>
					<path id="SVGID_5_" d="M2023.9,126.4c0-58.4,48.6-107,107-107s107,48.6,107,107v661.4c0,58.4-48.6,107-107,107
						c-58.4,0-107-48.6-107-107L2023.9,126.4"/>
				</defs>
				<clipPath id="SVGID_6_">
					<use xlink:href="#SVGID_5_"  overflow="visible"/>
				</clipPath>
				<g clip-path="url(#SVGID_6_)">
					<g>
						<g>
							<defs>
								<rect id="SVGID_7_" x="1926.6" y="-48.6" width="389.1" height="972.7"/>
							</defs>
							<clipPath id="SVGID_8_">
								<use xlink:href="#SVGID_7_"  overflow="visible"/>
							</clipPath>
							<g clip-path="url(#SVGID_8_)" enable-background="new    ">
								<g>
									<defs>
										<path id="SVGID_9_" d="M2023.9,126.4c0-58.4,48.6-107,107-107s107,48.6,107,107v661.4c0,58.4-48.6,107-107,107
											c-58.4,0-107-48.6-107-107L2023.9,126.4"/>
									</defs>
									<clipPath id="SVGID_10_">
										<use xlink:href="#SVGID_9_"  overflow="visible"/>
									</clipPath>
									<g clip-path="url(#SVGID_10_)">
										<g>
											<defs>
												<rect id="SVGID_11_" x="1926.6" y="-48.6" width="389.1" height="972.7"/>
											</defs>
											<clipPath id="SVGID_12_">
												<use xlink:href="#SVGID_11_"  overflow="visible"/>
											</clipPath>
											<rect x="1537.5" y="-466.9" clip-path="url(#SVGID_12_)" fill="#FFFFFF" width="1196.4" height="1857.8"/>
										</g>
									</g>
								</g>
							</g>
						</g>
					</g>
				</g>
			</g>
		</g>
	</g>
</g>
</svg>
