<svg xmlns="http://www.w3.org/2000/svg" viewBox="0 0 102.6 90"><path fill="#FFF" d="M35.9 86.6l-.6-2.7c-.2-.7-3.9-18.2.1-27.8.3-.6 1-.9 1.6-.7.6.3.9 1 .7 1.6-2.8 6.8-1.3 18.3-.5 23.6l36.4-51.9c.4-.5 1.1-.7 1.7-.3.5.4.7 1.1.3 1.7L35.9 86.6z"/><path fill="#FFF" d="M16.8 71.6l.2-2.5c0-.7 1.2-17.8 12.3-27.1.5-.4 1.3-.4 1.7.1.4.5.4 1.3-.1 1.7-7.8 6.6-10.3 17.8-11.1 22.9L74 28.5c.5-.4 1.3-.3 1.7.3.4.5.3 1.3-.3 1.7L16.8 71.6z"/><path fill="#FFF" d="M3.6 52.1l1.1-2.4C5 49 13 32.1 24.9 28.3c.6-.2 1.3.1 1.5.8.2.6-.1 1.3-.8 1.5-8.3 2.6-14.8 12.8-17.4 17.6l66-19.9c.6-.2 1.3.2 1.5.8.2.6-.2 1.3-.8 1.5L3.6 52.1z"/><path fill="#FFF" d="M29.9 44.1c-.2 0-.5-.1-.7-.2L16.9 35c-.5-.4-.7-1.1-.3-1.7s1.1-.7 1.7-.3l12.4 8.8c.5.4.7 1.1.3 1.7-.3.4-.7.6-1.1.6zM74.5 30L0 30.1l1.9-1.9c.5-.5 12.4-13.2 24.6-14.9.6-.1 1.3.4 1.4 1.1.1.7-.4 1.3-1 1.4C18.3 17 9.5 24.4 5.6 28l68.8.2c.7 0 1.2.2 1.2.9.1.7-.4.9-1.1.9z"/><path fill="#FFF" d="M28 30.5c-.4 0-.7-.2-1-.5l-9.2-12c-.4-.5-.3-1.3.2-1.7.5-.4 1.3-.3 1.7.2l9.2 12.1c.4.5.3 1.3-.2 1.7-.2.1-.5.2-.7.2zM73.6 31.1l-.5-.1L4.5 9l2.7-1.3c.5-.2 11.8-5.5 22.4-5.5 2.5 0 4.9.3 6.9.9C48 6.6 55.9 11.7 74.8 28c.6.5.8 1.2.5 1.9-.3.7-1 1.2-1.7 1.2zM11.2 8.6l59.6 19.1c-18-15.4-25.1-19.3-35-22.4-1.8-.5-3.9-.8-6.2-.8-7 .1-14.4 2.6-18.4 4.1z"/><path fill="#FFF" d="M31.3 17.3c-.5 0-1-.3-1.1-.8L25.6 3.8c-.2-.6.1-1.3.7-1.5.6-.2 1.3.1 1.5.7l4.6 12.7c.2.6-.1 1.3-.7 1.5-.1 0-.2.1-.4.1zM36.5 57.7c-.2 0-.4 0-.5-.1l-12.7-6.1c-.6-.3-.9-1-.6-1.6.3-.6 1-.8 1.6-.6L37 55.4c.6.3.9 1 .6 1.6-.3.5-.7.7-1.1.7zM49.6 66h-14c-.6 0-1-.4-1-1s.4-1 1-1h14c.6 0 1 .4 1 1s-.4 1-1 1zM69 67.6c-4.4 0-8.1-3.6-8.1-8.1s3.6-8.1 8.1-8.1 8.1 3.6 8.1 8.1-3.6 8.1-8.1 8.1zm0-12.5c-2.5 0-4.5 2-4.5 4.5s2 4.5 4.5 4.5 4.5-2 4.5-4.5-2-4.5-4.5-4.5z"/><g><path fill="#FFF" d="M77.1 50.5c-.3 0-.6-.1-.9-.4-.4-.5-.4-1.2.1-1.7L89.9 36l-6.6-3.3-11.5 15.4c-.4.5-1.1.6-1.7.2-.5-.4-.6-1.1-.2-1.7l12.7-17 11.5 5.8-16.2 14.8c-.2.2-.5.3-.8.3z"/></g><g><path fill="#FFF" d="M70.6 90l-2.2-1.5C62.3 82.9 58.1 69.2 58 68.6c-.1-.5 0-1.1.6-1.2.5-.1 1.5.2 1.7.7 0 .1 2.4 11.1 8.4 17.1V73.8c0-.6.4-1 1-1s1 .4 1 1V90z"/></g><g><path fill="#FFF" d="M95.2 83.4l-19.8-7.9 14-18.8-1.8-1.7-4.9 4.4c-.4.4-1 .3-1.4-.1-.4-.4-.3-1 .1-1.4l6.3-5.6 4.4 4.2-13.6 18 15.7 6.3 2-2.9-3.7-4.5V64H99c-.2-6-1.2-14.2-6.4-15.9l-.2-.3v-3.7L81.9 53c-.4.4-1.3.3-1.7-.1-.4-.4.1-1 .5-1.4l13.7-11.8v6.7c6 3.1 8 15.8 8 18.4V66h-8v6.6l4.1 5-3.3 5.8z"/></g></svg>