<svg xmlns="http://www.w3.org/2000/svg" viewBox="0 0 74.3 91.7"><path fill="#FFF" d="M46.1 91.7c-2.9 0-5.6-3.5-5.6-8.6V42.9L17.9 5.5c-.6-.9-.4-2.2.5-2.7.9-.6 2.1-.3 2.7.7L44 41.3c.2.3.6.7.6 1v40.8c0 3.2 1.2 4.5 1.6 4.6 1.1 0 2 .9 2 2s-1 2-2.1 2z"/><path fill="#FFF" d="M48.5 82.7c-1.1 0-2-.9-2-2V41.3L23 2.3c-.6-1-.4-2.2.5-2.7.9-.6 2.1-.2 2.6.7l23.7 39.5c.2.3.6.7.6 1v39.9c.1 1.1-.8 2-1.9 2zM49.6 34c-.3 0-.6-.1-.9-.2-.9-.5-1.2-1.6-.7-2.5L65.3.9c.5-.9 1.6-1.2 2.5-.7.9.5 1.2 1.6.7 2.5L51.1 33.1c-.3.6-.9.9-1.5.9zM53.2 40.1c-.3 0-.6-.1-.9-.2-.9-.5-1.2-1.6-.7-2.5L70.9 3.6c.5-.9 1.6-1.2 2.5-.7s1.2 1.6.7 2.5L54.7 39.2c-.3.6-.9.9-1.5.9z"/><path fill="#FFF" d="M18.3 12.9c-.6 0-1.2-.3-1.5-.8-.6-.8-.3-1.9.5-2.5L29 1.8c.8-.5 1.9-.3 2.5.5.5.8.3 1.9-.5 2.5l-11.7 7.8c-.3.2-.7.3-1 .3zM73.2 12.9c-.3 0-.7-.1-1-.3L60.5 4.8c-.8-.6-1.1-1.7-.5-2.5.6-.8 1.7-1 2.5-.5l11.7 7.8c.8.6 1.1 1.7.5 2.5-.4.5-1 .8-1.5.8zM25 87.3c-.6 0-1.2-.7-1.2-1.3 0-.7.5-1.3 1.2-1.3 3.9-.2 7.6-1.1 10.8-2.6.6-.3 1.3 0 1.6.6.3.6 0 1.5-.6 1.8-3.6 1.6-7.5 2.8-11.8 2.8zM23.6 82.5c-6.3 0-14.1-1.6-17.4-6.1-1.6-2.2-2-4.8-1-7.6.3-.9 1.4-1.4 2.3-1.1.9.3 1.4 1.4 1.1 2.3-.6 1.6-.4 3 .5 4.3 2.2 3 8.7 4.9 15.8 4.6 1.1 0 1.8.7 1.9 1.7 0 1-.7 1.8-1.7 1.9h-1.5z"/><path fill="#FFF" d="M23.6 87c-8.2 0-16.3-2.9-20.5-7.5C.8 77-.3 74.1 0 71.2c.1-.8.3-1.7.6-2.5 3.1-8 11.4-10.9 18.7-13.5 4-1.4 7.8-2.8 9.7-4.7 4.7-4.7 6-9 5.7-17.6 0-.7.5-1.2 1.2-1.2s1.2.5 1.2 1.2c.4 9.3-1.3 14.2-6.4 19.4-2.3 2.3-6.3 3.7-10.6 5.3C13.3 60 5.5 62.8 2.8 69.7c-.2.6-.4 1.3-.5 1.9-.3 2.2.6 4.4 2.5 6.4 4 4.3 12.1 7 20 6.7.7 0 1.2.5 1.2 1.1 0 .7-.5 1.2-1.1 1.2h-1.3zM34 19.4c-.8 0-1.6-.6-1.8-1.4-1.4-7-3.2-12.2-3.9-14-.4-.9.1-2 1-2.3.9-.4 2 .1 2.3 1 .8 2 2.6 7.4 4.2 14.6.2 1-.4 1.9-1.4 2.1H34zM52.2 80.1c-.4 0-.7-.2-1-.5-.4-.5-.3-1.3.3-1.7 8.3-6 11.7-11 10.9-26.3-.1-1.4-.3-3.8-.6-6.8-.5-5.3-1.2-12.6-1.7-20.7 0-.7.5-1.2 1.1-1.3.7 0 1.2.5 1.3 1.1.5 8.1 1.2 15.3 1.7 20.6.3 3.1.5 5.5.6 6.9.8 16.3-3 21.9-11.9 28.3-.2.3-.5.4-.7.4zM60.9 15.3c-1 0-1.8-1.4-1.8-2.4-.1-6.7.3-9 .7-10 .4-.9 1.4-1.5 2.3-1.2.9.4 1.4 1.3 1 2.3-.1.5-.5 2.7-.4 9 0 1-.8 2.3-1.8 2.3z"/></svg>