<?xml version="1.0" encoding="UTF-8" standalone="no"?>
<svg width="44px" height="39px" viewBox="0 0 44 39" version="1.1" xmlns="http://www.w3.org/2000/svg" xmlns:xlink="http://www.w3.org/1999/xlink">
    <!-- Generator: Sketch 3.6.1 (26313) - http://www.bohemiancoding.com/sketch -->
    <title>Imported Layers Copy 6</title>
    <desc>Created with Sketch.</desc>
    <defs></defs>
    <g id="Page-1" stroke="none" stroke-width="1" fill="none" fill-rule="evenodd">
        <g id="DISCOVER-Mobile-Copy-5" transform="translate(-45.000000, -861.000000)" fill="#FFFFFF">
            <g id="Spam-Copy" transform="translate(26.000000, 761.000000)">
                <g id="Imported-Layers-Copy-6" transform="translate(19.006280, 99.892602)">
                    <path d="M26.1683802,6.20036426 C26.4194223,5.63208865 26.6744471,5.05701293 26.8441095,4.45767017 C26.91301,4.21406633 26.9982395,3.95526226 26.992,3.69885822 C26.990938,3.65912426 26.996381,3.63445721 27.0027533,3.61925697 C26.9823088,3.6299238 26.9431457,3.64072397 26.8714573,3.64112398 C26.3476012,3.64352402 25.7938749,3.69579151 25.3363969,3.38818667 C24.8153286,3.03778115 24.7245233,2.34203687 24.7776258,1.76309442 C24.8325869,1.16495167 25.0641138,0.615876361 25.3204661,0.07560119 C20.4886698,1.47695658 15.955575,2.8524449 15.2173175,3.05951483 C13.6442887,3.5004551 12.6794163,4.01806325 12.6794163,6.57543683 C12.6794163,9.13321043 12.6910989,24.0474452 12.6910989,24.0474452 L12.6972057,28.6687179 C11.3748207,28.0120409 9.73103285,27.617368 7.94187692,27.617368 C3.59291505,27.617368 0.0667763919,29.9219377 0.0667763919,32.7646491 C0.0667763919,35.6074938 3.59291505,37.9113967 7.94187692,37.9113967 C12.2915026,37.9113967 15.8169775,35.6074938 15.8169775,32.7646491 C15.8169775,32.7022481 15.8058259,32.6415805 15.802507,32.5798462 C16.0353615,31.4398282 16.2125911,29.6602002 16.2125911,26.8368224 C16.2125911,18.4554905 16.2287873,10.228161 16.2287873,10.228161 L25.4647721,8.13106132 C25.6735977,7.47838438 25.8909197,6.82837415 26.1683802,6.20036426" id="Fill-1"></path>
                    <path d="M40.7553711,1.20695233 C39.6963745,1.20695233 34.8425406,2.52137302 29.8947153,3.94099537 C29.8503747,4.04259697 29.8052376,4.14419857 29.7591712,4.24580016 C29.4843658,4.85154303 29.0591475,5.56915433 29.0445443,6.25289842 C29.0368445,6.61703749 28.9719267,6.64957133 29.2991708,6.64770464 C29.5563197,6.64637128 29.8122737,6.63197106 30.0687588,6.65530476 C30.582791,6.70223883 31.1016024,6.99731014 31.2159055,7.54451876 C31.4641597,8.73267079 30.791882,10.0214911 30.3259076,11.0761743 C30.173769,11.4204464 30.0394196,11.7708519 29.9138322,12.1243242 L39.5134364,9.94468987 L39.5450324,29.3579288 C38.2381799,28.7287189 36.629838,28.3529796 34.8827658,28.3529796 C30.531016,28.3529796 27.0027533,30.6587493 27.0027533,33.503194 C27.0027533,36.3476388 30.531016,38.6534084 34.8827658,38.6534084 C39.0190521,38.6534084 42.4043364,36.5697756 42.730253,33.9212006 C42.9236789,33.4091925 43.0649315,32.8290501 43.0649315,32.1855733 L43.0649315,3.77472608 C43.0649315,2.56950711 42.9690815,1.20695233 40.7553711,1.20695233" id="Fill-2"></path>
                </g>
            </g>
        </g>
    </g>
</svg>