<?xml version="1.0" encoding="UTF-8" standalone="no"?>
<svg width="24px" height="25px" viewBox="0 0 24 25" version="1.1" xmlns="http://www.w3.org/2000/svg" xmlns:xlink="http://www.w3.org/1999/xlink">
    <!-- Generator: Sketch 3.6.1 (26313) - http://www.bohemiancoding.com/sketch -->
    <title>Imported Layers Copy</title>
    <desc>Created with Sketch.</desc>
    <defs></defs>
    <g id="Page-1" stroke="none" stroke-width="1" fill="none" fill-rule="evenodd" opacity="0.699999988">
        <g id="Likes-mobile" transform="translate(-597.000000, -939.000000)" stroke="#FFFFFF">
            <g id="Group" transform="translate(0.000000, -34.000000)">
                <g id="Group-Copy-+-Imported-Layers-+-Disclosure-Indicator-+-Group-Copy-6-Copy-Copy">
                    <g id="Group-3" transform="translate(0.000000, 820.000000)">
                        <g id="Group" transform="translate(221.000000, 148.000000)">
                            <path d="M399.217664,24.2624466 C399.036704,25.7409223 397.158612,26.9040971 394.864025,26.9040971 C392.449682,26.9040971 390.492268,25.6169903 390.492268,24.0290971 C390.492268,22.4412039 392.449682,21.1540971 394.864025,21.1540971 C395.833121,21.1540971 396.725546,21.3637767 397.45049,21.7150291 L397.433034,10.8777864 L386.153875,13.4546796 C386.153875,13.4546796 386.144816,18.047534 386.144816,22.7263592 C386.144816,24.3026408 386.046492,25.2961068 385.917235,25.9325146 C385.919224,25.9669029 385.925411,26.0008447 385.925411,26.0356796 C385.925411,27.6226796 383.969543,28.9086699 381.556305,28.9086699 C379.14373,28.9086699 377.187421,27.6226796 377.187421,26.0356796 C377.187421,24.4486796 379.14373,23.1620194 381.556305,23.1620194 C382.548822,23.1620194 383.460912,23.3824175 384.194472,23.7490777 L384.191158,21.1692816 C384.191158,21.1692816 384.184751,12.8435049 384.184751,11.4157184 C384.184751,9.98793204 384.720117,9.69898058 385.592657,9.45290291 C386.465196,9.20660194 396.89369,6 398.121963,6 C399.350014,6 399.403264,6.76056311 399.403264,7.43336893 L399.403264,23.2935437 C399.403264,23.652835 399.324826,23.9766214 399.217664,24.2624466" id="Imported-Layers-Copy"></path>
                        </g>
                    </g>
                </g>
            </g>
        </g>
    </g>
</svg>