<?xml version="1.0" encoding="UTF-8" standalone="no"?>
<svg width="20px" height="21px" viewBox="0 0 20 21" version="1.1" xmlns="http://www.w3.org/2000/svg" xmlns:xlink="http://www.w3.org/1999/xlink">
    <!-- Generator: Sketch 3.8.3 (29802) - http://www.bohemiancoding.com/sketch -->
    <title>Fill 116</title>
    <desc>Created with Sketch.</desc>
    <defs></defs>
    <g id="Page-1" stroke="none" stroke-width="1" fill="none" fill-rule="evenodd">
        <g id="Website-Home-page-unlog" transform="translate(-1370.000000, -707.000000)" fill="#FFFFFF">
            <g id="Radio" transform="translate(-1.000000, -75.000000)">
                <g id="News-Feed-Copy-2">
                    <g id="Home">
                        <g id="Group-Copy-9">
                            <g id="Group-2" transform="translate(59.000000, 782.000000)">
                                <path d="M1319.16435,1.01486708 C1314.94609,2.25971553 1312,6.20338414 1312,10.6058051 C1312,14.2470928 1313.957,17.5591527 1317.12305,19.3305772 L1314.54433,19.8868262 C1314.35358,19.928274 1314.23206,20.1162024 1314.27351,20.3069567 C1314.3093,20.4727481 1314.45579,20.5857876 1314.61828,20.5857876 C1314.64324,20.5857876 1314.66821,20.5829617 1314.69317,20.5773097 L1318.09849,19.8425524 C1318.19457,19.8218284 1318.27747,19.7624826 1318.32786,19.677703 C1318.37779,19.5933943 1318.39098,19.4921296 1318.36319,19.397459 L1317.38163,16.0557262 C1317.32605,15.8682689 1317.13011,15.7622943 1316.94266,15.8164591 C1316.75567,15.8710949 1316.64828,16.0675011 1316.70339,16.2549585 L1317.41742,18.6857806 C1314.50524,17.0330476 1312.7065,13.9706168 1312.7065,10.6058051 C1312.7065,6.51424301 1315.44441,2.84940538 1319.36453,1.6926336 C1319.55152,1.63705581 1319.65843,1.44064952 1319.60333,1.25366321 C1319.54822,1.06620589 1319.35181,0.960231278 1319.16435,1.01486708 L1319.16435,1.01486708 Z M1326.87695,2.25547655 L1329.45567,1.69875658 C1329.64642,1.65730873 1329.76747,1.46985142 1329.72649,1.27909711 C1329.68551,1.08787181 1329.49617,0.966354255 1329.30683,1.0082731 L1325.90104,1.74350142 C1325.80543,1.76422534 1325.72253,1.82357113 1325.67214,1.90835082 C1325.62221,1.99218851 1325.60902,2.09392414 1325.63681,2.1881238 L1326.61837,5.5303276 C1326.66406,5.68387304 1326.80442,5.78372467 1326.95749,5.78372467 C1326.99046,5.78372467 1327.0239,5.77901469 1327.05687,5.76959472 C1327.24433,5.71495892 1327.35125,5.51855264 1327.29661,5.33109532 L1326.58258,2.9002732 C1329.49523,4.55300616 1331.2935,7.61543699 1331.2935,10.9802487 C1331.2935,15.0718108 1328.55559,18.7366484 1324.63547,19.8934202 C1324.44848,19.948527 1324.34157,20.1449333 1324.39667,20.3323906 C1324.44189,20.485936 1324.58272,20.5857876 1324.73532,20.5857876 C1324.76829,20.5857876 1324.8022,20.5810777 1324.83565,20.5711867 C1329.05391,19.3263382 1332,15.3826696 1332,10.9802487 C1332,7.33849 1330.043,4.02690108 1326.87695,2.25547655 L1326.87695,2.25547655 Z" id="Fill-116" transform="translate(1322.000000, 10.792894) scale(-1, 1) rotate(-270.000000) translate(-1322.000000, -10.792894) "></path>
                            </g>
                        </g>
                    </g>
                </g>
            </g>
        </g>
    </g>
</svg>