<?xml version="1.0" encoding="UTF-8" standalone="no"?>
<svg width="46px" height="51px" viewBox="0 0 46 51" version="1.1" xmlns="http://www.w3.org/2000/svg" xmlns:xlink="http://www.w3.org/1999/xlink">
    <!-- Generator: Sketch 3.6.1 (26313) - http://www.bohemiancoding.com/sketch -->
    <title>Group 3 + Stroke 4 Copy</title>
    <desc>Created with Sketch.</desc>
    <defs>
        <path d="M9.87988488,3.65873919 L16.2132469,3.65873919 L12.3728465,8.49954785 L6.03948446,8.49954785 L9.87988488,3.65873919 L9.87988488,3.65873919 Z M32.1945905,12.1306493 L38.2540666,12.1306493 L27.9703499,22.6240178 L32.1945905,12.1306493 L32.1945905,12.1306493 Z M12.6607266,12.1306493 L16.8849672,22.6240178 L6.60125048,12.1306493 L12.6607266,12.1306493 L12.6607266,12.1306493 Z M28.2482342,12.1306493 L22.426659,26.591699 L16.6070829,12.1306493 L28.2482342,12.1306493 L28.2482342,12.1306493 Z M17.0349047,8.49954785 L20.8753051,3.65873919 L23.980012,3.65873919 L27.8204124,8.49954785 L17.0349047,8.49954785 L17.0349047,8.49954785 Z M38.8158326,8.49954785 L32.4824706,8.49954785 L28.640071,3.65873919 L34.9754322,3.65873919 L38.8158326,8.49954785 L38.8158326,8.49954785 Z M44.0276618,9.19448602 L37.3084605,0.722575901 C36.9586062,0.285022235 36.4288268,0.0276377258 35.8650617,0.0276377258 L8.99025542,0.0276377258 C8.42649024,0.0276377258 7.89471173,0.285022235 7.54685662,0.722575901 L0.827655269,9.19448602 C0.261890918,9.90724313 0.315868436,10.9268818 0.955601977,11.5782626 L21.113206,32.1531843 C21.4570628,32.5056031 21.9328646,32.7035911 22.426659,32.7035911 C22.9224524,32.7035911 23.3982543,32.5056031 23.742111,32.1531843 L43.8997151,11.5782626 C44.5394486,10.9268818 44.5934262,9.90724313 44.0276618,9.19448602 L44.0276618,9.19448602 Z" id="path-1"></path>
    </defs>
    <g id="Page-1" stroke="none" stroke-width="1" fill="none" fill-rule="evenodd">
        <g id="DISCOVER-Mobile-Copy-5" transform="translate(-44.000000, -1049.000000)">
            <g id="Spam-Copy" transform="translate(26.000000, 761.000000)">
                <g id="Group-3-+-Stroke-4-Copy" transform="translate(18.060283, 288.454700)">
                    <g id="Group-3" transform="translate(0.101468, 10.951200)">
                        <mask id="mask-2" fill="white">
                            <use xlink:href="#path-1"></use>
                        </mask>
                        <g id="Clip-2"></g>
                        <path d="M0.261890918,0.0276377258 L44.5934262,0.0276377258 L44.5934262,32.7035911 L0.261890918,32.7035911 L0.261890918,0.0276377258 Z" id="Fill-1" fill="#FFFFFF" mask="url(#mask-2)"></path>
                    </g>
                    <path d="M1.05107224,0.511207252 L44.0071804,48.9687909" id="Stroke-4" stroke="#FFFFFF" stroke-width="2" stroke-linecap="round"></path>
                </g>
            </g>
        </g>
    </g>
</svg>