<svg xmlns="http://www.w3.org/2000/svg" xmlns:xlink="http://www.w3.org/1999/xlink" viewBox="191.5 255 70 70"><defs><path id="a" d="M219.9 303.4c-.1 0-.3 0-.4-.1-.4-.2-.6-.7-.4-1.2l12.5-25.5c.1-.3.5-.5.8-.5.3 0 .6.2.8.5l12.7 25.5c.2.4 0 1-.4 1.2s-1 0-1.2-.4L232.4 279l-11.7 23.9c-.1.3-.4.5-.8.5"/></defs><clipPath id="b"><use xlink:href="#a" overflow="visible"/></clipPath><path clip-path="url(#b)" fill="#FFFFFC" d="M214.1 271.2H251v37.2h-36.9z"/><defs><path id="c" d="M206.9 303.4c-.1 0-.3 0-.4-.1-.4-.2-.6-.7-.4-1.2l12.5-25.5c.1-.3.4-.5.8-.5.3 0 .6.2.8.5l10.1 19.8c.2.4 0 1-.4 1.2s-1 0-1.2-.4l-9.3-18.2-11.7 23.9c-.1.3-.4.5-.8.5"/></defs><clipPath id="d"><use xlink:href="#c" overflow="visible"/></clipPath><path clip-path="url(#d)" fill="#FFFFFC" d="M201 271.2h34.3v37.3H201z"/><g><defs><path id="e" d="M241.3 303.4c-.3 0-.6-.2-.8-.5l-10.9-21.3c-.2-.4-.1-1 .4-1.2.4-.2 1-.1 1.2.4l10.9 21.3c.2.4.1 1-.4 1.2-.2.1-.3.1-.4.1"/></defs><clipPath id="f"><use xlink:href="#e" overflow="visible"/></clipPath><path clip-path="url(#f)" fill="#FFFFFC" d="M224.5 275.4h22.7v33h-22.7z"/></g><g><defs><path id="g" d="M232.5 303.4c-.3 0-.6-.2-.8-.5l-13.1-25.5c-.2-.4-.1-1 .4-1.2s1-.1 1.2.4l13.1 25.5c.2.4.1 1-.4 1.2-.1.1-.3.1-.4.1"/></defs><clipPath id="h"><use xlink:href="#g" overflow="visible"/></clipPath><path clip-path="url(#h)" fill="#FFFFFC" d="M213.5 271.2h24.9v37.3h-24.9z"/></g><g><defs><path id="i" d="M226.5 255c-19.3 0-35 15.7-35 35s15.7 35 35 35 35-15.7 35-35-15.7-35-35-35m0 1.8c4.5 0 8.8.9 12.9 2.6 2 .8 3.9 1.9 5.6 3.1 1.8 1.2 3.4 2.6 4.9 4.1s2.9 3.2 4.1 4.9c1.2 1.8 2.2 3.7 3.1 5.6 1.7 4.1 2.6 8.4 2.6 12.9s-.9 8.8-2.6 12.9c-.8 2-1.9 3.9-3.1 5.6-1.2 1.8-2.6 3.4-4.1 4.9s-3.2 2.9-4.9 4.1c-1.8 1.2-3.7 2.2-5.6 3.1-4.1 1.7-8.4 2.6-12.9 2.6s-8.8-.9-12.9-2.6c-2-.8-3.9-1.9-5.6-3.1-1.8-1.2-3.4-2.6-4.9-4.1s-2.9-3.2-4.1-4.9c-1.2-1.8-2.2-3.7-3.1-5.6-1.7-4.1-2.6-8.4-2.6-12.9s.9-8.8 2.6-12.9c.8-2 1.9-3.9 3.1-5.6 1.2-1.8 2.6-3.4 4.1-4.9s3.2-2.9 4.9-4.1c1.8-1.2 3.7-2.2 5.6-3.1 4.1-1.7 8.4-2.6 12.9-2.6"/></defs><clipPath id="j"><use xlink:href="#i" overflow="visible"/></clipPath><path clip-path="url(#j)" fill="#FFFFFC" d="M186.5 250h79.9v79.9h-79.9z"/></g></svg>