<?xml version="1.0" encoding="utf-8"?>
<!-- Generator: Adobe Illustrator 17.1.0, SVG Export Plug-In . SVG Version: 6.00 Build 0)  -->
<!DOCTYPE svg PUBLIC "-//W3C//DTD SVG 1.1//EN" "http://www.w3.org/Graphics/SVG/1.1/DTD/svg11.dtd">
<svg version="1.1" id="Calque_1" xmlns="http://www.w3.org/2000/svg" xmlns:xlink="http://www.w3.org/1999/xlink" x="0px" y="0px"
	 viewBox="1129.9 0 1996.2 1984.2" enable-background="new 1129.9 0 1996.2 1984.2" xml:space="preserve">
<g id="Calque_2" display="none">
	
		<rect x="-11765.8" y="-54173.6" display="inline" fill="#3A1654" stroke="#FFFFFF" stroke-miterlimit="10" width="179620.5" height="245735.6"/>
</g>
<g>
	<g>
		<g>
			<g>
				<g>
					<g>
						<defs>
							<rect id="SVGID_1_" x="1129.9" y="-12" width="1996.2" height="1996.2"/>
						</defs>
						<clipPath id="SVGID_2_">
							<use xlink:href="#SVGID_1_"  overflow="visible"/>
						</clipPath>
						<g id="Calque_1_1_" clip-path="url(#SVGID_2_)">
							<g>
								<defs>
									<path id="SVGID_3_" d="M2132,0c-547,0-990.1,443.2-990.1,986.1s443.2,986.1,986.1,986.1s986.1-443.2,986.1-986.1
										S2674.9,0,2132,0 M2132,47.9c519,0,938.2,419.2,938.2,938.2S2647,1924.4,2132,1924.4s-938.2-419.2-938.2-938.2
										S1613,47.9,2132,47.9"/>
								</defs>
								<clipPath id="SVGID_4_">
									<use xlink:href="#SVGID_3_"  overflow="visible"/>
								</clipPath>
								<g clip-path="url(#SVGID_4_)">
									<g>
										<defs>
											<rect id="SVGID_5_" x="1129.9" y="-12" width="1996.2" height="1996.2"/>
										</defs>
										<clipPath id="SVGID_6_">
											<use xlink:href="#SVGID_5_"  overflow="visible"/>
										</clipPath>
										<rect x="942.2" y="-199.6" clip-path="url(#SVGID_6_)" fill="#FFFFFC" width="2375.5" height="2375.5"/>
									</g>
								</g>
							</g>
							<g>
								<defs>
									<rect id="SVGID_7_" x="1129.9" y="-12" width="1996.2" height="1996.2"/>
								</defs>
								<clipPath id="SVGID_8_">
									<use xlink:href="#SVGID_7_"  overflow="visible"/>
								</clipPath>
								<g clip-path="url(#SVGID_8_)">
									<g>
										<defs>
											<path id="SVGID_9_" d="M1832.5,1437.3c-12,0-24-12-24-24V558.9c0-12,12-24,24-24s24,12,24,24v854.4
												C1852.5,1429.3,1844.5,1437.3,1832.5,1437.3"/>
										</defs>
										<clipPath id="SVGID_10_">
											<use xlink:href="#SVGID_9_"  overflow="visible"/>
										</clipPath>
										<g clip-path="url(#SVGID_10_)">
											<g>
												<defs>
													<rect id="SVGID_11_" x="1129.9" y="-12" width="1996.2" height="1996.2"/>
												</defs>
												<clipPath id="SVGID_12_">
													<use xlink:href="#SVGID_11_"  overflow="visible"/>
												</clipPath>
												<rect x="1609" y="339.4" clip-path="url(#SVGID_12_)" fill="#FFFFFF" width="443.2" height="1301.5"/>
											</g>
										</g>
									</g>
									<g enable-background="new    ">
										<defs>
											<rect id="SVGID_13_" x="1129.9" y="-12" enable-background="new    " width="1996.2" height="1996.2"/>
										</defs>
										<clipPath id="SVGID_14_">
											<use xlink:href="#SVGID_13_"  overflow="visible"/>
										</clipPath>
										<g clip-path="url(#SVGID_14_)">
											<g>
												<defs>
													<path id="SVGID_15_" d="M1956.3,574.9h235.6c139.7,0,239.5,75.9,239.5,183.7s-103.8,191.6-239.5,191.6h-235.6
														L1956.3,574.9L1956.3,574.9z M2483.3,1393.4l-471.1-395.3h183.7c159.7,0,283.5-103.8,283.5-239.5
														c0-131.8-119.8-227.6-287.5-227.6h-279.5v886.3c0,12,12,24,24,24s24-12,24-24v-395.3l491.1,411.2c4,4,12,4,16,4
														c8,0,16-4,20-8C2495.3,1417.3,2491.3,1401.4,2483.3,1393.4z"/>
												</defs>
												<clipPath id="SVGID_16_">
													<use xlink:href="#SVGID_15_"  overflow="visible"/>
												</clipPath>
												<g clip-path="url(#SVGID_16_)">
													<g>
														<defs>
															<rect id="SVGID_17_" x="1129.9" y="-12" width="1996.2" height="1996.2"/>
														</defs>
														<clipPath id="SVGID_18_">
															<use xlink:href="#SVGID_17_"  overflow="visible"/>
														</clipPath>
														<rect x="1712.8" y="331.4" clip-path="url(#SVGID_18_)" fill="#FFFFFF" width="978.2" height="1305.5"/>
													</g>
												</g>
											</g>
										</g>
									</g>
								</g>
							</g>
						</g>
					</g>
				</g>
			</g>
		</g>
	</g>
</g>
</svg>
