<?xml version="1.0" encoding="utf-8"?>
<!-- Generator: Adobe Illustrator 17.1.0, SVG Export Plug-In . SVG Version: 6.00 Build 0)  -->
<!DOCTYPE svg PUBLIC "-//W3C//DTD SVG 1.1//EN" "http://www.w3.org/Graphics/SVG/1.1/DTD/svg11.dtd">
<svg version="1.1" id="Calque_1" xmlns="http://www.w3.org/2000/svg" xmlns:xlink="http://www.w3.org/1999/xlink" x="0px" y="0px"
	 viewBox="1133.9 0 1984.3 1984.2" enable-background="new 1133.9 0 1984.3 1984.2" xml:space="preserve">
<g id="Calque_2" display="none">
	
		<rect x="-4255.4" y="-53836.7" display="inline" fill="#3A1654" stroke="#FFFFFF" stroke-miterlimit="10" width="178542.8" height="244261.2"/>
</g>
<g>
	<g>
		<g>
			<g>
				<g id="Calque_1_1_">
					<g>
						<defs>
							<rect id="SVGID_1_" x="1133.9" y="0" width="1984.3" height="1984.3"/>
						</defs>
						<clipPath id="SVGID_2_">
							<use xlink:href="#SVGID_1_"  overflow="visible"/>
						</clipPath>
						<g clip-path="url(#SVGID_2_)">
							<g>
								<defs>
									<path id="SVGID_3_" d="M2130,11.9c-543.7,0-984.2,436.5-984.2,980.2s440.5,980.2,980.2,980.2s984.2-436.5,984.2-980.2
										S2673.6,11.9,2130,11.9 M2130,59.5c511.9,0,932.6,416.7,932.6,932.6s-420.7,932.6-932.6,932.6s-932.6-416.7-932.6-932.6
										S1614,59.5,2130,59.5"/>
								</defs>
								<clipPath id="SVGID_4_">
									<use xlink:href="#SVGID_3_"  overflow="visible"/>
								</clipPath>
								<g clip-path="url(#SVGID_4_)">
									<g>
										<defs>
											<rect id="SVGID_5_" x="1133.9" y="0" width="1984.3" height="1984.3"/>
										</defs>
										<clipPath id="SVGID_6_">
											<use xlink:href="#SVGID_5_"  overflow="visible"/>
										</clipPath>
										<rect x="947.3" y="-186.5" clip-path="url(#SVGID_6_)" fill="#FFFFFC" width="2361.3" height="2361.3"/>
									</g>
								</g>
							</g>
							<g enable-background="new    ">
								<defs>
									<rect id="SVGID_7_" x="1133.9" y="0" enable-background="new    " width="1984.3" height="1984.3"/>
								</defs>
								<clipPath id="SVGID_8_">
									<use xlink:href="#SVGID_7_"  overflow="visible"/>
								</clipPath>
								<g clip-path="url(#SVGID_8_)">
									<g>
										<defs>
											<path id="SVGID_9_" d="M2459.3,1142.9c-19.8,47.6-51.6,91.3-87.3,127c-35.7,35.7-79.4,67.5-131,87.3
												c-51.6,19.8-103.2,31.7-158.7,31.7c-19.8,0-43.7,0-63.5,0h-59.5V575.4c19.8,0,39.7,0,59.5,0s43.7,0,63.5,0
												c55.6,0,111.1,11.9,158.7,31.7c51.6,19.8,95.2,51.6,131,87.3s67.5,79.4,87.3,131c19.8,51.6,31.7,103.2,31.7,158.7
												C2491.1,1039.7,2483.2,1091.3,2459.3,1142.9z M2491.1,813.5c-23.8-55.6-55.6-99.2-95.2-138.9
												c-39.7-39.7-87.3-71.4-142.9-95.2c-55.6-23.8-111.1-39.7-174.6-39.7h-142.9h-4h-103.2c-11.9,0-23.8,11.9-23.8,23.8v4v4
												v849.3c0,11.9,11.9,23.8,23.8,23.8c11.9,0,23.8-11.9,23.8-23.8V583.4h59.5v829.4c0,11.9,11.9,23.8,23.8,23.8c0,0,0,0,4,0
												h142.9c59.5,0,119.1-19.8,174.6-39.7c55.6-23.8,103.2-55.6,142.9-95.2c39.7-39.7,71.4-87.3,95.2-138.9
												s35.7-111.1,35.7-170.6C2526.8,924.7,2514.9,865.1,2491.1,813.5z"/>
										</defs>
										<clipPath id="SVGID_10_">
											<use xlink:href="#SVGID_9_"  overflow="visible"/>
										</clipPath>
										<g clip-path="url(#SVGID_10_)">
											<g>
												<defs>
													<rect id="SVGID_11_" x="1133.9" y="0" width="1984.3" height="1984.3"/>
												</defs>
												<clipPath id="SVGID_12_">
													<use xlink:href="#SVGID_11_"  overflow="visible"/>
												</clipPath>
												<rect x="1610.1" y="337.3" clip-path="url(#SVGID_12_)" fill="#FFFFFF" width="1115.1" height="1297.7"/>
											</g>
										</g>
									</g>
								</g>
							</g>
						</g>
					</g>
				</g>
			</g>
		</g>
	</g>
</g>
</svg>
