<?xml version="1.0" encoding="UTF-8" standalone="no"?>
<svg width="148px" height="89px" viewBox="0 0 148 89" version="1.1" xmlns="http://www.w3.org/2000/svg" xmlns:xlink="http://www.w3.org/1999/xlink">
    <!-- Generator: Sketch 3.6.1 (26313) - http://www.bohemiancoding.com/sketch -->
    <title>Group 2</title>
    <desc>Created with Sketch.</desc>
    <defs></defs>
    <g id="Page-1" stroke="none" stroke-width="1" fill="none" fill-rule="evenodd">
        <g id="Legals" transform="translate(-437.000000, -171.000000)">
            <g id="Group-2" transform="translate(436.000000, 168.000000)">
                <path d="M45.8229044,42.4222279 C35.5444303,46.4752669 23.880538,41.4222624 19.8219087,31.1579459 C15.7635855,20.8945463 20.8235596,9.24672002 31.1020337,5.19368111 C41.3795898,1.14094781 53.043482,6.19395229 57.1018053,16.4573519 C61.1604346,26.7216684 56.1004605,38.3694946 45.8229044,42.4222279 L45.8229044,42.4222279 Z M32.062982,7.62391527 C23.1267751,11.1479382 18.7272234,21.2750344 22.2554949,30.1983213 C25.7843786,39.1222193 35.9254432,43.5157111 44.8616501,39.9916882 C53.7972449,36.4682765 58.1967967,26.3411802 54.667913,17.4169766 C51.1396415,8.49399533 40.9985768,4.1005036 32.062982,7.62391527 L32.062982,7.62391527 Z" id="Fill-1" fill="#FFFFFF" transform="translate(38.461947, 23.808033) scale(-1, 1) rotate(10.000000) translate(-38.461947, -23.808033) "></path>
                <path d="M58.3129878,31.1187779 C59.0707292,30.0772489 62.3039835,27.345986 71.4192205,22.7691265 C71.2095869,21.8700132 71.068199,20.966927 70.9858757,20.0650632 C54.1907033,28.3856813 55.2544792,31.1144993 55.6642593,32.1505272 C56.2530697,33.6394735 58.2358671,34.8255573 68.4834317,32.339396 C70.5335567,31.8415525 72.763018,31.2306322 75.1225438,30.5243607 C74.5640309,29.8080039 74.0483628,29.0500838 73.5853326,28.2484611 C65.4307378,30.6380487 59.9964835,31.5166859 58.3129878,31.1187779" id="Fill-2" fill="#FFFFFF" transform="translate(65.304677, 26.921653) scale(-1, 1) rotate(10.000000) translate(-65.304677, -26.921653) "></path>
                <path d="M21.88124,32.2153593 C22.378546,33.0090361 22.937059,33.7464801 23.5430073,34.4362486 C28.3535633,32.9124624 33.6081754,31.0393606 38.9855073,28.9187124 C44.3625331,26.7986754 49.4809598,24.5814534 54.0359771,22.4122127 C54.0065978,21.4947627 53.9098909,20.5751733 53.7296366,19.6565008 C49.3196797,21.7875399 44.0583348,24.1089758 38.024559,26.4884782 C31.990171,28.8679806 26.5595891,30.7624753 21.88124,32.2153593" id="Fill-3" fill="#FFFFFF" transform="translate(37.958609, 27.046375) scale(-1, 1) rotate(10.000000) translate(-37.958609, -27.046375) "></path>
                <path d="M2.00107407,15.1242569 C2.55775079,15.83878 3.07250079,16.5948665 3.53461286,17.3943499 C13.3228198,14.517004 17.5522163,14.3055199 18.818281,14.5490934 C17.8610051,15.9882248 13.2912982,19.0544395 5.70164303,22.8733788 C5.91188872,23.7746314 6.05388872,24.679857 6.136212,25.5841657 C8.34272062,24.4897657 10.3885611,23.4146194 12.2266042,22.3792027 C21.4106991,17.2030362 22.0469448,14.9839806 21.4581344,13.4953399 C21.0483542,12.4583952 19.9579534,9.73935681 2.00107407,15.1242569" id="Fill-4" fill="#FFFFFF" transform="translate(11.808893, 18.734554) scale(-1, 1) rotate(10.000000) translate(-11.808893, -18.734554) "></path>
                <path d="M116.045894,60.6179195 L117.572856,71.3671361 C117.597372,71.5395786 117.730608,71.677302 117.902983,71.7076964 L128.642758,73.6014085 C129.028198,73.6693719 129.101791,74.1886052 128.750244,74.3588738 L118.955688,79.1008353 C118.798452,79.1770941 118.708531,79.3452976 118.732982,79.5181083 L120.260354,90.2628429 C120.315148,90.6485919 119.841766,90.8782118 119.56972,90.5976076 L111.988642,82.7819858 C111.866971,82.6565481 111.67795,82.6232187 111.520714,82.6994775 L101.724185,87.4483017 C101.372269,87.6185051 101.006275,87.2412601 101.189763,86.8971472 L106.299354,77.3261037 C106.381371,77.1724456 106.354467,76.9832633 106.232426,76.8577604 L98.6508345,69.0515358 C98.3783541,68.7712344 98.6254672,68.3085503 99.0109066,68.3765136 L109.750682,70.2702258 C109.923057,70.3006201 110.095362,70.2167717 110.177378,70.0631136 L115.288702,60.4844061 C115.47219,60.1402932 115.991165,60.2318024 116.045894,60.6179195 L116.045894,60.6179195 Z M72.5280847,71.8483528 L76.0812479,77.3230205 C76.1382253,77.4108653 76.2457372,77.4522132 76.3469159,77.4256519 L82.6697132,75.7629501 C82.8964519,75.7035005 83.068364,75.9679665 82.9201087,76.1490337 L78.7923622,81.1900238 C78.7257852,81.2712627 78.7197424,81.3855661 78.7767198,81.4734108 L82.3288577,86.9452413 C82.4562781,87.1419007 82.2569171,87.3856826 82.0380839,87.3007971 L75.9339238,84.9440263 C75.8360748,84.9062797 75.7248697,84.9356271 75.6583576,85.0164979 L71.5313768,90.0617976 C71.3830566,90.2432328 71.0880949,90.1293641 71.1010242,89.8959726 L71.4567952,83.398618 C71.4626303,83.294145 71.4002926,83.1977651 71.3020737,83.1599533 L65.2004639,80.8081862 C64.9811311,80.7239716 64.9980263,80.4096862 65.2251998,80.3499338 L71.5479321,78.6876001 C71.6491758,78.6606707 71.7219893,78.5721824 71.7274544,78.4676443 L72.0825245,71.965612 C72.0954538,71.7322205 72.4005994,71.6520614 72.5280847,71.8483528 L72.5280847,71.8483528 Z M137.541069,29.3056008 L141.093927,34.7798353 C141.150905,34.8676801 141.258416,34.909028 141.359965,34.8825319 L147.682392,33.2197649 C147.909501,33.1603805 148.081043,33.4247813 147.932788,33.6058485 L143.805041,38.6468386 C143.738834,38.7281427 143.732422,38.8423808 143.789399,38.9302256 L147.341537,44.402056 C147.468957,44.5987155 147.269596,44.8424974 147.050698,44.7579799 L140.946603,42.400841 C140.848754,42.3630945 140.737549,42.3924419 140.671407,42.4733779 L136.543991,47.5189804 C136.395736,47.7000476 136.101144,47.5862441 136.113703,47.3527874 L136.469844,40.855498 C136.475309,40.7509598 136.412972,40.6545799 136.314753,40.6167681 L130.213078,38.265369 C129.99381,38.1807863 130.011075,37.8665662 130.237814,37.8071166 L136.560611,36.1444148 C136.66216,36.1179187 136.734668,36.0289972 136.740503,35.9245243 L137.095204,29.4224267 C137.108133,29.1890352 137.413279,29.1088761 137.541069,29.3056008 L137.541069,29.3056008 Z M104.85743,39.0672971 L103.078985,45.331253 C103.050585,45.4317473 103.090352,45.5393275 103.177714,45.5976156 L108.615867,49.2266908 C108.811097,49.3567499 108.72527,49.6596397 108.490387,49.6679384 L101.956037,49.9066343 C101.850855,49.9104784 101.760598,49.9810903 101.732134,50.0819526 L99.9548822,56.3434626 C99.8912112,56.5682864 99.5752287,56.5801217 99.4941893,56.3605212 L97.232516,50.2452754 C97.1964351,50.1470736 97.1005397,50.0831063 96.9956621,50.0873838 L90.4581389,50.3289356 C90.2235613,50.3376676 90.1143385,50.0421306 90.298831,49.8978133 L95.4356468,45.8806612 C95.5183826,45.8159336 95.5495788,45.7060655 95.513128,45.6077985 L93.2490665,39.4974447 C93.1675923,39.278147 93.4158646,39.0835963 93.6113998,39.2140887 L99.0495524,42.8431639 C99.1369141,42.901452 99.2517336,42.8970301 99.3344045,42.8326706 L104.474218,38.8114931 C104.658711,38.6671758 104.921471,38.8425385 104.85743,39.0672971 L104.85743,39.0672971 Z" id="Imported-Layers" stroke="#FFFFFF" stroke-width="2" stroke-linecap="round" stroke-linejoin="round"></path>
            </g>
        </g>
    </g>
</svg>