<svg id="Calque_1" xmlns="http://www.w3.org/2000/svg" viewBox="261 -204 612 498"><style>.st0{fill:#FFF}</style><title>twitter</title><g id="Page-1"><g id="twitter"><path id="Shape" class="st0" d="M873-144.7c-22.5 10-46.7 16.8-72.1 19.8 25.9-15.5 45.8-40.2 55.2-69.4-24.3 14.4-51.2 24.8-79.8 30.5-22.9-24.4-55.5-39.7-91.6-39.7-69.3 0-125.6 56.2-125.6 125.5 0 9.8 1.1 19.4 3.3 28.6-104.3-5.2-196.8-55.2-258.8-131.2-10.8 18.5-17 40.1-17 63.1 0 43.6 22.2 82 55.8 104.5-20.6-.7-39.9-6.3-56.9-15.8v1.6c0 60.8 43.3 111.6 100.7 123.1-10.5 2.8-21.6 4.4-33.1 4.4-8.1 0-15.9-.8-23.6-2.3 16 49.9 62.3 86.2 117.3 87.2-42.9 33.7-97.1 53.7-155.9 53.7-10.1 0-20.1-.6-29.9-1.7 55.6 35.7 121.5 56.5 192.4 56.5 230.9 0 357.2-191.3 357.2-357.2l-.4-16.3c24.7-17.7 46-39.8 62.8-64.9z"/></g></g></svg>