<?xml version="1.0" encoding="UTF-8" standalone="no"?>
<svg width="319px" height="76px" viewBox="0 0 319 76" version="1.1" xmlns="http://www.w3.org/2000/svg" xmlns:xlink="http://www.w3.org/1999/xlink">
    <!-- Generator: Sketch 3.6.1 (26313) - http://www.bohemiancoding.com/sketch -->
    <title>Pictos</title>
    <desc>Created with Sketch.</desc>
    <defs>
        <filter x="-50%" y="-50%" width="200%" height="200%" filterUnits="objectBoundingBox" id="filter-1">
            <feOffset dx="0" dy="1" in="SourceAlpha" result="shadowOffsetOuter1"></feOffset>
            <feGaussianBlur stdDeviation="4.5" in="shadowOffsetOuter1" result="shadowBlurOuter1"></feGaussianBlur>
            <feColorMatrix values="0 0 0 0 1   0 0 0 0 1   0 0 0 0 1  0 0 0 0.7 0" in="shadowBlurOuter1" type="matrix" result="shadowMatrixOuter1"></feColorMatrix>
            <feMerge>
                <feMergeNode in="shadowMatrixOuter1"></feMergeNode>
                <feMergeNode in="SourceGraphic"></feMergeNode>
            </feMerge>
        </filter>
        <filter x="-50%" y="-50%" width="200%" height="200%" filterUnits="objectBoundingBox" id="filter-2">
            <feOffset dx="0" dy="1" in="SourceAlpha" result="shadowOffsetOuter1"></feOffset>
            <feGaussianBlur stdDeviation="4.5" in="shadowOffsetOuter1" result="shadowBlurOuter1"></feGaussianBlur>
            <feColorMatrix values="0 0 0 0 1   0 0 0 0 1   0 0 0 0 1  0 0 0 0.7 0" in="shadowBlurOuter1" type="matrix" result="shadowMatrixOuter1"></feColorMatrix>
            <feMerge>
                <feMergeNode in="shadowMatrixOuter1"></feMergeNode>
                <feMergeNode in="SourceGraphic"></feMergeNode>
            </feMerge>
        </filter>
        <filter x="-50%" y="-50%" width="200%" height="200%" filterUnits="objectBoundingBox" id="filter-3">
            <feOffset dx="0" dy="1" in="SourceAlpha" result="shadowOffsetOuter1"></feOffset>
            <feGaussianBlur stdDeviation="4.5" in="shadowOffsetOuter1" result="shadowBlurOuter1"></feGaussianBlur>
            <feColorMatrix values="0 0 0 0 1   0 0 0 0 1   0 0 0 0 1  0 0 0 0.7 0" in="shadowBlurOuter1" type="matrix" result="shadowMatrixOuter1"></feColorMatrix>
            <feMerge>
                <feMergeNode in="shadowMatrixOuter1"></feMergeNode>
                <feMergeNode in="SourceGraphic"></feMergeNode>
            </feMerge>
        </filter>
        <filter x="-50%" y="-50%" width="200%" height="200%" filterUnits="objectBoundingBox" id="filter-4">
            <feOffset dx="0" dy="1" in="SourceAlpha" result="shadowOffsetOuter1"></feOffset>
            <feGaussianBlur stdDeviation="4.5" in="shadowOffsetOuter1" result="shadowBlurOuter1"></feGaussianBlur>
            <feColorMatrix values="0 0 0 0 1   0 0 0 0 1   0 0 0 0 1  0 0 0 0.7 0" in="shadowBlurOuter1" type="matrix" result="shadowMatrixOuter1"></feColorMatrix>
            <feMerge>
                <feMergeNode in="shadowMatrixOuter1"></feMergeNode>
                <feMergeNode in="SourceGraphic"></feMergeNode>
            </feMerge>
        </filter>
        <filter x="-50%" y="-50%" width="200%" height="200%" filterUnits="objectBoundingBox" id="filter-5">
            <feOffset dx="0" dy="1" in="SourceAlpha" result="shadowOffsetOuter1"></feOffset>
            <feGaussianBlur stdDeviation="4.5" in="shadowOffsetOuter1" result="shadowBlurOuter1"></feGaussianBlur>
            <feColorMatrix values="0 0 0 0 1   0 0 0 0 1   0 0 0 0 1  0 0 0 0.7 0" in="shadowBlurOuter1" type="matrix" result="shadowMatrixOuter1"></feColorMatrix>
            <feMerge>
                <feMergeNode in="shadowMatrixOuter1"></feMergeNode>
                <feMergeNode in="SourceGraphic"></feMergeNode>
            </feMerge>
        </filter>
        <filter x="-50%" y="-50%" width="200%" height="200%" filterUnits="objectBoundingBox" id="filter-6">
            <feOffset dx="0" dy="1" in="SourceAlpha" result="shadowOffsetOuter1"></feOffset>
            <feGaussianBlur stdDeviation="4.5" in="shadowOffsetOuter1" result="shadowBlurOuter1"></feGaussianBlur>
            <feColorMatrix values="0 0 0 0 1   0 0 0 0 1   0 0 0 0 1  0 0 0 0.7 0" in="shadowBlurOuter1" type="matrix" result="shadowMatrixOuter1"></feColorMatrix>
            <feMerge>
                <feMergeNode in="shadowMatrixOuter1"></feMergeNode>
                <feMergeNode in="SourceGraphic"></feMergeNode>
            </feMerge>
        </filter>
        <filter x="-50%" y="-50%" width="200%" height="200%" filterUnits="objectBoundingBox" id="filter-7">
            <feOffset dx="0" dy="1" in="SourceAlpha" result="shadowOffsetOuter1"></feOffset>
            <feGaussianBlur stdDeviation="4.5" in="shadowOffsetOuter1" result="shadowBlurOuter1"></feGaussianBlur>
            <feColorMatrix values="0 0 0 0 1   0 0 0 0 1   0 0 0 0 1  0 0 0 0.7 0" in="shadowBlurOuter1" type="matrix" result="shadowMatrixOuter1"></feColorMatrix>
            <feMerge>
                <feMergeNode in="shadowMatrixOuter1"></feMergeNode>
                <feMergeNode in="SourceGraphic"></feMergeNode>
            </feMerge>
        </filter>
        <filter x="-50%" y="-50%" width="200%" height="200%" filterUnits="objectBoundingBox" id="filter-8">
            <feOffset dx="0" dy="1" in="SourceAlpha" result="shadowOffsetOuter1"></feOffset>
            <feGaussianBlur stdDeviation="4.5" in="shadowOffsetOuter1" result="shadowBlurOuter1"></feGaussianBlur>
            <feColorMatrix values="0 0 0 0 1   0 0 0 0 1   0 0 0 0 1  0 0 0 0.7 0" in="shadowBlurOuter1" type="matrix" result="shadowMatrixOuter1"></feColorMatrix>
            <feMerge>
                <feMergeNode in="shadowMatrixOuter1"></feMergeNode>
                <feMergeNode in="SourceGraphic"></feMergeNode>
            </feMerge>
        </filter>
        <filter x="-50%" y="-50%" width="200%" height="200%" filterUnits="objectBoundingBox" id="filter-9">
            <feOffset dx="0" dy="1" in="SourceAlpha" result="shadowOffsetOuter1"></feOffset>
            <feGaussianBlur stdDeviation="4.5" in="shadowOffsetOuter1" result="shadowBlurOuter1"></feGaussianBlur>
            <feColorMatrix values="0 0 0 0 1   0 0 0 0 1   0 0 0 0 1  0 0 0 0.7 0" in="shadowBlurOuter1" type="matrix" result="shadowMatrixOuter1"></feColorMatrix>
            <feMerge>
                <feMergeNode in="shadowMatrixOuter1"></feMergeNode>
                <feMergeNode in="SourceGraphic"></feMergeNode>
            </feMerge>
        </filter>
        <filter x="-50%" y="-50%" width="200%" height="200%" filterUnits="objectBoundingBox" id="filter-10">
            <feOffset dx="0" dy="1" in="SourceAlpha" result="shadowOffsetOuter1"></feOffset>
            <feGaussianBlur stdDeviation="4.5" in="shadowOffsetOuter1" result="shadowBlurOuter1"></feGaussianBlur>
            <feColorMatrix values="0 0 0 0 1   0 0 0 0 1   0 0 0 0 1  0 0 0 0.7 0" in="shadowBlurOuter1" type="matrix" result="shadowMatrixOuter1"></feColorMatrix>
            <feMerge>
                <feMergeNode in="shadowMatrixOuter1"></feMergeNode>
                <feMergeNode in="SourceGraphic"></feMergeNode>
            </feMerge>
        </filter>
        <filter x="-50%" y="-50%" width="200%" height="200%" filterUnits="objectBoundingBox" id="filter-11">
            <feOffset dx="0" dy="1" in="SourceAlpha" result="shadowOffsetOuter1"></feOffset>
            <feGaussianBlur stdDeviation="4.5" in="shadowOffsetOuter1" result="shadowBlurOuter1"></feGaussianBlur>
            <feColorMatrix values="0 0 0 0 1   0 0 0 0 1   0 0 0 0 1  0 0 0 0.7 0" in="shadowBlurOuter1" type="matrix" result="shadowMatrixOuter1"></feColorMatrix>
            <feMerge>
                <feMergeNode in="shadowMatrixOuter1"></feMergeNode>
                <feMergeNode in="SourceGraphic"></feMergeNode>
            </feMerge>
        </filter>
        <filter x="-50%" y="-50%" width="200%" height="200%" filterUnits="objectBoundingBox" id="filter-12">
            <feOffset dx="0" dy="1" in="SourceAlpha" result="shadowOffsetOuter1"></feOffset>
            <feGaussianBlur stdDeviation="4.5" in="shadowOffsetOuter1" result="shadowBlurOuter1"></feGaussianBlur>
            <feColorMatrix values="0 0 0 0 1   0 0 0 0 1   0 0 0 0 1  0 0 0 0.7 0" in="shadowBlurOuter1" type="matrix" result="shadowMatrixOuter1"></feColorMatrix>
            <feMerge>
                <feMergeNode in="shadowMatrixOuter1"></feMergeNode>
                <feMergeNode in="SourceGraphic"></feMergeNode>
            </feMerge>
        </filter>
        <filter x="-50%" y="-50%" width="200%" height="200%" filterUnits="objectBoundingBox" id="filter-13">
            <feOffset dx="0" dy="1" in="SourceAlpha" result="shadowOffsetOuter1"></feOffset>
            <feGaussianBlur stdDeviation="4.5" in="shadowOffsetOuter1" result="shadowBlurOuter1"></feGaussianBlur>
            <feColorMatrix values="0 0 0 0 1   0 0 0 0 1   0 0 0 0 1  0 0 0 0.7 0" in="shadowBlurOuter1" type="matrix" result="shadowMatrixOuter1"></feColorMatrix>
            <feMerge>
                <feMergeNode in="shadowMatrixOuter1"></feMergeNode>
                <feMergeNode in="SourceGraphic"></feMergeNode>
            </feMerge>
        </filter>
        <filter x="-50%" y="-50%" width="200%" height="200%" filterUnits="objectBoundingBox" id="filter-14">
            <feOffset dx="0" dy="1" in="SourceAlpha" result="shadowOffsetOuter1"></feOffset>
            <feGaussianBlur stdDeviation="4.5" in="shadowOffsetOuter1" result="shadowBlurOuter1"></feGaussianBlur>
            <feColorMatrix values="0 0 0 0 1   0 0 0 0 1   0 0 0 0 1  0 0 0 0.7 0" in="shadowBlurOuter1" type="matrix" result="shadowMatrixOuter1"></feColorMatrix>
            <feMerge>
                <feMergeNode in="shadowMatrixOuter1"></feMergeNode>
                <feMergeNode in="SourceGraphic"></feMergeNode>
            </feMerge>
        </filter>
        <filter x="-50%" y="-50%" width="200%" height="200%" filterUnits="objectBoundingBox" id="filter-15">
            <feOffset dx="0" dy="1" in="SourceAlpha" result="shadowOffsetOuter1"></feOffset>
            <feGaussianBlur stdDeviation="4.5" in="shadowOffsetOuter1" result="shadowBlurOuter1"></feGaussianBlur>
            <feColorMatrix values="0 0 0 0 1   0 0 0 0 1   0 0 0 0 1  0 0 0 0.7 0" in="shadowBlurOuter1" type="matrix" result="shadowMatrixOuter1"></feColorMatrix>
            <feMerge>
                <feMergeNode in="shadowMatrixOuter1"></feMergeNode>
                <feMergeNode in="SourceGraphic"></feMergeNode>
            </feMerge>
        </filter>
    </defs>
    <g id="Page-1" stroke="none" stroke-width="1" fill="none" fill-rule="evenodd">
        <g id="Website-Home-page-unlog-3" transform="translate(-391.000000, -242.000000)" fill="#4A4A4A">
            <g id="Pictos" transform="translate(399.000000, 250.166667)">
                <path d="M58.985547,15.8113371 C58.5539212,15.8113371 58.1892604,15.4898202 58.1368818,15.0642247 L57.569337,10.4078652 L52.8725055,9.50032584 C52.5065186,9.43005618 52.2313654,9.13439326 52.1876061,8.76580899 C52.1438468,8.39788764 52.3420897,8.04720225 52.6808928,7.89340449 L57.0216827,5.92055056 L56.4528118,1.26485393 C56.4236389,1.02355056 56.4978972,0.782247191 56.6583479,0.601269663 C56.9772604,0.240640449 57.5879015,0.226719101 57.9214004,0.58005618 L61.1808053,4.0305618 L65.5328665,2.05240449 C65.9286893,1.87208989 66.4120306,2.03185393 66.626849,2.40110112 C66.7800066,2.6642809 66.7806696,2.97916854 66.6301641,3.245 L64.302965,7.33323596 L67.5497724,10.7704831 C67.7824923,11.015764 67.8468053,11.3757303 67.7128753,11.6866404 C67.5782823,11.9995393 67.2713042,12.2023933 66.9311751,12.2023933 C66.8887418,12.2023933 66.8065274,12.1944382 66.7647571,12.1858202 L62.0599694,11.2743034 L59.7268031,15.3797753 C59.5749716,15.6462697 59.2911991,15.8113371 58.985547,15.8113371 L58.985547,15.8113371 Z M54.5903895,8.48207865 L58.1580985,9.17151685 C58.5234223,9.2411236 58.7992385,9.5361236 58.8429978,9.90404494 L59.2799278,13.4824944 L61.0753851,10.3243371 C61.2252276,10.0591685 61.510326,9.89277528 61.8179672,9.89277528 C61.8597374,9.89277528 61.9386368,9.90073034 61.979081,9.90802247 L65.5686696,10.6040899 L63.0962691,7.9868764 C62.8390175,7.71640449 62.789291,7.31401124 62.9742735,6.98719101 L64.7518293,3.86416854 L61.4241335,5.37629213 C61.0919606,5.52544944 60.6928228,5.44457303 60.4481685,5.18603371 L57.9439431,2.53501124 L58.3808731,6.1081573 C58.4259584,6.47873034 58.2263895,6.83074157 57.8855974,6.98453933 L54.5903895,8.48207865 L54.5903895,8.48207865 Z" id="Fill-1" filter="url(#filter-1)"></path>
                <path d="M35.6399606,24.7587865 L35.6399606,24.7587865 C35.4582932,24.7587865 35.2799409,24.6951461 35.1380547,24.5797978 L32.6165908,22.5333596 L29.9492626,24.2682247 C29.593221,24.4975955 29.0972823,24.3941798 28.8585952,24.0521124 C28.7100788,23.8379888 28.6762648,23.5642022 28.7670985,23.3195843 L29.8842867,20.3152247 L27.3548665,18.264809 C27.0929737,18.054 26.9915317,17.6980112 27.1035821,17.379809 C27.2156324,17.0629326 27.5159803,16.8501348 27.8514683,16.8501348 L31.0996018,17.0403933 L32.2094967,14.0492921 C32.3268512,13.7350674 32.6185799,13.5322135 32.9534048,13.5322135 C33.3107724,13.5322135 33.6276958,13.7728539 33.7231707,14.117573 L34.5943786,17.2465618 L37.8133392,17.4354944 C38.1600985,17.4567079 38.4511641,17.6953596 38.5386827,18.0301348 C38.6268643,18.3635843 38.4916083,18.7129438 38.2031947,18.8998876 L35.5378556,20.632764 L36.4057484,23.7498202 C36.4727133,23.9917865 36.4256389,24.2450225 36.2738074,24.4438989 C36.124628,24.6407865 35.887267,24.7587865 35.6399606,24.7587865 L35.6399606,24.7587865 Z M32.6504048,21.0828876 C32.8333982,21.0828876 33.0124136,21.1465281 33.1542998,21.2618764 L34.6812341,22.5015393 L34.1561225,20.6142022 C34.0613107,20.2807528 34.1939147,19.9267528 34.4856433,19.7351685 L36.1325842,18.6645506 L34.1408731,18.5472135 C33.7987549,18.5266629 33.5090153,18.2919888 33.4181816,17.9638427 L32.8837877,16.0446854 L32.2055186,17.8703708 C32.0908162,18.1799551 31.7917943,18.3881124 31.4616105,18.3881124 L29.4685733,18.2714382 L31.0127462,19.5236966 C31.2792801,19.7384831 31.378733,20.0997753 31.2593895,20.4212921 L30.5665339,22.285427 L32.217453,21.2114944 C32.3454158,21.1279663 32.4952582,21.0828876 32.6504048,21.0828876 L32.6504048,21.0828876 Z" id="Fill-2" filter="url(#filter-2)"></path>
                <path d="M27.3654748,49.3697416 L27.3654748,49.3697416 C27.2275667,49.3697416 27.0916477,49.3206854 26.9829125,49.2331798 L24.878488,47.5248315 L22.6527309,48.9733146 C22.5718425,49.0263483 22.4186849,49.071427 22.322547,49.071427 C22.1236411,49.071427 21.9360066,48.9733146 21.8219672,48.8082472 C21.7079278,48.6458315 21.68207,48.4370112 21.7510241,48.2507303 L22.6832298,45.7428989 L20.5735011,44.0325618 C20.3732691,43.870809 20.2963589,43.5990112 20.3818884,43.356382 C20.4674179,43.1157416 20.6961597,42.9533258 20.9520853,42.9533258 L23.6598578,43.112427 L24.5860963,40.6158652 C24.6756039,40.3765506 24.8977155,40.221427 25.1536411,40.221427 C25.4261422,40.221427 25.6668184,40.4050562 25.7404136,40.667573 L26.4670832,43.2781573 L29.1529759,43.4359326 C29.4175208,43.4518427 29.6396324,43.6341461 29.7065974,43.8900337 C29.7728993,44.1439326 29.6694683,44.410427 29.4493457,44.5522921 L27.2249147,45.9994494 L27.9489322,48.6000899 C28.0006477,48.7850449 27.9641816,48.9779551 27.8488162,49.1291011 C27.7347768,49.2795843 27.5537724,49.3697416 27.3654748,49.3697416 L27.3654748,49.3697416 Z M24.9036827,46.4396292 C25.0435799,46.4396292 25.1801619,46.4880225 25.2888972,46.5768539 L26.664,47.6932135 L26.1906039,45.9921573 C26.1189978,45.7369326 26.2197768,45.4671236 26.4418884,45.3226067 L27.9217484,44.359382 L26.1335842,44.2546404 C25.8736805,44.2387303 25.652895,44.0597416 25.5826149,43.8098202 L25.1025886,42.083573 L24.4919475,43.7282809 C24.4044289,43.9649438 24.1763501,44.123382 23.9250656,44.123382 L22.1349125,44.0179775 L23.5246018,45.1449438 C23.7281488,45.3093483 23.80307,45.5844607 23.7122363,45.8297416 L23.0903239,47.5022921 L24.5734989,46.5377416 C24.6543873,46.4847079 24.8075449,46.4396292 24.9036827,46.4396292 L24.9036827,46.4396292 Z" id="Fill-3" filter="url(#filter-3)"></path>
                <path d="M4.59804158,33.9554944 C4.30830197,33.9554944 4.05768053,33.748 4.00264989,33.4622809 L3.48880963,30.8026404 L0.851980306,30.4811236 C0.591413567,30.4486404 0.382562363,30.2544045 0.330846827,29.9965281 C0.279131291,29.7386517 0.398474836,29.4781236 0.626553611,29.348191 L2.95308972,28.0263258 L2.43593435,25.3593933 C2.40079431,25.1810674 2.44654267,24.9974382 2.56257112,24.8575618 C2.77805252,24.5963708 3.20105908,24.5685281 3.44770241,24.8018764 L5.39167615,26.6381685 L7.7062779,25.3216067 C7.78119912,25.2791798 7.91977024,25.2420562 8.0059628,25.2420562 C8.21216193,25.2420562 8.40244858,25.3461348 8.51516193,25.5211461 C8.62787527,25.6954944 8.64378775,25.9129326 8.55759519,26.1025281 L7.43576586,28.5699213 L9.39167396,30.4168202 C9.57400438,30.5885169 9.63235011,30.8503708 9.53952735,31.084382 C9.44736761,31.3170674 9.22591904,31.4675506 8.97728665,31.4675506 C8.95673304,31.4675506 8.92225602,31.4655618 8.90236543,31.4629101 L6.26686214,31.1413933 L5.14967396,33.5995056 C5.05154705,33.8149551 4.83473961,33.9554944 4.59804158,33.9554944 L4.59804158,33.9554944 Z M2.13359737,29.6358989 L3.88993654,29.8493596 C4.1511663,29.8805169 4.36200656,30.0767416 4.41239606,30.3385955 L4.74854705,32.078764 L5.47919475,30.4705169 C5.58461488,30.2378315 5.84717068,30.0919888 6.10177024,30.1191685 L7.85479431,30.3332921 L6.55262363,29.103573 C6.36432604,28.9259101 6.3092954,28.6461573 6.41604158,28.4094944 L7.15796061,26.7780449 L5.63301532,27.6451461 C5.55809409,27.688236 5.420186,27.7246966 5.33333042,27.7246966 C5.17818381,27.7246966 5.0296674,27.6650337 4.91629103,27.5576404 L3.64130416,26.3531124 L3.98143326,28.1085281 C4.03115974,28.3650787 3.91247921,28.6229551 3.68705252,28.7528876 L2.13359737,29.6358989 L2.13359737,29.6358989 Z" id="Fill-4" filter="url(#filter-4)"></path>
                <path d="M86.3516849,51.7032247 C86.08714,51.7032247 85.8371816,51.5441236 85.7344136,51.2829326 C85.0674158,49.5931461 84.9527133,48.4462921 85.3737309,47.6746517 C86.4822998,45.6421348 86.7667352,44.7836517 86.2721225,43.7044157 C86.1302363,43.3954944 85.984372,43.0255843 85.8351926,42.6444045 C85.6210372,42.0981573 85.243779,41.1362584 84.9719409,40.8014831 C84.6397681,41.105764 84.2910197,41.5572135 83.9528796,41.9947416 C83.460256,42.631809 82.9948162,43.2337416 82.4776608,43.5552584 C81.4015799,44.2241461 80.0762035,43.1130899 78.7932604,42.0391573 C78.5963435,41.8740899 78.4014158,41.7103483 78.2098031,41.5558876 C76.659,40.3042921 77.4208096,37.8196629 77.9253676,36.1749551 L77.9923326,35.9555281 C78.3324617,34.835191 78.8542582,34.3519213 79.5756236,33.6823708 C79.958186,33.3283708 80.3911379,32.9266404 80.9268578,32.3167528 C82.3589803,30.6853034 83.660488,31.3077865 84.9195624,31.910382 C85.4307505,32.155 85.9591772,32.4069101 86.5870569,32.5892135 C87.5179365,32.8596854 89.1675295,33.5199551 91.0067462,34.5620674 C91.3256586,34.742382 91.437046,35.147427 91.2567046,35.4656292 C91.0763632,35.7844944 90.6712582,35.897191 90.3530088,35.7155506 C88.6132451,34.7297865 87.0757024,34.1119438 86.2170919,33.8626854 C85.4851182,33.6498876 84.8804442,33.3608539 84.3473764,33.1062921 C83.0624442,32.491764 82.6599912,32.3525506 81.9233764,33.1911461 C81.3425711,33.8527416 80.8625449,34.2975618 80.4773304,34.6548764 C79.824256,35.2601236 79.4967243,35.5637416 79.2613523,36.3406854 L79.1930613,36.5640899 C78.8177921,37.7871798 78.1899125,39.8356067 79.0432188,40.5250449 C79.2407987,40.6834831 79.4416937,40.8525281 79.6445777,41.0228989 C80.227372,41.5101461 81.4420241,42.5257416 81.7814902,42.4276292 C82.0917834,42.2340562 82.5041816,41.7004045 82.9039825,41.1839888 C83.3276521,40.6350899 83.7665711,40.0669663 84.2465974,39.6758427 C84.5469453,39.4312247 84.9016608,39.3457079 85.245105,39.4358652 C86.08714,39.656618 86.5426346,40.8167303 87.0697352,42.1604719 C87.2096324,42.5164607 87.3442254,42.8625056 87.4768293,43.1522022 C88.273779,44.8870674 87.6220306,46.3209663 86.5379934,48.3097303 C86.4418556,48.4860674 86.2913501,49.0813708 86.9676302,50.7970112 C87.1022232,51.1370899 86.9351422,51.5222472 86.5943501,51.6568202 C86.5147877,51.6879775 86.4325733,51.7032247 86.3516849,51.7032247" id="Fill-5" filter="url(#filter-5)"></path>
                <path d="M71.4675558,48.5530225 C70.397442,48.5530225 69.2490919,47.8549663 68.2227374,46.5768539 C67.9847133,46.2798652 67.4781663,46.1022022 66.7163567,46.0491685 C66.3516958,46.0233146 66.0765427,45.7064382 66.1017374,45.3411685 C66.1275952,44.9758989 66.4438556,44.704764 66.8098425,44.7259775 C67.9707899,44.8081798 68.7717177,45.1416292 69.2570481,45.7468764 C70.0215098,46.6988315 70.8754792,47.2490562 71.5119781,47.2265169 C71.7625996,47.2159101 71.9654836,47.115809 72.1179781,46.9275393 C72.0384158,46.382618 70.7183435,44.7677416 69.9989672,43.887382 C68.5522582,42.1187079 67.9204004,41.3079551 68.0974267,40.6118876 C68.5641926,38.7789101 69.6077856,37.574382 71.1154923,37.128236 C72.0695777,36.8458315 74.0128884,34.7350899 74.6938096,32.963764 C74.9344858,32.3373034 74.9271926,31.961427 74.839674,31.8188989 C74.6149103,31.4523034 72.8976893,31.1142135 69.2384836,31.7638764 C68.8758118,31.8314944 68.5336937,31.5882022 68.4693807,31.227573 C68.4050678,30.8669438 68.645744,30.5228876 69.0057637,30.4592472 C72.9295142,29.7598652 75.2719628,29.9852584 75.9707856,31.126809 C76.3168818,31.6922809 76.3036214,32.4705506 75.9316674,33.4397416 C75.2156061,35.3025506 73.0753786,37.9303708 71.4920875,38.3997191 C70.46507,38.704 69.7635952,39.5280112 69.4055646,40.8505393 C69.5434726,41.2356966 70.42993,42.3208989 71.0253217,43.0487865 C72.8320503,45.2576404 73.9061422,46.6597191 73.2623501,47.6076966 C72.8685164,48.1884157 72.2658315,48.523191 71.5650197,48.5510337 C71.5325317,48.5523596 71.5000438,48.5530225 71.4675558,48.5530225" id="Fill-6" filter="url(#filter-6)"></path>
                <path d="M78.7216543,54.2514944 C70.9828884,54.2514944 64.6875164,47.9570562 64.6875164,40.2194382 C64.6875164,32.4824831 70.9828884,26.1880449 78.7216543,26.1880449 C86.4597571,26.1880449 92.7557921,32.4824831 92.7557921,40.2194382 C92.7557921,47.9570562 86.4597571,54.2514944 78.7216543,54.2514944 L78.7216543,54.2514944 Z M78.7216543,27.5138876 C71.7141991,27.5138876 66.0135558,33.2136854 66.0135558,40.2194382 C66.0135558,47.2258539 71.7141991,52.9256517 78.7216543,52.9256517 C85.7291094,52.9256517 91.4297527,47.2258539 91.4297527,40.2194382 C91.4297527,33.2136854 85.7291094,27.5138876 78.7216543,27.5138876 L78.7216543,27.5138876 Z" id="Fill-7" filter="url(#filter-7)"></path>
                <path d="M235.821519,2.17769663 C242.062523,3.4498427 246.100976,9.55468539 244.824663,15.7861461 C243.547687,22.0182697 237.431993,26.0541348 231.190989,24.7819888 C224.951311,23.5105056 220.912858,17.4056629 222.189171,11.1735393 C223.465484,4.94141573 229.581177,0.906213483 235.821519,2.17769663 L235.821519,2.17769663 Z M230.843567,26.4797303 C238.021418,27.9427978 245.055394,23.3010225 246.523982,16.1328539 C247.991908,8.96534831 243.347455,1.94302247 236.169604,0.480617978 C228.991753,-0.982449438 221.957777,3.65932584 220.489851,10.8268315 C219.021263,17.995 223.666379,25.0166629 230.843567,26.4797303 L230.843567,26.4797303 Z" id="Fill-8" filter="url(#filter-8)"></path>
                <path d="M221.823847,6.63053933 C221.542063,7.16153933 221.293431,7.71441573 221.083254,8.28916854 C214.360897,7.53741573 211.574888,7.88611236 210.776613,8.19105618 C211.567595,9.02037079 214.90391,10.4960337 220.299565,12.1155506 C220.265751,12.7280899 220.277685,13.3359888 220.328074,13.9352697 C218.761359,13.4752022 217.301389,13.0085056 215.98198,12.5444607 C209.389575,10.2222472 208.7186,8.84668539 208.931429,7.80722472 C209.079945,7.08265169 209.47842,5.18205618 221.823847,6.63053933" id="Fill-9" filter="url(#filter-9)"></path>
                <path d="M244.265737,17.1504382 C244.032354,17.7258539 243.75256,18.2714382 243.4363,18.7918315 C240.119875,18.3509888 236.473267,17.7324831 232.717923,16.9674719 C228.963243,16.2024607 225.365698,15.3439775 222.142096,14.4523483 C222.055241,13.8497528 222.012807,13.2385393 222.024742,12.6180449 C225.149554,13.5017191 228.851856,14.4112472 233.066009,15.2703933 C237.280162,16.1288764 241.044125,16.7407528 244.265737,17.1504382" id="Fill-10" filter="url(#filter-10)"></path>
                <path d="M256.352586,17.4792472 C255.737967,16.8865955 253.311978,15.4758989 246.833613,13.5368539 C246.866764,12.9256404 246.855492,12.3203933 246.805103,11.7217753 C258.729512,15.2206742 258.348939,17.1245843 258.200422,17.8478315 C257.987593,18.8879551 256.829298,19.8902921 249.852341,19.4467978 C248.456022,19.3579663 246.930414,19.2161011 245.308004,19.0265056 C245.590451,18.4941798 245.839746,17.9399775 246.049923,17.363236 C251.649788,17.9850562 255.299048,17.9326854 256.352586,17.4792472" id="Fill-11" filter="url(#filter-11)"></path>
                <path d="M283.225438,58.3874607 C282.97349,58.3874607 282.736792,58.2860337 282.559103,58.1030674 L277.731656,53.1265169 L271.492641,56.150764 C271.06433,56.3575955 270.526621,56.1918652 270.285282,55.7894719 C270.116875,55.5083933 270.108919,55.1669888 270.264066,54.8766292 L273.514851,48.7876966 L268.690057,43.820427 C268.42949,43.5519438 268.354569,43.1561798 268.49977,42.8127865 C268.646298,42.4667416 268.981123,42.2433371 269.354403,42.2433371 C269.392858,42.2433371 269.481039,42.2512921 269.519495,42.2579213 L276.35788,43.4637753 L279.61198,37.3668876 C279.773757,37.0632697 280.088028,36.8743371 280.43081,36.8743371 C280.900891,36.8743371 281.28942,37.2111011 281.355059,37.6744831 L282.327046,44.5164944 L289.166094,45.7216854 C289.565232,45.7919551 289.870884,46.1088315 289.926578,46.5098989 C289.982271,46.9103034 289.774746,47.2974494 289.410748,47.4737865 L283.1777,50.4907416 L284.149687,57.3267865 C284.187479,57.5939438 284.10858,57.8630899 283.933543,58.064618 C283.755853,58.2694607 283.497939,58.3874607 283.225438,58.3874607 L283.225438,58.3874607 Z M277.81586,51.7164831 C278.067144,51.7164831 278.310473,51.819236 278.484847,51.9995506 L282.665186,56.3078764 L281.823814,50.3899775 C281.767457,49.9889101 281.974319,49.6004382 282.33898,49.4241011 L287.728667,46.8148427 L281.814532,45.7720674 C281.416057,45.7011348 281.111068,45.3855843 281.054711,44.9865056 L280.212676,39.0573371 L277.392853,44.3414831 C277.230414,44.6451011 276.915479,44.8333708 276.571372,44.8333708 C276.532917,44.8333708 276.44805,44.8260787 276.410258,44.8194494 L270.496123,43.7760112 L274.667842,48.0710787 C274.950289,48.3621011 275.012613,48.7976404 274.821663,49.155618 L272.007144,54.4278315 L277.409429,51.8092921 C277.536066,51.7483034 277.675963,51.7164831 277.81586,51.7164831 L277.81586,51.7164831 Z" id="Fill-12" filter="url(#filter-12)"></path>
                <path d="M294.166589,29.8062697 C293.940499,29.8062697 293.720376,29.7121348 293.56523,29.5477303 C293.408757,29.3826629 293.329858,29.1658876 293.342455,28.9378427 L293.557937,24.9954494 L289.853646,23.5681798 C289.518821,23.439573 289.307317,23.1127528 289.327208,22.7547753 C289.347098,22.3967978 289.593079,22.0958315 289.939838,22.0043483 L293.778059,20.995382 L293.992877,17.0516629 C294.017409,16.6141348 294.379418,16.2733933 294.816348,16.2733933 C295.095479,16.2733933 295.353394,16.4139326 295.506551,16.6486067 L297.664681,19.9738202 L301.506217,18.9635281 C301.561247,18.9489438 301.660037,18.9363483 301.717057,18.9363483 C302.033317,18.9363483 302.325046,19.1219663 302.460965,19.4083483 C302.59821,19.6980449 302.557103,20.0328202 302.352893,20.2807528 L299.849993,23.3374831 L302.004807,26.6567303 C302.169236,26.9112921 302.181834,27.2321461 302.037958,27.4966517 C301.89342,27.7624831 301.616278,27.9282135 301.315267,27.9282135 C301.233716,27.9282135 301.093155,27.9016966 301.016908,27.8718652 L297.309302,26.440618 L294.802425,29.5039775 C294.645952,29.6955618 294.413895,29.8062697 294.166589,29.8062697 L294.166589,29.8062697 Z M291.783696,22.8906742 L294.376103,23.8896966 C294.711591,24.0196292 294.922431,24.3464494 294.90254,24.703764 L294.750709,27.4734494 L296.513015,25.319618 C296.670151,25.1273708 296.902871,25.0173258 297.15084,25.0173258 C297.231729,25.0173258 297.3703,25.0431798 297.445884,25.0723483 L300.04691,26.0766742 L298.537214,23.7511461 C298.342287,23.4521685 298.362177,23.0623708 298.589593,22.7839438 L300.345932,20.6393933 L297.65142,21.3487191 C297.596389,21.3626404 297.498926,21.375236 297.441906,21.375236 C297.161449,21.375236 296.902871,21.2353596 296.750376,21.0000225 L295.233387,18.6632247 L295.082219,21.433573 C295.061665,21.7935393 294.814359,22.0951685 294.466937,22.1853258 L291.783696,22.8906742 L291.783696,22.8906742 Z" id="Fill-13" filter="url(#filter-13)"></path>
                <path d="M269.875536,35.7128989 C269.526788,35.7128989 269.223788,35.5020899 269.103118,35.1752697 L267.729341,31.4622472 L263.757853,31.6094157 L263.75719,31.6094157 C263.375291,31.6094157 263.063009,31.3866742 262.948306,31.0552135 C262.834267,30.7237528 262.943002,30.3551685 263.218818,30.1390562 L266.335674,27.7021573 L264.96256,23.9970899 C264.869074,23.7451798 264.904214,23.4627753 265.056709,23.2426854 C265.304678,22.8866966 265.829127,22.7846067 266.192462,23.027236 L269.496289,25.2314494 L272.617786,22.7892472 C272.970512,22.5134719 273.517503,22.5890449 273.785363,22.9430449 C273.941173,23.1498764 273.989573,23.4123933 273.91863,23.6629775 L272.839897,27.4621798 L276.140409,29.6650674 C276.438105,29.862618 276.573361,30.2278876 276.475897,30.5726067 C276.378433,30.9179888 276.071455,31.1586292 275.712761,31.1712247 L271.746578,31.3157416 L270.667845,35.1149438 C270.566403,35.4729213 270.248153,35.7128989 269.875536,35.7128989 L269.875536,35.7128989 Z M268.044939,30.123809 C268.418882,30.123809 268.729175,30.3405843 268.847193,30.6621011 L269.812549,33.2720225 L270.570381,30.6024382 C270.669171,30.2570562 270.975486,30.0177416 271.33219,30.0044831 L274.108254,29.9030562 L271.798956,28.361764 C271.50126,28.1642135 271.366667,27.7989438 271.463468,27.4542247 L272.221963,24.7826517 L270.027368,26.499618 C269.881503,26.6129775 269.701825,26.6746292 269.520158,26.6746292 L269.519495,26.6746292 C269.355729,26.6746292 269.19793,26.626236 269.062011,26.5354157 L266.744094,24.9894831 L267.706799,27.586809 C267.832109,27.9222472 267.726026,28.2981236 267.442254,28.5202022 L265.25893,30.2272247 L268.043613,30.123809 L268.044939,30.123809 L268.044939,30.123809 Z" id="Fill-14" filter="url(#filter-14)"></path>
                <path d="M251.062352,58.0089326 C250.834937,58.0089326 250.615477,57.9141348 250.459667,57.7497303 C250.303858,57.5846629 250.224295,57.3672247 250.237556,57.1391798 L250.4537,53.1981124 L246.748746,51.7708427 C246.415247,51.6428989 246.203081,51.3160787 246.222309,50.9581011 C246.242199,50.6001236 246.488179,50.2978315 246.835602,50.2070112 L250.67316,49.1980449 L250.887978,45.2536629 C250.913173,44.8174607 251.274519,44.4760562 251.712112,44.4760562 C251.99058,44.4760562 252.248495,44.6159326 252.401652,44.8506067 L254.559781,48.1764831 L258.401317,47.166191 C258.456348,47.1522697 258.555801,47.1390112 258.612821,47.1390112 C258.928418,47.1390112 259.220147,47.3246292 259.356066,47.6116742 C259.493311,47.9013708 259.452204,48.2354831 259.248656,48.4840787 L256.745094,51.540809 L258.899908,54.8593933 C259.064337,55.1132921 259.077597,55.434809 258.933722,55.6993146 C258.788521,55.9651461 258.512042,56.1308764 258.211031,56.1308764 C258.128816,56.1308764 257.987593,56.1036966 257.911346,56.0738652 L254.20374,54.6432809 L251.698188,57.7066404 C251.541053,57.8982247 251.308996,58.0089326 251.062352,58.0089326 L251.062352,58.0089326 Z M248.678796,51.0933371 L251.271204,52.0930225 C251.605365,52.2209663 251.817532,52.5477865 251.797641,52.9070899 L251.64581,55.6761124 L253.408116,53.5222809 C253.566578,53.3293708 253.798635,53.2199888 254.045941,53.2199888 C254.127492,53.2199888 254.267389,53.2465056 254.343637,53.2763371 L256.942011,54.2786742 L255.432315,51.9544719 C255.236724,51.6528427 255.257941,51.2630449 255.486683,50.984618 L257.241033,48.8427191 L254.546521,49.5507191 C254.49149,49.5653034 254.394026,49.5778989 254.337007,49.5778989 C254.056549,49.5778989 253.797972,49.4380225 253.645477,49.2033483 L252.127825,46.8652247 L251.976656,49.6368989 C251.958755,49.9928876 251.712775,50.2951798 251.365352,50.3873258 L248.678796,51.0933371 L248.678796,51.0933371 Z" id="Fill-15" filter="url(#filter-15)"></path>
            </g>
        </g>
    </g>
</svg>